<svg xmlns="http://www.w3.org/2000/svg" width="2080" height="2080" viewBox="0 0 2080 2080" version="1.1"><path d="" stroke="none" fill="#b6b6b6" fill-rule="evenodd"/><path d="M 884.667 472.667 C 883.216 474.117, 884.147 477.098, 887.104 480.465 C 888.811 482.409, 890.650 484, 891.191 484 C 892.300 484, 891.326 476.563, 889.849 473.750 C 888.937 472.013, 885.946 471.388, 884.667 472.667 M 860.852 484.426 C 858.154 490.348, 863.254 495.030, 868.591 491.532 C 870.968 489.975, 871.045 489.707, 869.584 488.093 C 868.713 487.130, 868 485.639, 868 484.778 C 868 483.193, 866.023 482, 863.397 482 C 862.605 482, 861.460 483.092, 860.852 484.426 M 808.646 538.244 C 807.894 541.120, 810.158 543.738, 811.721 541.800 C 812.873 540.372, 811.688 536, 810.149 536 C 809.645 536, 808.969 537.010, 808.646 538.244 M 818.882 537.250 C 818.500 541.277, 820.500 543.660, 822.716 541.820 C 824.496 540.344, 824.324 537.338, 822.418 536.607 C 820.021 535.687, 819.012 535.871, 818.882 537.250 M 831.554 543.913 C 831.089 544.666, 818.672 545.007, 791.191 545.022 C 747.353 545.046, 746.917 545.103, 740.803 551.624 C 734.645 558.191, 735 549.719, 735 690.075 C 735 799.760, 734.798 818.136, 733.594 817.674 C 732.821 817.378, 731.377 818.031, 730.386 819.126 C 728.226 821.513, 729.452 824.314, 732.879 824.823 L 735.055 825.146 734.589 856.823 C 734.015 895.963, 734.012 896, 731.691 896 C 730.696 896, 730.134 896.408, 730.442 896.906 C 730.750 897.404, 731.902 897.577, 733.001 897.289 C 734.994 896.768, 735 897.286, 735 1056.415 C 735 1231.417, 734.602 1219.763, 740.803 1226.376 C 746.548 1232.502, 748.972 1232.954, 776.250 1232.978 C 797.038 1232.996, 801 1233.229, 801 1234.430 C 801 1235.217, 799.987 1236.005, 798.750 1236.180 C 795.648 1236.621, 795.927 1239.198, 799.250 1240.791 C 800.763 1241.516, 802 1242.690, 802 1243.400 C 802 1244.755, 805.909 1248.788, 806.125 1247.655 C 806.194 1247.295, 806.313 1246.662, 806.390 1246.250 C 806.467 1245.838, 806.800 1245.050, 807.129 1244.500 C 807.457 1243.950, 807.750 1241.813, 807.780 1239.750 C 807.809 1237.688, 807.871 1235.709, 807.917 1235.354 C 807.963 1234.999, 809.104 1235.899, 810.452 1237.354 C 812.953 1240.052, 814.694 1240.932, 813.405 1238.846 C 813.012 1238.211, 812.575 1236.636, 812.434 1235.346 L 812.176 1233 1051.772 1233 L 1291.369 1233 1295.693 1235.094 L 1300.018 1237.187 1303.566 1235.094 C 1307.024 1233.053, 1308.249 1233, 1351.557 1233 C 1383.751 1233, 1396 1233.309, 1396 1234.122 C 1396 1234.941, 1396.359 1234.947, 1397.325 1234.145 C 1398.260 1233.369, 1423.242 1232.965, 1482.075 1232.772 L 1565.500 1232.500 1570.223 1229.723 C 1573.286 1227.923, 1575.923 1225.286, 1577.723 1222.223 L 1580.500 1217.500 1580.500 889 L 1580.500 560.500 1577.746 555.815 C 1574.758 550.732, 1571.409 547.953, 1566.101 546.153 C 1563.559 545.291, 1470.892 545, 1198.551 545 C 937.659 545, 834.092 544.692, 833.313 543.913 C 832.530 543.130, 832.038 543.130, 831.554 543.913 M 608.276 617.250 C 540.045 692.490, 542.104 690.104, 541.571 694.500 C 541.304 696.700, 540.158 725.275, 539.024 758 C 537.891 790.725, 536.718 820.249, 536.418 823.608 L 535.871 829.716 518.186 837.951 C 508.459 842.481, 500.187 846.482, 499.805 846.843 C 499.423 847.204, 499.516 866.175, 500.013 889 C 500.509 911.825, 501.199 945.931, 501.546 964.791 L 502.177 999.083 499.589 998.433 C 497.642 997.944, 497 998.166, 497 999.325 C 497 1000.425, 497.718 1000.737, 499.500 1000.414 C 501.902 999.979, 502 1000.163, 502 1005.120 C 502 1008.818, 501.504 1010.688, 500.250 1011.721 C 498.701 1012.998, 498.691 1013.104, 500.167 1012.645 C 501.084 1012.360, 502.031 1012.660, 502.271 1013.313 C 503.027 1015.370, 503.174 1041, 502.430 1041 C 502.040 1041, 501.107 1040.213, 500.358 1039.250 C 499.125 1037.666, 499.051 1037.661, 499.585 1039.199 C 500.032 1040.487, 499.368 1041.116, 496.837 1041.802 C 495.002 1042.300, 492.772 1042.339, 491.881 1041.889 C 490.991 1041.439, 489.979 1041.355, 489.631 1041.702 C 488.634 1042.699, 488.896 1046.818, 490 1047.500 C 490.550 1047.840, 491 1047.341, 491 1046.392 C 491 1045.443, 491.302 1044.968, 491.670 1045.337 C 492.039 1045.705, 493.401 1045.312, 494.698 1044.462 C 497.210 1042.816, 499 1043.242, 499 1045.486 C 499 1046.238, 499.748 1046.999, 500.663 1047.177 C 502.794 1047.591, 502.923 1048.831, 503.630 1075.649 C 504.197 1097.177, 504.158 1097.815, 502.215 1098.432 C 499.690 1099.233, 498.555 1102.786, 500.878 1102.618 C 501.770 1102.553, 502.806 1101.825, 503.180 1101 C 503.554 1100.175, 503.891 1101.622, 503.930 1104.215 C 503.985 1107.950, 503.584 1109.152, 502 1110 C 499.700 1111.231, 499.285 1115, 501.450 1115 C 502.248 1115, 503.307 1114.273, 503.805 1113.385 C 504.671 1111.836, 505.365 1136.837, 506.512 1211 C 506.763 1227.225, 507.248 1244.431, 507.589 1249.235 C 508.204 1257.885, 508.186 1257.979, 505.702 1258.923 C 504.323 1259.448, 502.887 1260.374, 502.511 1260.982 C 501.498 1262.621, 504.081 1265.212, 506.180 1264.663 C 507.901 1264.213, 508 1265.445, 508 1287.394 C 508 1302.771, 507.633 1310.967, 506.913 1311.687 C 506.130 1312.470, 506.130 1312.962, 506.913 1313.446 C 507.511 1313.816, 508.002 1316.454, 508.004 1319.309 C 508.006 1322.689, 508.687 1325.615, 509.956 1327.696 C 513.668 1333.783, 514.482 1333.968, 538.057 1334.072 C 549.851 1334.124, 563.459 1334.420, 568.297 1334.730 L 577.094 1335.294 576.468 1338.148 C 575.982 1340.358, 576.253 1341.154, 577.670 1341.678 C 580.541 1342.739, 580.969 1344.158, 579.166 1346.642 C 577.466 1348.984, 574 1349.856, 574 1347.941 C 574 1347.359, 574.403 1347.131, 574.895 1347.435 C 576.550 1348.458, 576.899 1345.161, 575.278 1343.823 C 574.073 1342.829, 573.575 1342.797, 573.273 1343.694 C 573.052 1344.350, 572.270 1344.657, 571.537 1344.376 C 569.484 1343.588, 569.028 1345.230, 570.101 1349.555 C 570.639 1351.725, 571.198 1354.049, 571.344 1354.721 C 571.490 1355.393, 571.922 1356.255, 572.304 1356.638 C 573.691 1358.025, 573.049 1360.956, 571.489 1360.357 C 570.377 1359.931, 570.153 1360.234, 570.640 1361.504 C 571.171 1362.888, 570.902 1363.104, 569.285 1362.591 C 567.571 1362.046, 567.338 1362.316, 567.734 1364.387 C 568.070 1366.145, 567.609 1367.139, 566.079 1367.958 C 564.913 1368.582, 563.518 1368.820, 562.979 1368.487 C 562.441 1368.154, 562.032 1368.471, 562.070 1369.191 C 562.164 1370.934, 563.836 1374.777, 563.945 1373.500 C 564.061 1372.143, 565.965 1375.178, 565.985 1376.750 C 565.993 1377.438, 565.489 1378, 564.865 1378 C 563.288 1378, 559 1382.790, 559 1384.552 C 559 1385.348, 559.477 1386, 560.059 1386 C 560.641 1386, 560.797 1386.520, 560.405 1387.155 C 559.921 1387.936, 560.135 1388.034, 561.067 1387.459 C 561.824 1386.991, 563.731 1386.706, 565.306 1386.826 C 568.006 1387.032, 568.131 1386.871, 567.499 1383.994 C 567.130 1382.316, 567.205 1381.009, 567.664 1381.090 C 569.754 1381.457, 570.806 1380.851, 571.290 1379 C 571.590 1377.853, 572.654 1377, 573.784 1377 C 574.868 1377, 576.280 1376.368, 576.922 1375.595 C 578.397 1373.817, 588.163 1374.060, 590.416 1375.930 C 592.715 1377.838, 592.361 1380.001, 589.750 1379.995 C 582.221 1379.979, 574.672 1385.802, 577.396 1389.526 C 578.454 1390.973, 578.831 1390.921, 581.293 1388.984 C 582.792 1387.805, 583.763 1386.426, 583.451 1385.920 C 582.483 1384.354, 585.679 1384.909, 587.035 1386.542 C 588.005 1387.711, 588.034 1388.366, 587.158 1389.242 C 585.812 1390.588, 585.681 1392.949, 586.848 1394.789 C 587.474 1395.774, 588.332 1395.824, 590.496 1395.002 C 592.450 1394.259, 593.647 1394.247, 594.363 1394.963 C 595.079 1395.679, 594.967 1396, 594 1396 C 592.911 1396, 592.867 1396.267, 593.800 1397.200 C 594.460 1397.860, 595 1399.674, 595 1401.231 C 595 1404.675, 597.399 1405.854, 599.866 1403.621 C 602.471 1401.264, 605.731 1401.570, 606.567 1404.250 C 606.954 1405.487, 607.680 1406.764, 608.181 1407.088 C 608.683 1407.411, 609.167 1409.534, 609.258 1411.805 C 609.370 1414.621, 609.908 1416.028, 610.950 1416.229 C 612.169 1416.464, 612.016 1416.984, 610.187 1418.813 C 607.750 1421.250, 607.917 1424.370, 610.538 1425.376 C 611.342 1425.685, 612 1426.626, 612 1427.469 C 612 1429.247, 613.569 1429.506, 614.566 1427.893 C 615.047 1427.115, 615.489 1427.174, 616.056 1428.090 C 616.667 1429.079, 617.352 1428.803, 618.897 1426.947 C 620.017 1425.601, 620.948 1424.046, 620.967 1423.491 C 621.010 1422.183, 625.004 1419.575, 627.220 1419.407 C 628.166 1419.335, 629.650 1420.060, 630.517 1421.019 C 632.265 1422.950, 632.116 1423.200, 626.324 1428.074 C 623.389 1430.543, 622.203 1435.243, 624.762 1434.261 C 625.496 1433.979, 626.637 1434.474, 627.298 1435.359 C 628.433 1436.879, 633.022 1436.697, 632.985 1435.133 C 632.939 1433.245, 631.021 1431.778, 629.407 1432.397 C 627.702 1433.052, 627.704 1432.985, 629.438 1431.069 C 630.442 1429.959, 632.132 1428.776, 633.192 1428.439 C 634.761 1427.941, 634.995 1427.254, 634.448 1424.763 C 633.902 1422.276, 634.060 1421.809, 635.290 1422.281 C 637.422 1423.099, 638.013 1422.164, 637.019 1419.549 C 636.371 1417.846, 636.638 1416.898, 638.125 1415.625 C 639.203 1414.702, 639.772 1413.440, 639.390 1412.822 C 639.007 1412.203, 639.365 1411.202, 640.184 1410.598 C 641.637 1409.527, 644 1405.755, 644 1404.507 C 644 1404.163, 643.437 1404.200, 642.750 1404.588 C 641.816 1405.115, 641.826 1404.943, 642.792 1403.905 C 643.893 1402.721, 644.211 1402.723, 644.949 1403.918 C 645.425 1404.688, 645.583 1405.922, 645.300 1406.659 C 645.018 1407.397, 645.270 1408, 645.862 1408 C 646.453 1408, 646.678 1408.675, 646.362 1409.500 C 646.045 1410.325, 645.186 1411, 644.452 1411 C 642.384 1411, 641.809 1412.721, 643.156 1414.878 C 644.123 1416.426, 644.120 1417.151, 643.141 1418.330 C 641.687 1420.082, 643.040 1421.305, 645.421 1420.392 C 646.600 1419.940, 646.858 1420.206, 646.399 1421.401 C 646.057 1422.295, 646.332 1423.695, 647.011 1424.513 C 648.005 1425.711, 647.968 1426, 646.822 1426 C 646.040 1426, 644.911 1425.511, 644.313 1424.913 C 643.530 1424.130, 643.038 1424.130, 642.554 1424.913 C 642.184 1425.511, 642.134 1426, 642.441 1426 C 642.954 1426, 641.755 1427.448, 637.237 1432.289 C 635.961 1433.657, 635.822 1434.485, 636.647 1435.806 C 637.453 1437.097, 637.376 1437.859, 636.341 1438.826 C 635.579 1439.538, 635.242 1440.582, 635.591 1441.147 C 636.020 1441.841, 636.578 1441.822, 637.313 1441.087 C 639.539 1438.861, 640.983 1439.876, 640.389 1443.250 C 639.102 1450.564, 639.352 1453.506, 641.519 1456.500 C 642.712 1458.150, 643.948 1460.175, 644.265 1461 C 644.604 1461.882, 644.875 1461.367, 644.921 1459.750 C 644.964 1458.237, 645.487 1457, 646.083 1457 C 646.679 1457, 646.960 1456.438, 646.708 1455.750 C 646.456 1455.063, 645.757 1454.608, 645.155 1454.740 C 644.553 1454.872, 643.606 1454.132, 643.051 1453.095 C 642.304 1451.700, 642.426 1450.891, 643.521 1449.983 C 644.334 1449.307, 645 1448.086, 645 1447.269 C 645 1446.164, 645.674 1445.952, 647.626 1446.442 C 649.785 1446.984, 650.141 1446.811, 649.626 1445.469 C 649.282 1444.571, 649 1443.423, 649 1442.918 C 649 1442.413, 648.100 1442, 647 1442 C 644.930 1442, 644.240 1439.587, 646 1438.500 C 646.550 1438.160, 647.014 1436.446, 647.032 1434.691 C 647.062 1431.685, 647.148 1431.611, 648.516 1433.419 C 649.948 1435.312, 649.998 1435.312, 652.089 1433.419 C 653.255 1432.364, 655.201 1431.486, 656.412 1431.468 C 657.624 1431.451, 659.687 1430.438, 660.996 1429.218 C 663.582 1426.809, 665.512 1426.401, 666.530 1428.049 C 666.974 1428.767, 667.617 1428.732, 668.573 1427.940 C 669.340 1427.303, 672.450 1426.605, 675.484 1426.389 C 680.031 1426.066, 681 1426.277, 681 1427.592 C 681 1428.469, 680.100 1429.423, 679 1429.710 C 677.900 1429.998, 677 1430.680, 677 1431.225 C 677 1431.775, 678.078 1431.946, 679.417 1431.610 C 680.913 1431.235, 682.027 1431.480, 682.338 1432.252 C 682.615 1432.938, 682.878 1431.850, 682.921 1429.833 C 682.966 1427.729, 682.467 1425.987, 681.750 1425.746 C 680.774 1425.417, 680.799 1424.964, 681.863 1423.674 C 682.613 1422.765, 683.535 1422.212, 683.911 1422.445 C 685.226 1423.258, 687.322 1421.165, 687.520 1418.842 C 687.827 1415.250, 678.999 1403.541, 675.457 1402.841 C 674.509 1402.653, 672.904 1400.952, 671.890 1399.059 C 670.876 1397.166, 669.378 1394.949, 668.560 1394.131 C 667.245 1392.816, 667 1392.837, 666.432 1394.317 C 665.632 1396.402, 664 1395.525, 664 1393.011 C 664 1391.831, 663.168 1391.021, 661.750 1390.820 C 659.840 1390.548, 659.503 1389.895, 659.522 1386.500 C 659.541 1383.278, 659.879 1382.557, 661.264 1382.792 C 663.760 1383.216, 670 1376.603, 670 1373.533 C 670 1372.140, 670.474 1371, 671.054 1371 C 671.634 1371, 673.462 1369.735, 675.117 1368.188 C 678.539 1364.990, 680.435 1358.682, 678.859 1355.737 C 678.302 1354.696, 678.093 1353.200, 678.395 1352.413 C 678.700 1351.619, 678.066 1350.434, 676.972 1349.750 C 674.664 1348.309, 674.370 1345.456, 676.448 1344.658 C 677.244 1344.353, 678.610 1342.722, 679.483 1341.033 C 680.940 1338.215, 680.936 1337.913, 679.434 1337.336 C 678.522 1336.986, 677.424 1337.314, 676.953 1338.075 C 675.844 1339.871, 674.774 1338.753, 675.583 1336.643 C 676.285 1334.814, 680.238 1334.743, 795.045 1334.501 L 851.591 1334.382 865.858 1322.191 C 873.705 1315.486, 880.603 1310, 881.185 1310 C 881.842 1310, 881.764 1310.579, 880.981 1311.523 C 879.932 1312.787, 879.980 1312.945, 881.268 1312.451 C 882.121 1312.123, 883.101 1310.733, 883.445 1309.361 C 884.051 1306.948, 884.313 1306.876, 891.536 1307.145 C 895.641 1307.298, 899 1307.778, 899 1308.212 C 899 1308.645, 899.675 1309, 900.500 1309 C 901.325 1309, 902 1308.550, 902 1308 C 902 1307.339, 939.613 1307, 1012.838 1307 L 1123.676 1307 1163.492 1321.047 L 1203.307 1335.094 1268.013 1334.439 L 1332.719 1333.784 1335.233 1336.495 C 1337.377 1338.808, 1338.059 1339.039, 1339.873 1338.068 C 1341.043 1337.442, 1342 1336.558, 1342 1336.104 C 1342 1335.156, 1353.991 1333.877, 1355.299 1334.685 C 1355.775 1334.979, 1355.037 1336.408, 1353.659 1337.860 C 1350.386 1341.310, 1351.024 1345.367, 1355.165 1347.432 C 1358.341 1349.017, 1360.530 1348.667, 1361.385 1346.440 C 1361.682 1345.666, 1362.571 1345.282, 1363.361 1345.585 C 1365.054 1346.235, 1366.498 1344.426, 1365.016 1343.510 C 1363.402 1342.512, 1363.839 1340.724, 1365.538 1341.376 C 1366.411 1341.711, 1367.321 1341.328, 1367.643 1340.489 C 1367.954 1339.676, 1368.613 1339.261, 1369.107 1339.566 C 1369.600 1339.871, 1370.459 1338.923, 1371.016 1337.459 C 1371.996 1334.880, 1372.231 1334.811, 1378.564 1335.248 C 1383.812 1335.610, 1385.398 1336.123, 1386.607 1337.849 C 1387.436 1339.032, 1388.875 1339.993, 1389.807 1339.985 C 1390.837 1339.975, 1391.080 1339.682, 1390.427 1339.235 C 1388.919 1338.202, 1387.863 1335, 1389.031 1335 C 1389.564 1335, 1390 1335.375, 1390 1335.833 C 1390 1336.292, 1391.350 1336.667, 1393 1336.667 C 1394.650 1336.667, 1396 1336.269, 1396 1335.783 C 1396 1335.298, 1398.588 1335.035, 1401.750 1335.200 C 1406.582 1335.452, 1407.453 1335.779, 1407.206 1337.250 C 1407.045 1338.213, 1407.368 1339, 1407.925 1339 C 1408.482 1339, 1408.700 1339.618, 1408.411 1340.372 C 1408.071 1341.257, 1408.793 1341.918, 1410.442 1342.234 C 1412.526 1342.632, 1413.006 1342.332, 1413.032 1340.611 C 1413.088 1336.886, 1415.383 1335, 1419.860 1335 C 1422.873 1335, 1424 1335.408, 1424 1336.500 C 1424 1337.325, 1424.675 1338, 1425.500 1338 C 1426.325 1338, 1427 1337.351, 1427 1336.558 C 1427 1335.362, 1429.944 1335.097, 1444.250 1335.004 C 1453.737 1334.942, 1463.750 1334.748, 1466.500 1334.572 C 1469.250 1334.396, 1474.319 1334.196, 1477.765 1334.126 C 1483.418 1334.012, 1484.394 1333.666, 1487.765 1330.579 L 1491.500 1327.157 1491.803 1303.915 C 1492.134 1278.626, 1491.829 1276.717, 1486.794 1272.480 L 1483.847 1270 1129.923 1270 C 847.459 1270, 775.997 1269.748, 775.985 1268.750 C 775.974 1267.881, 775.745 1267.837, 775.235 1268.605 C 774.105 1270.302, 768 1270.158, 768 1268.433 C 768 1267.645, 767.277 1267, 766.393 1267 C 765.417 1267, 765 1267.557, 765.330 1268.417 C 765.747 1269.505, 764.864 1269.833, 761.512 1269.833 C 757.152 1269.833, 755.163 1268.164, 756.651 1265.755 C 757.047 1265.114, 756.833 1264.985, 756.111 1265.432 C 755.451 1265.839, 753.694 1265.358, 752.206 1264.362 C 750.718 1263.367, 749.050 1262.520, 748.500 1262.481 C 747.950 1262.441, 747.624 1261.834, 747.775 1261.130 C 747.926 1260.427, 747.619 1260.117, 747.094 1260.442 C 746.568 1260.767, 745.856 1260.575, 745.510 1260.016 C 745.165 1259.457, 743.446 1258.968, 741.691 1258.930 C 739.936 1258.891, 737.600 1258.473, 736.500 1258 C 734.683 1257.219, 734.909 1257.011, 738 1256.625 C 739.467 1256.442, 739.517 1255.737, 738.220 1253.500 C 737.286 1251.889, 737.055 1251.819, 737.030 1253.138 C 736.981 1255.807, 727.819 1254.917, 726.513 1252.117 C 725.437 1249.811, 723.400 1249.300, 722.773 1251.180 C 722.545 1251.866, 721.636 1252.074, 720.603 1251.678 C 719.138 1251.116, 718.944 1250.292, 719.500 1246.998 C 719.944 1244.370, 719.803 1243, 719.088 1243 C 718.490 1243, 718 1243.708, 718 1244.573 C 718 1245.542, 717.328 1246.008, 716.250 1245.787 C 715.288 1245.589, 714.620 1244.711, 714.766 1243.835 C 714.912 1242.958, 714.177 1242.018, 713.131 1241.745 C 711.690 1241.368, 711.351 1240.612, 711.732 1238.624 C 712.074 1236.831, 711.800 1235.996, 710.867 1235.986 C 710.115 1235.979, 708.487 1235.701, 707.250 1235.370 C 705.851 1234.995, 705 1235.211, 705 1235.942 C 705 1236.589, 705.399 1236.871, 705.887 1236.570 C 706.374 1236.269, 707.280 1236.632, 707.899 1237.378 C 708.751 1238.405, 708.650 1239.046, 707.481 1240.015 C 706.165 1241.108, 705.763 1240.833, 704.750 1238.148 C 704.096 1236.417, 702.985 1235, 702.281 1235 C 700.581 1235, 700.638 1236.647, 702.361 1237.308 C 703.110 1237.596, 703.992 1238.881, 704.321 1240.165 L 704.920 1242.500 703.033 1240.021 C 701.883 1238.510, 701.179 1238.119, 701.230 1239.021 C 701.277 1239.834, 701.244 1241.357, 701.158 1242.405 C 701.010 1244.187, 700.881 1244.203, 699.171 1242.655 C 696.900 1240.599, 695.602 1240.521, 696.356 1242.485 C 696.833 1243.728, 696.605 1243.770, 694.963 1242.745 C 693.095 1241.578, 693 1240.273, 693 1215.651 L 693 1189.783 695.396 1190.384 C 697.047 1190.799, 697.977 1190.502, 698.389 1189.430 C 698.717 1188.574, 699.423 1188.143, 699.956 1188.473 C 700.490 1188.803, 701.878 1188.122, 703.040 1186.960 C 704.938 1185.062, 707.395 1184.275, 712.061 1184.069 C 714.555 1183.959, 718 1180.140, 718 1177.487 C 718 1175.792, 718.913 1174.579, 721 1173.500 C 722.650 1172.647, 723.984 1171.623, 723.965 1171.224 C 723.896 1169.829, 721.071 1165.513, 721.035 1166.750 C 720.976 1168.859, 718.605 1168.081, 716.562 1165.281 C 715.230 1163.456, 714.996 1162.501, 715.812 1162.229 C 717.302 1161.733, 717.368 1154.557, 715.908 1151.828 C 715.051 1150.226, 714.179 1149.914, 711.858 1150.378 C 710.033 1150.743, 709.134 1150.593, 709.509 1149.985 C 709.844 1149.443, 710.766 1149, 711.559 1149 C 712.352 1149, 713 1148.502, 713 1147.893 C 713 1147.284, 712.362 1147.031, 711.583 1147.330 C 710.803 1147.629, 709.917 1147.227, 709.614 1146.437 C 709.311 1145.647, 709.499 1145, 710.031 1145 C 710.564 1145, 711 1144.325, 711 1143.500 C 711 1142.675, 710.375 1142, 709.611 1142 C 708.823 1142, 707.946 1140.527, 707.584 1138.597 C 707.233 1136.725, 706.214 1134.912, 705.319 1134.569 C 703.870 1134.013, 703.900 1133.788, 705.597 1132.504 C 706.674 1131.689, 706.960 1131.050, 706.256 1131.032 C 704.631 1130.990, 705.239 1127.088, 707.045 1125.972 C 707.813 1125.497, 708.139 1124.806, 707.769 1124.435 C 707.398 1124.065, 707.770 1123.087, 708.595 1122.262 C 709.420 1121.437, 709.922 1120.588, 709.710 1120.376 C 709.377 1120.043, 703 1121.923, 703 1122.354 C 703 1122.442, 703.419 1123.973, 703.930 1125.757 C 704.442 1127.540, 704.494 1129, 704.047 1129 C 703.110 1129, 702.034 1125.487, 702.014 1122.365 C 701.995 1119.378, 697.254 1116.360, 694.894 1117.834 C 693.218 1118.881, 693.124 1116.907, 693.034 1078.968 C 692.982 1056.986, 693.291 1038.997, 693.720 1038.994 C 695.204 1038.982, 698 1032.825, 698 1029.568 C 698 1025.210, 696.213 1020.296, 694.371 1019.589 C 692.180 1018.748, 692.534 963.393, 694.736 962.548 C 695.531 962.243, 696.590 962.247, 697.090 962.556 C 697.591 962.865, 698 962.364, 698 961.442 C 698 960.226, 697.360 959.889, 695.667 960.213 C 693.514 960.624, 693.320 960.304, 693.167 956.079 C 693.075 953.561, 692.735 868.362, 692.411 766.750 L 691.821 582 666.031 582 L 640.242 582 608.276 617.250 M 796 739.500 C 796 812.925, 796.353 873, 796.784 873 C 797.216 873, 798.361 874.341, 799.330 875.981 C 801.191 879.131, 800.697 881.346, 797.555 883.955 C 796.162 885.111, 796.012 898.895, 796.118 1016.372 C 796.182 1088.493, 796.604 1145.301, 797.054 1142.613 C 798.489 1134.051, 801.017 1134.106, 804.355 1142.770 C 806.510 1148.365, 806.432 1151.299, 804.072 1153.435 C 801.693 1155.588, 798.232 1154.720, 796.999 1151.662 C 796.387 1150.146, 796.075 1152.040, 795.953 1158 C 795.788 1166.041, 795.954 1171.242, 796.390 1171.709 C 796.908 1172.264, 838.652 1172.315, 1167.250 1172.163 L 1520 1172 1520 889 L 1520 606 1158 606 L 796 606 796 739.500 M 1330.250 625.265 C 1329.013 625.837, 1328 626.912, 1328 627.653 C 1328 628.423, 1326.930 629, 1325.500 629 C 1324.125 629, 1323 629.498, 1323 630.107 C 1323 630.716, 1323.661 630.960, 1324.468 630.651 C 1325.275 630.341, 1326.207 630.526, 1326.538 631.062 C 1326.893 631.636, 1328.242 631.274, 1329.820 630.181 C 1331.294 629.160, 1333.287 628.041, 1334.250 627.694 C 1335.213 627.347, 1336 626.469, 1336 625.744 C 1336 624.111, 1333.241 623.881, 1330.250 625.265 M 1336 636.417 C 1336 637.196, 1335.438 638.060, 1334.750 638.338 C 1333.849 638.701, 1333.832 638.864, 1334.691 638.921 C 1335.346 638.964, 1336.171 638.532, 1336.525 637.960 C 1336.906 637.343, 1338.765 638.362, 1341.087 640.460 C 1345.155 644.134, 1346.470 644.666, 1347.474 643.043 C 1347.799 642.516, 1346.813 641.434, 1345.283 640.638 C 1343.752 639.842, 1341.419 638.248, 1340.097 637.095 C 1337.292 634.650, 1336 634.436, 1336 636.417 M 1344.335 653.823 C 1344.011 655.101, 1344.188 656.588, 1344.729 657.129 C 1346.298 658.698, 1350.752 657.051, 1351.392 654.665 C 1352.307 651.253, 1352.201 651.132, 1348.461 651.321 C 1345.670 651.462, 1344.798 651.991, 1344.335 653.823 M 873.555 723.750 C 873.942 737.362, 874.417 748.679, 874.610 748.897 C 874.803 749.116, 898.932 749.341, 928.231 749.397 L 981.500 749.500 981.507 729 C 981.511 717.725, 981.340 706.362, 981.128 703.750 L 980.742 699 926.796 699 L 872.850 699 873.555 723.750 M 873.531 786.242 C 873.169 791.334, 873.014 802.700, 873.187 811.500 L 873.500 827.500 1042.250 827.753 L 1211 828.006 1211 802.520 L 1211 777.033 1042.594 777.009 L 874.188 776.984 873.531 786.242 M 873.667 855.667 C 872.816 856.517, 872.810 874.723, 873.655 892.342 L 874.310 906 1011.655 906 L 1149 906 1149 880.500 L 1149 855 1011.667 855 C 936.133 855, 874.033 855.300, 873.667 855.667 M 873.797 934.250 C 873.491 935.166, 873.630 977.464, 873.958 983.250 C 873.981 983.663, 914.950 984, 965 984 L 1056 984 1056 958.500 L 1056 933 965.107 933 C 893.282 933, 874.126 933.262, 873.797 934.250 M 870.169 1003.528 C 868.592 1006.989, 870.538 1010.184, 873.982 1009.786 C 877.525 1009.378, 879.251 1004.388, 876.536 1002.403 C 873.671 1000.308, 871.458 1000.699, 870.169 1003.528 M 873.946 1019.734 C 873.917 1024.555, 873.804 1035.925, 873.696 1045 L 873.500 1061.500 1064.267 1061.753 L 1255.034 1062.005 1254.767 1036.753 L 1254.500 1011.500 1064.250 1011.234 L 874 1010.969 873.946 1019.734 M 1656.011 1041.487 C 1654.373 1043.460, 1655.442 1046, 1657.910 1046 C 1660.537 1046, 1661.333 1044.491, 1660.011 1042.021 C 1658.724 1039.616, 1657.679 1039.477, 1656.011 1041.487 M 911.362 1077.499 C 910.933 1078.617, 911.287 1079.581, 912.346 1080.173 C 914.543 1081.403, 914.471 1083.086, 912.250 1082.385 C 910.984 1081.985, 911.152 1082.408, 912.861 1083.916 C 915.774 1086.487, 919.157 1086.589, 921.345 1084.171 C 924.809 1080.344, 922.922 1077.491, 916.217 1076.419 C 912.770 1075.868, 911.915 1076.058, 911.362 1077.499 M 1597.519 1078.234 C 1596.066 1081.728, 1596.420 1086.411, 1598.165 1086.771 C 1600.569 1087.266, 1601.325 1083.759, 1599.659 1079.839 C 1598.495 1077.100, 1598.111 1076.811, 1597.519 1078.234 M 1614.292 1082.750 C 1614.459 1085.764, 1614.928 1086.561, 1616.682 1086.811 C 1619.278 1087.180, 1621.418 1083.891, 1620.488 1080.962 C 1620.058 1079.609, 1618.968 1079, 1616.975 1079 C 1614.264 1079, 1614.097 1079.234, 1614.292 1082.750 M 915.667 1097.667 C 914.224 1099.110, 915.042 1102, 916.893 1102 C 918.860 1102, 920.423 1099.494, 919.444 1097.910 C 918.787 1096.846, 916.626 1096.707, 915.667 1097.667 M 833.250 1098.662 C 831.836 1099.233, 831.554 1102.606, 832.853 1103.409 C 834.399 1104.365, 837.147 1101.547, 836.447 1099.724 C 835.763 1097.940, 835.366 1097.809, 833.250 1098.662 M 834.385 1141.729 C 832.682 1142.906, 833.377 1152.792, 835.323 1155.064 C 837.595 1157.718, 841.599 1157.492, 844.545 1154.545 C 847.668 1151.423, 847.755 1147.051, 844.750 1144.255 C 842.307 1141.983, 836.178 1140.489, 834.385 1141.729 M 933.401 1151.686 C 931.866 1151.988, 931.279 1152.888, 931.218 1155.032 C 931.172 1156.645, 931.521 1158.204, 931.992 1158.495 C 933.271 1159.286, 939.345 1153.367, 938.559 1152.096 C 937.875 1150.989, 937.208 1150.936, 933.401 1151.686 M 1353.309 1238.636 C 1352.472 1240.819, 1354.215 1243.427, 1356.766 1243.808 C 1359.678 1244.244, 1360.922 1240.148, 1358.431 1238.326 C 1355.988 1236.540, 1354.069 1236.656, 1353.309 1238.636 M 770 1247.955 C 770 1249.080, 770.638 1250, 771.417 1250 C 772.196 1250, 772.983 1250.416, 773.167 1250.925 C 773.350 1251.434, 774.164 1251.996, 774.976 1252.175 C 775.788 1252.354, 777.087 1253.091, 777.862 1253.814 C 778.780 1254.670, 779.612 1254.788, 780.249 1254.151 C 781.652 1252.748, 780.252 1251.005, 777.691 1250.968 C 775.557 1250.937, 775.550 1250.899, 777.427 1249.479 C 779.884 1247.620, 779.177 1246.964, 774.091 1246.379 C 770.483 1245.965, 770 1246.151, 770 1247.955 M 787.724 1250.949 C 787.395 1252.204, 787.977 1253.452, 789.357 1254.453 C 791.335 1255.889, 791.352 1255.989, 789.569 1255.754 C 788.045 1255.554, 787.623 1256.133, 787.569 1258.497 C 787.515 1260.847, 787.931 1261.495, 789.495 1261.497 C 791.729 1261.500, 794.283 1259.310, 795.380 1256.452 C 795.994 1254.852, 796.253 1254.786, 797.038 1256.028 C 797.820 1257.263, 797.972 1257.219, 797.985 1255.750 C 798.007 1253.197, 796.322 1253.602, 793.066 1256.933 C 790.407 1259.652, 789 1259.943, 789 1257.774 C 789 1257.284, 789.418 1257.140, 789.928 1257.456 C 791.722 1258.564, 792.107 1254.094, 790.438 1251.546 C 788.436 1248.490, 788.370 1248.476, 787.724 1250.949 M 753 1250.816 C 753 1251.402, 753.450 1252.160, 754 1252.500 C 754.550 1252.840, 755 1253.568, 755 1254.118 C 755 1254.668, 754.550 1254.840, 754 1254.500 C 753.450 1254.160, 753 1254.373, 753 1254.972 C 753 1256.720, 756.117 1257.425, 757.086 1255.896 C 757.572 1255.128, 757.976 1254.870, 757.985 1255.321 C 757.993 1255.773, 758.736 1255.407, 759.636 1254.507 C 761.629 1252.513, 760.596 1251.269, 756.219 1250.394 C 754.204 1249.991, 753 1250.149, 753 1250.816 M 775 1254.941 C 775 1255.459, 775.450 1256.160, 776 1256.500 C 776.550 1256.840, 777 1257.597, 777 1258.181 C 777 1258.856, 776.456 1258.794, 775.513 1258.011 C 773.841 1256.624, 770.532 1257.433, 771.496 1258.993 C 772.211 1260.151, 778.007 1260.380, 777.986 1259.250 C 777.949 1257.207, 776.665 1254, 775.883 1254 C 775.398 1254, 775 1254.423, 775 1254.941 M 1252.309 1259.636 C 1251.478 1261.804, 1253.209 1264.426, 1255.722 1264.802 C 1257.071 1265.005, 1257.919 1264.419, 1258.281 1263.035 C 1259.273 1259.239, 1253.683 1256.057, 1252.309 1259.636 M 478.460 1272.881 C 476.246 1276.227, 475.972 1277.261, 476.977 1278.472 C 478.896 1280.784, 481.631 1278.662, 482.337 1274.312 C 483.238 1268.761, 481.589 1268.153, 478.460 1272.881 M 496.096 1282.610 C 494.984 1285.685, 495.011 1286.440, 496.279 1287.707 C 497.507 1288.936, 498.179 1288.978, 500.133 1287.948 C 504.432 1285.682, 504.908 1283.908, 502 1281 C 499.105 1278.105, 497.574 1278.523, 496.096 1282.610 M 900.411 1317.500 C 900.040 1318.979, 899.066 1320, 898.028 1320 C 897.052 1320, 886.689 1329.920, 874.660 1342.369 L 853.047 1364.737 873.273 1392.530 L 893.500 1420.323 919.697 1429.120 L 945.895 1437.916 993.197 1433.450 C 1019.214 1430.994, 1047.475 1428.302, 1056 1427.468 C 1064.525 1426.635, 1081.033 1425.070, 1092.685 1423.991 L 1113.871 1422.029 1137.089 1407.764 L 1160.307 1393.498 1166.580 1369.162 L 1172.853 1344.825 1167.676 1342.513 C 1164.829 1341.241, 1152.631 1335.655, 1140.568 1330.100 L 1118.636 1320 1011.793 1320 L 904.950 1320 904 1317.500 C 903.477 1316.125, 902.597 1315, 902.044 1315 C 901.491 1315, 900.756 1316.125, 900.411 1317.500 M 1361.032 1335.807 C 1361.049 1336.188, 1361.726 1337.376, 1362.536 1338.446 C 1363.678 1339.957, 1364.275 1340.125, 1365.204 1339.196 C 1365.862 1338.538, 1367.162 1338, 1368.093 1338 C 1369.024 1338, 1370.029 1337.368, 1370.325 1336.595 C 1370.742 1335.509, 1369.746 1335.182, 1365.932 1335.153 C 1363.219 1335.132, 1361.014 1335.426, 1361.032 1335.807 M 533.278 1337.122 C 531.616 1338.784, 532.885 1341, 535.500 1341 C 536.757 1341, 538.024 1340.380, 538.315 1339.622 C 538.893 1338.116, 537.249 1336, 535.500 1336 C 534.895 1336, 533.895 1336.505, 533.278 1337.122 M 1452.457 1347.931 C 1452.774 1348.443, 1452.525 1349.176, 1451.905 1349.559 C 1451.284 1349.942, 1450.384 1349.636, 1449.904 1348.878 C 1449.211 1347.785, 1449.027 1347.773, 1449.015 1348.817 C 1449.006 1349.658, 1448.307 1349.915, 1447.084 1349.527 C 1446.030 1349.192, 1444.927 1349.309, 1444.632 1349.786 C 1443.827 1351.089, 1445.094 1355.060, 1446.114 1354.430 C 1446.601 1354.128, 1447 1354.584, 1447 1355.441 C 1447 1356.298, 1447.450 1357, 1448 1357 C 1448.550 1357, 1449 1356.127, 1449 1355.059 C 1449 1352.808, 1450.572 1351.498, 1451.490 1352.984 C 1453.128 1355.634, 1455.258 1352.703, 1454.315 1349.096 C 1454.013 1347.943, 1453.343 1347, 1452.824 1347 C 1452.306 1347, 1452.141 1347.419, 1452.457 1347.931 M 840.500 1357 C 840.151 1358.100, 839.165 1359, 838.310 1359 C 837.041 1359, 836.984 1359.276, 838 1360.500 C 838.685 1361.325, 838.875 1362, 838.422 1362 C 837.970 1362, 838.121 1362.521, 838.758 1363.158 C 839.634 1364.034, 840.278 1364.014, 841.410 1363.075 C 842.232 1362.393, 843.754 1362.104, 844.792 1362.434 C 846.389 1362.941, 846.652 1362.554, 846.495 1359.922 C 846.218 1355.267, 841.742 1353.086, 840.500 1357 M 712 1411.179 L 712 1452.566 755.750 1493.738 L 799.500 1534.910 1058.250 1534.955 L 1317 1535 1316.987 1493.750 L 1316.974 1452.500 1274.669 1424.250 L 1232.364 1396 1207.771 1396 L 1183.178 1396 1154.072 1418.495 L 1124.967 1440.991 1094.233 1442.930 C 1077.330 1443.996, 1054.725 1445.371, 1044 1445.985 C 1033.275 1446.599, 1018.425 1447.503, 1011 1447.993 C 1003.575 1448.484, 983.531 1449.665, 966.458 1450.617 L 935.416 1452.349 901.487 1438.753 L 867.557 1425.156 845.331 1398.463 C 833.106 1383.782, 822.861 1371.528, 822.564 1371.231 C 822.267 1370.934, 797.269 1370.489, 767.012 1370.242 L 712 1369.793 712 1411.179 M 1406.667 1373.667 C 1405.632 1374.701, 1405.881 1377.808, 1407.057 1378.535 C 1407.638 1378.894, 1409.152 1378.928, 1410.421 1378.609 C 1413.608 1377.809, 1412.861 1373, 1409.550 1373 C 1408.331 1373, 1407.033 1373.300, 1406.667 1373.667 M 592.692 1382.757 C 591.496 1383.030, 590.988 1383.903, 591.192 1385.335 C 591.561 1387.930, 593.857 1388.174, 595.369 1385.778 C 596.681 1383.696, 595.319 1382.159, 592.692 1382.757 M 1247.043 1384.386 C 1245.702 1387.914, 1245.670 1387.753, 1247.958 1388.978 C 1249.552 1389.831, 1250.128 1389.629, 1251.058 1387.891 C 1252.005 1386.123, 1251.848 1385.403, 1250.144 1383.699 L 1248.087 1381.642 1247.043 1384.386 M 650.122 1403.904 C 649.349 1404.393, 649.076 1405.314, 649.500 1406 C 649.924 1406.686, 649.651 1407.607, 648.878 1408.096 C 647.855 1408.744, 648.080 1408.973, 649.750 1408.985 C 650.987 1408.993, 652 1408.550, 652 1408 C 652 1407.450, 652.648 1407, 653.441 1407 C 655.529 1407, 656.492 1404.925, 654.878 1403.904 C 654.120 1403.423, 653.050 1403.031, 652.500 1403.031 C 651.950 1403.031, 650.880 1403.423, 650.122 1403.904 M 654.334 1437.250 C 653.430 1438.691, 653.805 1442.023, 655.042 1443.535 C 655.752 1444.404, 657.822 1444.561, 662.250 1444.081 C 662.663 1444.037, 663 1443.071, 663 1441.936 C 663 1440.210, 662.468 1439.923, 659.750 1440.186 C 656.935 1440.458, 656.511 1440.199, 656.579 1438.250 C 656.667 1435.782, 655.563 1435.290, 654.334 1437.250 M 605.345 1444.543 C 604.648 1446.359, 604.794 1446.534, 607.755 1447.445 C 610.424 1448.265, 612.184 1445.363, 609.896 1443.914 C 607.785 1442.578, 606.005 1442.824, 605.345 1444.543 M 654.250 1449.031 C 652.548 1449.715, 652 1450.747, 652 1453.268 C 652 1456.422, 653.439 1459, 655.200 1459 C 655.640 1459, 656 1458.148, 656 1457.107 C 656 1454.768, 658.774 1453.568, 660.627 1455.105 C 661.735 1456.025, 662 1455.711, 662 1453.483 C 662 1450.851, 659.641 1448.028, 657.500 1448.095 C 656.950 1448.113, 655.487 1448.534, 654.250 1449.031 M 672.693 1457.700 C 670.004 1458.397, 671.073 1461.448, 674.130 1461.804 C 676.446 1462.074, 676.688 1461.818, 676.255 1459.554 C 675.987 1458.149, 675.482 1457.052, 675.133 1457.116 C 674.785 1457.180, 673.687 1457.443, 672.693 1457.700 M 588.238 1483.250 C 587.626 1484.008, 587.569 1485.394, 588.092 1486.774 C 588.919 1488.957, 589.027 1488.977, 590.819 1487.274 C 592.142 1486.015, 592.429 1484.991, 591.807 1483.750 C 590.772 1481.686, 589.627 1481.525, 588.238 1483.250" stroke="none" fill="#fbfbfb" fill-rule="evenodd"/></svg>