<svg xmlns="http://www.w3.org/2000/svg" width="32" height="32" viewBox="0 0 2080 2080"><path fill="#fffcfc" fill-rule="evenodd" d="m1002.25 499.71-12.25.35-.01 56.72c-.01 31.2-.35 57.22-.75 57.83-.46.7-15.41 2.3-39.24 4.24l-38.5 3.12-5.5 5.79a2660.43 2660.43 0 0 0-24.5 26.73 6735 6735 0 0 1-37 40.38 61698 61698 0 0 0-46.7 50.54l-28.7 31.09-.04 63-.04 63 30.65 31.5c74.62 76.69 97.23 99.87 134.54 137.96l39.71 40.54.04 37.82c.04 37.37.02 37.8-1.96 37.18-1.24-.4-2-.18-2 .56 0 .88-.4.86-1.53-.08-1.25-1.04-1.84-.98-3.25.33-5.05 4.7-6.3 5.69-7.1 5.69-1.64 0-3.25 2.85-3.34 5.93-.05 1.69-.5 3.07-1.02 3.07s-2.08.9-3.47 1.99-2.83 1.8-3.2 1.56c-.38-.23-1.25.47-1.93 1.57-1 1.6-1 1.95.05 1.82 3.7-.5 6.92.16 6.5 1.31-.48 1.36 2.26 6.75 3.45 6.75 1.8 0 1.66-1.92-.2-2.51-1.61-.51-1.82-.96-.93-2.02.62-.75 1.02-2.85.87-4.67-.43-5.53.83-7.92 3.92-7.4 1.48.24 3.07.47 3.55.52s.63.98.34 2.08c-.38 1.47-.03 2 1.32 2 2.2 0 3.44-1.6 1.97-2.5a1.25 1.25 0 0 1-.36-1.72c.43-.7 1.19-.4 2.13.82 1.37 1.77 1.43 1.7.89-1.1-.32-1.65-.34-2.44-.04-1.75.75 1.72 3.04 1.57 3.74-.25.35-.91 0-1.5-.9-1.5-.8 0-1.46-.47-1.46-1.03 0-.7.64-.7 2 .03 2.65 1.42 2.54 4.38-.25 6.35-2.24 1.59-2.24 1.6-.25 3.17 1.94 1.52 2 2.93 2.29 47.43l.29 45.86-3.8.56c-2.08.3-11.88.83-21.78 1.17l-18 .62-6.29-6.4c-3.45-3.51-6.66-7.7-7.11-9.32-.46-1.62-1.4-2.8-2.12-2.64-1.86.44-9.93-7.77-9.29-9.44.7-1.82-1.47-4.36-3.71-4.36-1.05 0-16.55-15.67-37.61-38l-35.83-38h-54.51l-2.38 3.75c-1.3 2.06-6.06 10.1-10.56 17.87l-8.17 14.11-.08 37.89-.07 37.88 35.35 29.27c19.44 16.1 35.69 30.19 36.1 31.3.41 1.11 1.37 1.9 2.12 1.73 1.43-.31 44.66 34.64 44.66 36.12 0 .46.79 1.07 1.75 1.35s8.95 6.46 17.75 13.74 34.56 28.5 57.25 47.16L989 1500.1l.03 21.2.03 21.21 11.54 14c6.35 7.7 13.6 16.4 16.12 19.35l4.56 5.35 39.85-.4c23.59-.23 40.2-.78 40.7-1.34.47-.53 2.51-21.21 4.54-45.96s3.94-46.69 4.25-48.75l.56-3.75h47.44l33.44-31.68c29.02-27.5 103.24-97.7 109.68-103.74l2.23-2.1-.99-21.99c-.54-12.1-1.66-38.41-2.5-58.49-3.43-83.14-4.51-107.97-5.07-116.73l-.6-9.23-12.65-10.21c-34.3-27.67-37.68-30.94-31.91-30.76 1.24.04 3.15.43 4.25.87 1.36.54 2.84.2 4.61-1.04 1.44-1.01 2.94-1.52 3.34-1.12.4.4.57.1.38-.65s.3-1.6 1.06-1.88c.85-.31 1.12-.07.69.63-.4.64.08 1.41 1.1 1.78 1 .35 2.6 1.32 3.57 2.15 1.79 1.53 2.24.64 1.14-2.23-.33-.87-1.46-1.58-2.5-1.58s-1.89-.45-1.89-1 .99-1 2.2-1c1.7 0 1.93-.27 1.01-1.19s-2-.8-4.77.52c-1.97.94-3.31 1.28-3 .76s.14-1.23-.42-1.58c-.56-.34-1.02.07-1.02.93 0 1.8-1.34 1.99-4 .56-2.24-1.2-5-.31-5 1.6 0 .9-1.15 1.4-3.25 1.42-2.47 0-2.89.24-1.75.98 1.32.86 1.32.97-.04.99-1.63.01-4.2-2.04-87.21-69.21L1107 984.9l.06-14.2c.12-31.51 3.6-188.7 4.19-189.28.34-.35 11.57 8.73 24.94 20.17l47.56 40.7c13.06 11.18 23.24 20.63 23.23 21.56 0 1.05-.28 1.24-.75.54-.4-.62-1.86-.99-3.23-.84l-3.29.37c-.44.05.13 1.07 1.25 2.27 2.43 2.61 2.61 5.71.49 8.37-1.5 1.87-1.53 1.85-1-.56l.56-2.5-1.1 2.5c-3.08 7.02-5.5 11-6.68 11-.73 0-1.24.56-1.15 1.25.08.69.09 2.15 0 3.25-.14 1.97-.16 1.98-1.61.06-.8-1.07-1.47-2.83-1.47-3.92s-.3-1.67-.67-1.3c-.83.82-1.61 9.18-1.59 16.91.01 3.24-.42 5.75-1 5.75-.55 0 .21 1.23 1.7 2.72s2.24 2.89 1.65 3.08c-1.94.65-1.15 4.04 1.1 4.76 1.2.38 4.24.8 6.75.92 2.5.12 7.84.58 11.86 1.02 5.93.65 7.22 1.1 6.94 2.4-.2.88-.84 1.5-1.44 1.39s-2.48.19-4.19.68c-2.45.7-3.11.58-3.11-.54 0-.79-.5-1.43-1.13-1.43-.7 0-.9 1.08-.54 2.91.42 2.07.15 3.08-.94 3.5-.83.31-1.28.95-1 1.42.58.94 4.23.89 5.19-.07.34-.34 1.25-.38 2.02-.08.86.33 1.4-.12 1.4-1.15 0-1.34.6-1.56 2.9-1.05 2.39.52 2.87.32 2.75-1.17-.1-1.16.48-1.76 1.6-1.67.96.07 1.75-.26 1.75-.75s1.35-.89 3-.89c3.42 0 3.76.7 1.25 2.6-1.6 1.22-1.5 1.34.96 1.37l2.7.03-.35-7c-.2-3.85-.2-7-.01-7s1.56 1.12 3.05 2.5c1.48 1.37 2.37 2.5 1.98 2.5s.22 1.31 1.36 2.91c1.48 2.09 2.77 2.84 4.54 2.64 4.17-.46 7.68-4.55 3.91-4.55-.97 0-1.39-.56-1.06-1.42.3-.78-.47-2.52-1.7-3.85-1.73-1.86-2.16-3.3-1.84-6.08.27-2.26 0-3.65-.68-3.65-2.01 0-1.14-1.47 2.15-3.62 5.27-3.46 8.53-2.65 16.65 4.12 3.95 3.3 7.55 6.13 8 6.28.44.16 4.13-3.5 8.2-8.15 5.1-5.83 7.75-8.14 8.54-7.5.63.52 2.35.73 3.81.46 1.8-.32 2.53-.09 2.25.71-.23.66-1.18 1.13-2.1 1.05-1.35-.11-1.45.14-.48 1.3.66.8 1.46 1.05 1.78.57.7-1.02 4.26-2.6 5.34-2.38.41.09.75-.46.75-1.22 0-1.94 2.97-4.26 3.83-2.99.37.56 1.8.7 3.17.33 2.2-.6 2.28-.78.7-1.45-1.04-.44-1.58-1.39-1.26-2.2.4-1.06.03-1.28-1.43-.81a5.32 5.32 0 0 1-3.74-.4c-1.52-.9-1.37-1.04 1.04-1.07 1.54-.02 2.58-.4 2.3-.85s-2.06-.7-3.96-.55c-2.8.22-3.4-.06-3.13-1.43l.4-2.15c.05-.25.62.09 1.28.75s2.11 1.2 3.22 1.2c1.96 0 1.96-.05-.16-1.53-1.3-.9-1.94-2.14-1.6-3.04.52-1.35.77-1.35 2.3.03 2.48 2.25 3.66 1.89 1.53-.47-2.04-2.25-2.2-1.97 6.95-11.74 4.23-4.52 5.56-5.18 5.56-2.75 0 2.09 2.26 1.87 5.27-.5 1.4-1.1 3.31-2 4.25-2 1.4 0 1.59-.61 1.06-3.4-.35-1.88-.29-3.6.14-3.84.43-.24.22-.3-.47-.13-1.55.38-1.65-1.26-.14-2.2.8-.5.8-.87-.03-1.38-.74-.46.29-2.32 2.97-5.37 4.4-5 4.53-6.12 1.63-14.52-1-2.9-.9-3.52.67-4.68 2.45-1.79 1.72-4.76-1.34-5.48-2.27-.53-2.89-2.04-7.2-17.54-2.59-9.33-5.2-18.64-5.8-20.7-1.17-4.05-3.7-6.47-135.45-129.5l-28.95-27.03-16.05-4.17c-8.83-2.29-17.75-4.6-19.81-5.15l-3.75-.99v-57.29l-4.45-10.06a7179 7179 0 0 1-12.92-29.57l-8.47-19.5-33.33-.07c-18.33-.03-38.84.1-45.58.28m-192 176.32c-1.24.5-2.25 1.3-2.25 1.77 0 1.6 1.3 2.2 2.55 1.16.68-.57 1.62-.96 2.1-.88.47.09 1.7.1 2.72.04 1.55-.1 1.66-.38.63-1.62-1.4-1.69-2.5-1.78-5.75-.47m-13.55 12.63c.54 1.4.14 1.56-2.55 1.02-4.2-.84-7.53 2.11-6.27 5.55 1.63 4.43 8.98 3.16 9.24-1.6.09-1.7.2-1.77.57-.38.25.96.87 1.75 1.38 1.75 1.25 0 1.18-3.66-.1-6.07-1.27-2.36-3.16-2.59-2.27-.27m-70.5 24.54c-1.9 1.9-1.4 4.43 1.19 6.14 2.2 1.43 2.52 1.42 4-.22 2.02-2.23 2.03-3.56.04-5.55-1.88-1.88-3.6-2-5.23-.37m200.05 107.2c-12.24 20-22.25 36.74-22.25 37.22 0 .48 13.16 17.3 29.25 37.35l29.25 36.48 15-.32c8.23-.17 15.29-.5 15.66-.73.56-.35.55-58.73-.02-129.65L993 784l-22.25.03-22.25.03zm-183-26.39c-2.48 1.02-3.1 5.55-1.22 9.06 2.14 3.98 10.97 1.21 10.97-3.44 0-4.68-5-7.57-9.75-5.62m585.14 49.16c-1.21 1.97 2.8 3.46 6 2.23 1.23-.47 1.3-.85.33-1.78-1.57-1.53-5.49-1.8-6.33-.45m-16.4 15.24c-1.67 1.67-1.21 4.89.6 4.2.86-.34 1.76-.61 2-.61s.41-.68.41-1.5.45-1.5 1-1.5 1-.42 1-.94c0-1.2-3.72-.94-5.01.35m-118.24 8.3c-.96.24-1.75.85-1.75 1.36 0 1.78-4.26 5.78-6.86 6.43-3.14.79-5.3 2.43-4.64 3.5.27.44-.18 1.05-1 1.36-.91.35-1.5 0-1.5-.9 0-.8-.37-1.46-.81-1.46-1.16 0-7.19 6.05-7.19 7.2 0 1.37-8.13-.1-10.08-1.8-.87-.77-2.22-1.39-3-1.37-1.07.03-.99.36.33 1.36.96.73 1.75 1.86 1.75 2.5 0 .65.62 1.41 1.39 1.7.76.3 1.18 1.35.92 2.34-.26.98.13 2 .86 2.26 1.65.58 6.07-1.62 5.64-2.81-.17-.49 1.15-1.31 2.94-1.84s3.25-1.31 3.25-1.75.56-.8 1.25-.8 2.43-.62 3.88-1.37c2.55-1.34 5.18-1.36 9.48-.09 1.61.48 2.25.12 2.68-1.53.42-1.6.2-2.02-.86-1.61-1.8.69-1.78-.34.03-2.74.78-1.02 1.89-1.55 2.47-1.2.65.4 1.07-.32 1.07-1.83 0-2.78 1.66-4.46 2.17-2.2.27 1.17.74 1.1 2.58-.4 3.84-3.14.8-5.77-5-4.31m17.72 7.88a7.1 7.1 0 0 1-5.37.26c-3.36-1.28-5.46.86-4.52 4.62l.7 2.77 1.31-3.12c1.57-3.72 2.88-4.14 2-.64-.46 1.84-.1 2.81 1.4 3.74 1.15.73 2 2.33 2 3.77-.02 1.94-.23 2.18-.95 1.03-.77-1.2-1.12-1.02-1.93 1-.9 2.28-.99 2.15-1.05-1.48-.06-3.81-.13-3.9-1.81-2.13-1.28 1.34-1.42 1.95-.5 2.3.69.25 1.25 1.32 1.25 2.37 0 1.06.68 1.92 1.52 1.92 1.15 0 1.36.67.86 2.75-.36 1.51-1.1 3.3-1.63 3.99-.68.86-.45 1.44.78 1.91 1.12.43 2.22.05 3.02-1.05 1.17-1.6 1.4-1.57 3.3.47 1.12 1.2 2.7 1.93 3.51 1.62 2.82-1.08 2.4 1.93-.44 3.18-2.08.93-3.03 2.2-3.5 4.73-.63 3.33-4.42 6.97-4.42 4.24 0-.97-.27-.97-1.2-.04-.9.9-.91 1.49-.06 2.34.84.84 1.55.72 2.77-.5.9-.9 2.32-1.64 3.17-1.64 1.12 0 1.37-.65.94-2.36-.95-3.81 1.87-5.47 8.75-5.14 4.9.23 6.24.7 8.12 2.89 3.16 3.68 5 3.36 5.08-.9.05-1.92-.3-3.49-.75-3.49-1.42 0-.9-4.7.68-6 .82-.68 1.5-.93 1.5-.55s1.24-.18 2.75-1.24 3.31-1.73 4-1.48c.69.24 1.25-.08 1.25-.7 0-.63-.42-.89-.93-.57-.51.31-1.65-.45-2.52-1.7-.87-1.24-1.92-2.15-2.32-2.01s-.73-.2-.73-.73c0-.54-1.02-1.7-2.26-2.56-2.05-1.44-2.4-1.44-3.82-.02-.86.86-1.15 1.56-.65 1.56s1.46 1.22 2.14 2.7c1.06 2.34.99 2.9-.53 4-2.64 1.94-5.16 1.57-5.94-.87-1-3.17-2.64-4.6-4.66-4.06-.98.25-1.78-.04-1.78-.65 0-1.02 1.35-1.54 3.25-1.24 1.11.18.9-1.66-.27-2.39-.56-.35-.77-1.02-.48-1.5.3-.48-.34-.8-1.43-.72-1.6.12-1.75.42-.77 1.63.94 1.17.93 1.32-.05.73-.69-.41-1.25-.27-1.25.31 0 1.6-2.1 1.27-4.23-.65-1.61-1.45-2.02-1.5-2.78-.28-.48.79-1.18 1.13-1.56.76-.92-.93 2.33-4.04 3.48-3.33 1.7 1.06 11.09-1.52 11.09-3.05 0-1.56-4.62-3.75-6.05-2.86-.48.3-1.7-.28-2.72-1.3-1.57-1.57-2.25-1.66-4.76-.64m158.28 1.13c-2.55.38-4 2.28-1.75 2.28.55 0 1 .92 1 2.03 0 2.06 4.2 4.53 4.83 2.85.19-.48.97-.88 1.75-.88s1.42-.27 1.42-.6c0-1.03-3.4-6.4-3.97-6.25-.29.08-1.77.34-3.28.57m-86.25 15.94c-1.96 1.56-1.96 1.58.36 1.03 1.3-.3 3.32-.2 4.5.24 1.52.56 2.7.26 4.06-1.07 1.9-1.82 1.84-1.86-2.5-1.83-2.5.02-5.29.73-6.42 1.63m-86.83 13c-1.05 1.05-.8 2.07.9 3.77 2.23 2.23 3.69 1.95 2.89-.55-.42-1.34-.17-2.45.68-2.99.96-.6.6-.86-1.22-.87-1.42-.01-2.89.28-3.25.65m-23.13 2.27c-.36.58-.18 1.06.4 1.06s1.06.48 1.06 1.07c0 1.5 2.05 3.39 5.75 5.3 3.56 1.84 6.25 2.11 6.25.63 0-.55-.82-1-1.83-1-2.15 0-4.7-4.2-3.86-6.37.4-1.04-.02-1.45-1.37-1.35-1.07.08-1.94.8-1.94 1.59 0 1.16-.37 1.1-1.9-.28-1.25-1.13-2.13-1.35-2.56-.65m51.96.91c-4 1.3-5.82 2.88-5.19 4.53.81 2.1 2.69 2.1 2.69 0 0-1.34.26-1.4 1.52-.36.84.7 1.68 1.09 1.86.87.44-.51 1.74-5.92 1.39-5.79-.15.06-1.17.4-2.27.75m27.14 20.22c-2.14 1.68-2.51 1.76-1.99.4.56-1.46.38-1.5-1.41-.39-1.13.7-1.9 2.05-1.73 2.98.2 1.08-.28 1.65-1.34 1.57-1.03-.08-1.8.75-2 2.18-.29 2.04-.7 2.23-3.5 1.63-1.74-.38-3.46-1.15-3.82-1.71-.91-1.44-3.85-.1-3.85 1.74 0 .86.87 1.53 1.97 1.53 1.32 0 1.78.48 1.4 1.47-.5 1.3-.75 1.29-2.08-.04-1.33-1.32-1.79-1.33-3.71-.07-1.6 1.05-2.7 1.16-4.04.4-1.65-.92-1.78-.72-1.25 1.92.56 2.83.45 2.94-2.51 2.5-2.55-.37-2.99-.16-2.47 1.18.37.96-.15 2.35-1.26 3.38a10.54 10.54 0 0 0-2.55 4.39c-.57 2.28-.25 2.76 2.42 3.7 1.7.58 3.08 1.34 3.08 1.68 0 1.13-2.28 4.98-3.4 5.74-.69.47-.26.98 1.15 1.37 2.35.64 3 2.8 1.2 3.91-1.65 1.02 1.1 3.69 3.23 3.13 1.1-.29 1.82.07 1.82.9 0 .75.9 1.85 2 2.44 1.17.63 2 2.1 2 3.54 0 2.66 1.65 3.4 2.18.99.23-1.06.74-1.2 1.82-.5 1.24.8 1.27 1.12.14 1.85-.87.56-.99 1.1-.32 1.51.57.35 1.3.23 1.61-.28.34-.55 1.53-.47 2.92.19 2.48 1.17 2.43.72 1.28 12.9-.21 2.29.07 3.63.74 3.5.6-.1 1.23.76 1.4 1.92.28 1.79-.06 2.05-2.2 1.64-1.92-.37-2.74.02-3.31 1.57-.73 1.97-1.03 2.17-3.26 2.17-1.55 0-1.2 1.47.95 3.94 1.07 1.23 2.4 1.97 2.94 1.63s3.05-.77 5.55-.96c4.22-.31 4.56-.17 4.56 2.03 0 1.3-.45 2.36-1 2.36s-1-.45-1-1-.45-1-1-1-1 .66-1 1.47c0 .96-.58 1.25-1.66.83-1.06-.4-1.42-.24-1 .45.37.6.18 1.24-.42 1.44-.67.23-.31 1.34.9 2.84l2 2.46-.53-2.74c-.39-2.05-.13-2.75 1.03-2.75.86 0 1.84.45 2.18 1 .94 1.52 3.5 1.2 3.5-.44 0-1.34.72-1.41 6.37-.67.48.06.26.87-.5 1.8-1.14 1.41-1.14 1.56 0 .87 1.76-1.06 3.5 1.55 1.83 2.74-.74.53-.15.69 1.53.42 2.1-.33 3.13.16 4.47 2.17.96 1.44 1.76 3.06 1.77 3.61s1.15 1 2.53 1c2.38 0 2.5-.28 2.5-5.75 0-3.16.34-5.75.75-5.75s.75-.4.75-.89-.79-.82-1.75-.75c-1.28.1-1.83-.73-2.06-3.11-.18-1.81.15-3.25.74-3.25 1.14 0 1-2.73-.27-4.75-.47-.76-.26-1.26.53-1.28.72-.02.02-1.17-1.55-2.55-2.66-2.34-2.75-2.64-1.25-4.3 1.83-2.02 2.15-3.57.53-2.57-.7.43-.96-.18-.73-1.69.2-1.3.94-2.23 1.68-2.08.72.16 1.1-.3.85-1-.26-.7-.98-1.17-1.6-1.03-.61.14-1.12-.19-1.12-.72s-.68-.7-1.5-.4c-1.66.65-2.08-1.15-.5-2.13.66-.41.67-1.25.02-2.46-.71-1.33-.58-2.16.5-3.06.81-.67 1.48-1.88 1.48-2.7s.95-2.23 2.1-3.16c2-1.62 2.02-1.78.34-3.16-1.36-1.12-1.86-1.17-2.19-.21-.5 1.52-3.25 1.68-3.25.2 0-.6.45-.79 1-.45s1 .17 1-.37c0-.55.9-1.28 2-1.63 2.14-.68 2.72-3.94.9-5.07-.75-.46-.9.02-.44 1.45.54 1.7.26 2.12-1.46 2.12-1.73 0-2-.4-1.45-2.15.54-1.71.35-2.03-.94-1.53-2.02.77-2.02.8.41-4.88 1.12-2.6 1.73-5 1.37-5.33s-.87-.04-1.12.66c-.6 1.69-3.4 4.44-3.95 3.89-1.4-1.41-1.01-8.79.58-10.86 2.6-3.4 3.29-5.8 1.65-5.8-.77 0-1.68 1.31-2.03 2.92-.35 1.6-1.32 3.17-2.15 3.49-1.08.42-1.35.09-.94-1.18.38-1.2-.17-2.08-1.69-2.75-1.83-.8-2.29-1.9-2.5-5.98-.2-3.89-.02-4.6.8-3.24.6.97.73 2.32.32 3-.5.84-.2.8.94-.12.92-.75 1.36-1.88.97-2.5s-.57-2.22-.4-3.53c.25-1.95-.02-2.26-1.5-1.7-1.43.55-1.3.15.58-1.85 2.9-3.09 2.28-3.32-1.31-.5m-33.57 3.04c-1.33.53-3.31.84-4.4.68-1.1-.15-2.2.35-2.46 1.13-.34.99.03 1.21 1.23.75 1.85-.7 4.92 1.62 3.76 2.86-.38.41.26.25 1.43-.35s2.34-2.25 2.6-3.64.44-2.5.38-2.47c-.06.04-1.2.5-2.54 1.04m47.93 17.87c0 .53-.63.73-1.4.43-1.84-.7-3.13 1.47-1.72 2.88.82.82 1.51.6 2.6-.83 1.2-1.6 1.65-1.7 2.39-.57 1 1.51 3.14.7 3.12-1.19-.02-.81-.29-.77-.87.14-.68 1.08-.96 1.03-1.45-.25-.66-1.72-2.67-2.18-2.67-.61m-13.89 9.32c-1.44 2.7-.32 6.5 2.89 9.7 1.14 1.15 1.84 2.47 1.55 2.93s.19 1.45 1.06 2.17c1.42 1.18 1.42.9-.06-2.62-.9-2.17-1.4-4.96-1.08-6.2.34-1.37.11-2.27-.57-2.27-.8 0-.83-.37-.1-1.25.72-.88.65-1.78-.24-3-1.65-2.26-1.98-2.21-3.45.54m22.62-.66c-.35.57-2.01.84-3.69.59-2.11-.31-3.04-.03-3.05.92-.02 1.06-.24 1.03-.99-.14-.53-.82-1.01-1.27-1.07-1-.76 3.86-.43 4.75 1.73 4.75 1.27 0 2.06-.39 1.77-.86-.3-.48.17-.6 1.03-.27.86.33 2.18.1 2.93-.52s2.04-.87 2.88-.55 1.83.1 2.19-.48c.36-.59 0-1.07-.82-1.07s-1.65-.54-1.87-1.2c-.26-.78-.63-.84-1.04-.17m-92.98 25.13c-.96.21-1.75.77-1.75 1.23s-.25 1.5-.56 2.3c-.67 1.74 2.07 3 4.7 2.17 1.11-.36 1.86-1.53 1.86-2.92q0-3.73-4.25-2.78m-363.5 1.98c-1.64.56-1.6 3.72.07 5.1.97.82 1.89.7 3.5-.42 1.2-.85 2.18-1.89 2.18-2.32 0-1.12-4.27-2.88-5.75-2.36m406.06 10.78c.98 6.04 2.28 6.27 2.85.51.27-2.76-.05-3.55-1.56-3.85-1.67-.34-1.82.06-1.29 3.34m-9.19 32.48c-3.76.9-5.22 2.52-4.38 4.9 1.1 3.12 3.47 4.96 6.1 4.74 2.23-.19 2.61-.65 2.38-2.86-.15-1.44.15-2.89.66-3.2 1-.62.32-4.65-.75-4.48-.35.06-2.15.46-4 .9m14.54 14.67c-1.28 1.27-.66 4.03 1.31 5.81 1.62 1.47 2.26 1.57 3.5.54a3.9 3.9 0 0 0 .32-5.82c-1.3-1.3-4.07-1.6-5.13-.53m-355.02 6.08c-2.33 2.29-2.74 2.43-2.47.85.17-1.04-.18-2.07-.78-2.28-.64-.22-1.06.74-1 2.3.07 1.98.7 2.77 2.35 3.03 1.24.18 2.25-.18 2.25-.83 0-.64 1.12-.11 2.5 1.18 3.17 2.98 4.35 1.93 1.92-1.72-1.02-1.53-1.74-3.34-1.6-4.03.38-1.78-.02-1.6-3.17 1.5m394.67 8.5c-2.61 5.77-3.31 9.14-2.06 9.93.96.61.96.8.02.8-.67.01-.96.7-.64 1.52.31.83.11 1.5-.45 1.5s-1.25-.56-1.53-1.25c-.33-.82-.53-.7-.58.33-.04.87 1.03 2.18 2.39 2.9 2.52 1.35 2.46 3.6-.07 2.62-1.97-.76-1.74.06.7 2.5 2.4 2.4 7.9 4.32 7.9 2.76 0-.55.79-.75 1.75-.45 2.21.69 4.73-.83 3.82-2.3-.38-.61-1.45-1.14-2.38-1.18-1.38-.06-1.32-.23.31-.93 1.68-.72 1.72-.87.28-.93-.95-.04-2.41-1.4-3.25-3-1.44-2.8-1.4-2.97.73-3.65a17.94 17.94 0 0 0 4.39-2.31c2.04-1.53 2.07-1.75.53-4.36-1.79-3.05-5.18-3.73-5.18-1.05 0 1.32-.27 1.43-1.2.5a5.1 5.1 0 0 0-3.16-1.2c-1.83 0-1.85-.12-.3-1.83 2-2.21 2.1-3.17.33-3.17-.73 0-1.8 1.01-2.35 2.25m-389.92 6.5c-.3.96-1 2.6-1.56 3.62-1.42 2.63.32 4.15 3.08 2.67 1.17-.63 1.86-1.59 1.52-2.13-.34-.55-.09-1.63.56-2.41s.88-1.88.53-2.46c-1.02-1.64-3.54-1.21-4.13.71m-11.4 2.07c0 1.28-4.8 3.17-8.76 3.45-3.4.24-4.09 1.09-1.99 2.43a9.48 9.48 0 0 1 2.4 2.87c.96 1.73.82 2.28-.85 3.32-1.1.69-1.74 1.5-1.42 1.82.86.86 3.71-1.82 4.7-4.42.48-1.26 1.34-2.29 1.9-2.29.66 0 .6.69-.15 1.9-.95 1.52-.87 2.2.42 3.5 2.18 2.18 3.04 2.02 1.79-.33-1.44-2.7-1.41-2.75 2.03-3.43 2.5-.5 3-1.05 2.73-2.88-.2-1.24-.9-2.15-1.57-2.01-1.59.32-1.61-2.46-.03-2.98.93-.31.93-.57 0-1.15-.66-.4-1.2-.32-1.2.2m387.79 14.67c-1.6 1.48-2.48 3.14-2.15 4.02.32.82.11 1.49-.45 1.49s-1.18-.47-1.37-1.05-1.62.27-3.16 1.89l-2.82 2.93 2.83-.22c4.24-.34 6.33-1.55 6.33-3.66 0-1.04.45-1.89 1-1.89s1 .47 1 1.05c0 .57 1.1.23 2.44-.75 2.6-1.92 2.88-5.6.46-6.07-.77-.15-2.62.87-4.12 2.26m-330.9 88.2c-.94 1.15-.98 1.45-.13.94 1.95-1.17 3.57.28 2.18 1.96-.9 1.09-.89 1.41.09 1.41 1.71 0 3.87-3.12 3.26-4.7-.7-1.84-3.78-1.61-5.4.4m198.79 11.73c-.3.78.1 1.96.88 2.61 1.69 1.4.98 3.1-.98 2.35-.75-.29-1.67-.04-2.04.56s-1.09.82-1.6.5c-1.36-.83-1.14 1.94.27 3.35.93.93.92 1.2-.07 1.2-1.5 0-4.13-2.44-4.13-3.84 0-.54-.79-.83-1.75-.65s-2.34.37-3.06.41c-.72.05-1.04.51-.72 1.04s1.17.73 1.88.46 2.83.85 4.72 2.5c1.89 1.65 3.58 2.57 3.76 2.04.19-.54.86-.65 1.5-.26.65.4.39-.47-.57-1.94-1.14-1.74-1.38-2.88-.68-3.3 1.48-.92 7.92.42 7.92 1.64 0 .56-.48.72-1.07.36-.58-.36-1.3.2-1.57 1.27-.28 1.06-1.86 2.73-3.53 3.7-2.37 1.4-2.92 2.33-2.55 4.24.31 1.64.07 2.3-.74 1.98-.66-.25-1.2.17-1.2.94 0 .78.37 1.41.83 1.41s.83.7.83 1.57c0 1.17-.57 1.38-2.24.85-2-.63-2.1-.53-.88.94.75.9.94 1.64.43 1.64-1.56 0-4.22-6.63-3.6-8.98.42-1.63.78-1.85 1.39-.86 1 1.61 2.58.24 3.07-2.66.3-1.78-.24-2-4.92-2.04l-5.25-.05v18.33c0 17.9.05 18.3 1.96 17.28 1.08-.58 2.32-.99 2.75-.92 3.12.53 4.49-.23 3.98-2.2-.51-1.93-.42-1.97 1.2-.5.98.88 2.3 1.6 2.94 1.6s1.19 1.01 1.21 2.25c.04 2.16.1 2.15 1.47-.38 1.96-3.6 4.46-4.47 4.6-1.59.09 1.57.25 1.73.56.55.25-.92 1.74-2.12 3.31-2.67 2.32-.81 2.98-.7 3.48.59.45 1.17.9 1.3 1.73.46.83-.83.8-1.52-.15-2.67-1.09-1.3-.96-1.54.84-1.54 1.17 0 2.13.34 2.14.75s.92 1.88 2.02 3.25c1.2 1.5 1.74 1.8 1.37.75-.43-1.22-.11-1.75 1.05-1.75 1.25 0 1.5-.54 1-2.12-.42-1.32-.16-2.5.68-3.1 1.04-.74.94-.83-.39-.4-2.18.7-2.35-1.64-.25-3.38.83-.68 1.5-1.9 1.5-2.7 0-.85.72-1.3 1.75-1.09 1.24.26 1.67 1.15 1.47 3.04-.28 2.62-.17 2.67 5 2.48 2.9-.1 5.61-.65 6.02-1.21 1.16-1.62.9 1.34-.32 3.63-1.52 2.84-.65 3.21 2.24.94 1.6-1.26 2.95-1.64 3.86-1.08.76.47 1.76.62 2.23.34s1.49.02 2.28.68 2.18.91 3.07.57c1.32-.5 1.5-.15 1 1.89-.37 1.45-.2 2.51.38 2.51.56 0 .97-.34.9-.75-.39-2.48.33-4.25 1.73-4.25 1 0 1.4.55 1.04 1.47-.62 1.63.9 3.08 1.76 1.68.3-.48 1.7-.66 3.12-.39 2.55.49 2.58.42 2.28-4.88-.26-4.44-.63-5.38-2.15-5.39a4.35 4.35 0 0 1-3.04-1.65c-.66-.9-7.93-5.56-16.16-10.34s-19.01-11.07-23.96-13.97c-15.42-9.03-16.87-9.61-17.83-7.1m-161.18 1.59c-.35.56-1.05.75-1.56.44-1.18-.73-1.18.6 0 2.46.77 1.21 1.28 1.17 3.49-.27 1.42-.93 2.58-2.14 2.58-2.67 0-1.3-3.7-1.26-4.51.04m-17.99 7.27c-1.1 1.11-1.55 1.77-1 1.47.55-.3 1.6.1 2.35.91 1.15 1.25 1.05 1.54-.68 2-3.48.9-3.19 2.82.47 3.01 3.1.16 3.36-.05 3.18-2.53-.12-1.49.17-3.33.64-4.08.56-.9.47-1.15-.24-.7-.6.37-1.46.05-1.9-.7-.67-1.13-1.2-1-2.82.62m-10.38 5.39c-.58 1-1.07 1.26-1.09.57-.02-.69-.46-1.25-.98-1.25-.58 0-.55 1.14.08 2.94.67 1.91 1.52 2.75 2.44 2.4.78-.3 1.2-.92.91-1.37s.15-.96.94-1.14c1.22-.28 1.24-.61.1-2.15-1.3-1.76-1.38-1.76-2.4 0m-7.81.83c-1.18 1.26-.7 5.49.62 5.49.38 0 1.52-.6 2.53-1.35 1.3-.94 1.5-1.56.68-2.07-.65-.4-.94-1.09-.66-1.54.87-1.4-1.92-1.87-3.17-.53m11.76 5.9c-.8.97-.84 1.62-.12 2.06.72.44.73 1.25.05 2.53-.55 1.03-1 3.15-1 4.72 0 2.16.5 2.9 2.05 3 2.54.2 3.61-2.22 1.9-4.27-.96-1.16-.98-1.82-.1-2.7 1.83-1.83 1.46-4.8-.52-4.04-1.27.48-1.52.23-1.03-1.04.78-2.04.33-2.14-1.23-.26M1133 1213.4c0 2.94 1.96 4.89 3.57 3.55 1.69-1.4.66-4.65-1.66-5.25-1.45-.38-1.91.03-1.91 1.7m-198.67 6.2c-.37.97.4 2.6 2.03 4.22l2.64 2.65v-2.65c0-3.69-.96-5.81-2.64-5.81-.78 0-1.7.71-2.03 1.59m217.87 2.28c-1.75 3.69-1.5 4.42 1.32 3.88 3.47-.66 4.2 1.03.97 2.25-2.01.77-2.48 1.47-1.99 3 .5 1.55.18 2-1.37 2-2.66 0-3.34 1.3-2.2 4.16.52 1.29.97 1.78 1 1.09.04-.69.71-1.25 1.5-1.25 1.72 0 5.57-5.14 5.57-7.44 0-.9.65-1.87 1.44-2.17.92-.36 1.41-1.95 1.38-4.47-.06-4.2-1.09-5-2.74-2.17-.86 1.48-1.02 1.5-1.05.17-.05-2.47-2.5-1.86-3.83.95m-233.17 4.06c-1.33 2.5-1.31 2.65.45 4.41 1.47 1.47 5.52 1.18 5.52-.4 0-.44-.44-1.96-.97-3.37-1.16-3.04-3.54-3.34-5-.64m265.97 2.6c0 .8-.52 1.47-1.16 1.47-.66 0-.4.84.63 1.96 1 1.1 1.5 2.67 1.15 3.59-.4 1.04-.17 1.47.63 1.2 1.94-.63 2.2-8.36.3-9.1-.97-.36-1.55-.03-1.55.88m-40 1.47c-.82.53-1.1.98-.63.99.48 0 .36.63-.26 1.38-1.35 1.62-.45 4.63 1.37 4.63 1.07 0 2.52-4.1 2.52-7.12 0-1.14-1.12-1.1-3 .12m-5.71 2c-.29 1.1-.8 2.03-1.16 2.08-5.06.6-6.04 1.53-3.56 3.36 1.74 1.28 2.15 1.16 4.11-1.26 2.52-3.1 3.58-6.18 2.13-6.18-.55 0-1.23.9-1.52 2m26.83 7.03c-.14 1.84-5.57 7.97-7.06 7.97-1.9 0-1.11-1.75 1.05-2.32 2.47-.64 2-3.33-.52-2.87-2.68.48-6.5 4.27-5.9 5.84.3.78-.25 2.3-1.22 3.39-1.73 1.9-1.7 1.96 1.43 1.96 1.9 0 2.96-.41 2.6-1-.34-.55-.1-1 .55-1s.9.7.56 1.58c-.34.87-.61 1.8-.61 2.06s-.45.2-1-.14-1.56-.27-2.25.17c-1.75 1.1-4.11 1.01-4.98-.17-.4-.55-.75.07-.75 1.38-.02 2.2-.31 2.33-3.9 1.76-4.78-.77-6.72.98-3.98 3.59 1.72 1.64 1.87 1.62 2.98-.45l1.16-2.17 2.1 2.56c1.8 2.16 2.78 2.5 6.37 2.18 2.34-.2 4.25-.2 4.25.03 0 .21-1.18 1.16-2.62 2.1-1.45.95-2.32 1.23-1.94.62.42-.68-.21-1.1-1.68-1.1-1.3 0-2.9-.54-3.56-1.2-.93-.93-1.2-.92-1.2.06 0 .7-.44.99-.98.65-.54-.33-1.96-.08-3.16.57-1.83.98-1.94 1.3-.66 2.01.83.47 2.54.65 3.8.41 1.25-.24 1.99-.15 1.64.2s.29 1.26 1.4 2.05c1.47 1.02 2.4 1.12 3.33.36.88-.74 1.6-.74 2.32-.02s1.53.55 2.62-.54c.87-.87 1.94-1.52 2.39-1.43 1.68.31 7.21-1.4 7.01-2.17-.31-1.22 6.44-5.97 7.53-5.3.52.32 2.66.56 4.75.53 2.88-.04 3.93.4 4.29 1.77.82 3.13-.6 4.32-3.55 2.97-3.4-1.54-6.98-.56-8.23 2.26-.6 1.36-2.4 2.65-4.5 3.21-4.46 1.2-4.5 1.25-2.87 2.88.85.85 2.88 1.22 5.37.99 9.9-.93 11-.83 10.87.96-.11 1.4.23 1.53 1.75.72a4.15 4.15 0 0 0 1.88-3.37c0-2.12 2.3-4.14 4.25-3.73.93.2.87-16.77-.07-18.84-.37-.82-1.88-1.62-3.36-1.78-2.12-.22-2.74.2-3 2-.2 1.45-.91 2.18-1.95 2.01-.97-.15-1.86.63-2.2 1.96-.33 1.22-.91 1.9-1.3 1.5-.4-.39-1.77.27-3.05 1.48s-2.32 1.65-2.32 1 .45-1.17 1-1.17 1-.67 1-1.5.68-1.5 1.5-1.5 1.5-.5 1.5-1.11c0-.67-1.06-.43-2.63.6-2.16 1.42-2.77 1.48-3.5.37-.72-1.13-1.04-1.1-1.9.14-.86 1.26-1.4 1.03-3.49-1.5-3.21-3.9-3.12-5.24.61-9.1 1.95-2 2.92-3.87 2.62-5.04-.33-1.27-.51-1.37-.6-.33m-47.24 1.64c-1.28.34-1.6 1.6-1.5 5.78.08 3.3.51 5.1 1.13 4.72a5.04 5.04 0 0 1 2-.7c.55-.03.9-.56.78-1.17-.12-.61-.34-2.95-.5-5.2l-.28-3.98c0 .07-.73.3-1.63.55M784.05 1369.8c-.8.27-2.35 1.33-3.44 2.34s-2.34 1.85-2.76 1.85c-1.77 0-2.77 3.72-1.48 5.48 1.93 2.65 5.32 1.06 7.7-3.63 2.25-4.39 2.23-6.82-.02-6.04m15.45 20.2a6.1 6.1 0 0 1-2.57 3.03c-2.18 1.16-2.53 3.96-.73 5.76 2.9 2.9 10.8.06 10.8-3.9 0-5.2-6.13-9.21-7.5-4.9"/></svg>