<svg xmlns="http://www.w3.org/2000/svg" width="2080" height="2080" viewBox="0 0 2080 2080" version="1.1"><path d="M 1002.250 499.714 L 990 500.062 989.985 556.781 C 989.976 587.976, 989.639 614.001, 989.235 614.613 C 988.780 615.302, 973.830 616.915, 950 618.846 L 911.500 621.966 906 627.757 C 902.975 630.942, 891.950 642.969, 881.500 654.485 C 871.050 666, 854.400 684.172, 844.500 694.867 C 834.600 705.562, 813.584 728.305, 797.799 745.406 L 769.097 776.500 769.058 839.500 L 769.018 902.500 799.670 934 C 874.293 1010.686, 896.904 1033.871, 934.211 1071.958 L 973.922 1112.500 973.961 1150.317 C 974 1187.688, 973.976 1188.127, 972 1187.500 C 970.765 1187.108, 970 1187.320, 970 1188.055 C 970 1188.941, 969.609 1188.921, 968.472 1187.977 C 967.223 1186.940, 966.630 1187.001, 965.222 1188.308 C 960.167 1193.002, 958.922 1194, 958.122 1194 C 956.478 1194, 954.870 1196.855, 954.783 1199.931 C 954.735 1201.619, 954.273 1203, 953.756 1203 C 953.238 1203, 951.679 1203.894, 950.290 1204.986 C 948.901 1206.079, 947.458 1206.783, 947.083 1206.551 C 946.707 1206.319, 945.841 1207.024, 945.158 1208.118 C 944.158 1209.719, 944.168 1210.073, 945.208 1209.935 C 948.901 1209.443, 952.132 1210.096, 951.716 1211.250 C 951.226 1212.607, 953.975 1218, 955.157 1218 C 956.965 1218, 956.816 1216.076, 954.962 1215.488 C 953.347 1214.976, 953.143 1214.533, 954.028 1213.466 C 954.652 1212.715, 955.046 1210.615, 954.905 1208.800 C 954.473 1203.266, 955.735 1200.883, 958.825 1201.394 C 960.296 1201.637, 961.890 1201.873, 962.367 1201.918 C 962.843 1201.963, 962.998 1202.900, 962.710 1204 C 962.327 1205.467, 962.680 1206, 964.035 1206 C 966.221 1206, 967.471 1204.409, 966 1203.500 C 965.432 1203.149, 965.268 1202.375, 965.636 1201.779 C 966.067 1201.082, 966.827 1201.373, 967.771 1202.599 C 969.138 1204.370, 969.198 1204.296, 968.658 1201.500 C 968.340 1199.850, 968.324 1199.063, 968.623 1199.750 C 969.373 1201.474, 971.663 1201.320, 972.362 1199.500 C 972.712 1198.586, 972.363 1198, 971.469 1198 C 970.661 1198, 970 1197.534, 970 1196.965 C 970 1196.263, 970.644 1196.274, 972 1197 C 974.654 1198.420, 974.537 1201.375, 971.750 1203.351 C 969.512 1204.937, 969.511 1204.954, 971.500 1206.515 C 973.440 1208.038, 973.509 1209.453, 973.788 1253.948 L 974.076 1299.811 970.288 1300.365 C 968.205 1300.669, 958.400 1301.197, 948.500 1301.539 L 930.500 1302.160 924.213 1295.766 C 920.756 1292.249, 917.555 1288.051, 917.100 1286.436 C 916.644 1284.818, 915.692 1283.636, 914.978 1283.803 C 913.122 1284.237, 905.052 1276.029, 905.693 1274.358 C 906.391 1272.540, 904.225 1270, 901.976 1270 C 900.930 1270, 885.427 1254.334, 864.369 1232 L 828.540 1194 801.284 1194 L 774.028 1194 771.649 1197.750 C 770.341 1199.813, 765.591 1207.852, 761.094 1215.616 L 752.918 1229.733 752.845 1267.616 L 752.771 1305.500 788.122 1334.773 C 807.565 1350.872, 823.810 1364.956, 824.222 1366.070 C 824.633 1367.183, 825.586 1367.961, 826.339 1367.797 C 827.774 1367.485, 871 1402.443, 871 1403.917 C 871 1404.384, 871.788 1404.993, 872.750 1405.269 C 873.712 1405.545, 881.700 1411.730, 890.500 1419.014 C 899.300 1426.297, 925.063 1447.518, 947.750 1466.173 L 989 1500.089 989.028 1521.295 L 989.056 1542.500 1000.602 1556.500 C 1006.953 1564.200, 1014.204 1572.906, 1016.716 1575.848 L 1021.284 1581.195 1061.135 1580.804 C 1084.716 1580.573, 1101.332 1580.023, 1101.834 1579.457 C 1102.300 1578.931, 1104.342 1558.250, 1106.373 1533.500 C 1108.403 1508.750, 1110.315 1486.813, 1110.620 1484.750 L 1111.176 1481 1134.900 1481 L 1158.623 1481 1192.062 1449.316 C 1221.079 1421.821, 1295.296 1351.623, 1301.737 1345.580 L 1303.974 1343.481 1302.984 1321.490 C 1302.440 1309.396, 1301.315 1283.075, 1300.485 1263 C 1297.047 1179.861, 1295.967 1155.031, 1295.407 1146.272 L 1294.817 1137.043 1282.158 1126.829 C 1247.862 1099.155, 1244.475 1095.890, 1250.250 1096.070 C 1251.487 1096.109, 1253.400 1096.499, 1254.500 1096.938 C 1255.858 1097.479, 1257.339 1097.145, 1259.113 1095.897 C 1260.550 1094.886, 1262.050 1094.383, 1262.446 1094.780 C 1262.842 1095.176, 1263.017 1094.881, 1262.833 1094.125 C 1262.650 1093.369, 1263.125 1092.523, 1263.889 1092.245 C 1264.744 1091.935, 1265.008 1092.178, 1264.576 1092.877 C 1264.178 1093.521, 1264.659 1094.294, 1265.687 1094.659 C 1266.684 1095.014, 1268.287 1095.980, 1269.250 1096.807 C 1271.035 1098.340, 1271.493 1097.449, 1270.393 1094.582 C 1270.059 1093.712, 1268.934 1093, 1267.893 1093 C 1266.852 1093, 1266 1092.550, 1266 1092 C 1266 1091.450, 1266.990 1091, 1268.200 1091 C 1269.901 1091, 1270.130 1090.730, 1269.210 1089.810 C 1268.290 1088.890, 1267.208 1089.007, 1264.441 1090.327 C 1262.472 1091.266, 1261.125 1091.607, 1261.447 1091.086 C 1261.769 1090.565, 1261.575 1089.856, 1261.016 1089.510 C 1260.457 1089.165, 1260 1089.584, 1260 1090.441 C 1260 1092.237, 1258.664 1092.426, 1256.007 1091.004 C 1253.760 1089.801, 1251 1090.685, 1251 1092.607 C 1251 1093.509, 1249.854 1094.005, 1247.750 1094.015 C 1245.284 1094.027, 1244.862 1094.264, 1246 1095 C 1247.323 1095.855, 1247.317 1095.971, 1245.955 1095.985 C 1244.334 1096.001, 1241.755 1093.954, 1158.750 1026.778 L 1107 984.897 1107.057 970.698 C 1107.184 939.187, 1110.666 782, 1111.250 781.416 C 1111.595 781.072, 1122.817 790.148, 1136.189 801.586 C 1149.560 813.025, 1170.963 831.342, 1183.750 842.290 C 1196.807 853.470, 1206.993 862.922, 1206.985 863.849 C 1206.975 864.898, 1206.701 865.094, 1206.235 864.387 C 1205.831 863.775, 1204.375 863.400, 1203 863.554 C 1201.625 863.708, 1200.145 863.871, 1199.711 863.917 C 1199.277 863.962, 1199.840 864.985, 1200.961 866.189 C 1203.394 868.800, 1203.574 871.900, 1201.448 874.559 C 1199.954 876.429, 1199.917 876.408, 1200.453 874 L 1201.011 871.500 1199.912 874 C 1196.830 881.015, 1194.409 885, 1193.227 885 C 1192.504 885, 1191.985 885.563, 1192.075 886.250 C 1192.164 886.938, 1192.169 888.400, 1192.087 889.500 C 1191.938 891.474, 1191.917 891.475, 1190.468 889.559 C 1189.661 888.491, 1189 886.729, 1189 885.642 C 1189 884.556, 1188.698 883.969, 1188.328 884.339 C 1187.503 885.164, 1186.720 893.518, 1186.743 901.250 C 1186.752 904.490, 1186.316 907, 1185.744 907 C 1185.185 907, 1185.952 908.225, 1187.449 909.722 C 1188.946 911.218, 1189.682 912.606, 1189.085 912.805 C 1187.149 913.450, 1187.935 916.844, 1190.186 917.559 C 1191.388 917.940, 1194.425 918.353, 1196.936 918.475 C 1199.446 918.598, 1204.783 919.058, 1208.795 919.497 C 1214.726 920.146, 1216.024 920.595, 1215.735 921.898 C 1215.541 922.779, 1214.896 923.404, 1214.303 923.288 C 1213.710 923.171, 1211.824 923.477, 1210.113 923.968 C 1207.664 924.670, 1207 924.555, 1207 923.430 C 1207 922.644, 1206.494 922, 1205.875 922 C 1205.166 922, 1204.965 923.076, 1205.332 924.910 C 1205.747 926.984, 1205.478 927.986, 1204.394 928.402 C 1203.557 928.723, 1203.108 929.365, 1203.394 929.829 C 1203.975 930.769, 1207.616 930.717, 1208.577 929.756 C 1208.917 929.416, 1209.827 929.380, 1210.598 929.676 C 1211.459 930.006, 1212 929.563, 1212 928.528 C 1212 927.187, 1212.595 926.972, 1214.898 927.478 C 1217.290 928.003, 1217.771 927.798, 1217.648 926.307 C 1217.554 925.151, 1218.131 924.550, 1219.250 924.639 C 1220.213 924.715, 1221 924.378, 1221 923.889 C 1221 923.400, 1222.350 923, 1224 923 C 1227.422 923, 1227.759 923.703, 1225.250 925.608 C 1223.657 926.817, 1223.743 926.939, 1226.208 926.968 L 1228.917 927 1228.558 920 C 1228.360 916.150, 1228.356 913, 1228.548 913 C 1228.740 913, 1230.111 914.125, 1231.595 915.500 C 1233.078 916.875, 1233.971 918, 1233.578 918 C 1233.185 918, 1233.797 919.310, 1234.937 920.911 C 1236.422 922.997, 1237.712 923.746, 1239.484 923.551 C 1243.645 923.094, 1247.161 919, 1243.393 919 C 1242.415 919, 1242 918.444, 1242.331 917.579 C 1242.631 916.798, 1241.862 915.064, 1240.622 913.726 C 1238.900 911.868, 1238.468 910.432, 1238.793 907.647 C 1239.057 905.387, 1238.797 904, 1238.109 904 C 1236.095 904, 1236.965 902.532, 1240.257 900.376 C 1245.531 896.921, 1248.788 897.727, 1256.905 904.500 C 1260.859 907.800, 1264.458 910.628, 1264.902 910.785 C 1265.345 910.941, 1269.036 907.273, 1273.104 902.632 C 1278.214 896.803, 1280.855 894.486, 1281.648 895.135 C 1282.280 895.653, 1283.997 895.858, 1285.463 895.592 C 1287.258 895.267, 1287.992 895.500, 1287.708 896.304 C 1287.475 896.962, 1286.530 897.435, 1285.607 897.355 C 1284.256 897.239, 1284.163 897.491, 1285.127 898.653 C 1285.785 899.446, 1286.588 899.703, 1286.912 899.224 C 1287.602 898.203, 1291.167 896.612, 1292.250 896.841 C 1292.662 896.929, 1293 896.380, 1293 895.622 C 1293 893.685, 1295.974 891.362, 1296.826 892.634 C 1297.197 893.187, 1298.625 893.333, 1300 892.957 C 1302.200 892.357, 1302.283 892.183, 1300.693 891.509 C 1299.663 891.072, 1299.122 890.123, 1299.436 889.306 C 1299.842 888.249, 1299.465 888.035, 1298.014 888.496 C 1296.928 888.840, 1295.244 888.658, 1294.270 888.091 C 1292.750 887.207, 1292.897 887.057, 1295.309 887.030 C 1296.854 887.014, 1297.889 886.630, 1297.610 886.178 C 1297.331 885.726, 1295.547 885.479, 1293.647 885.628 C 1290.854 885.848, 1290.254 885.575, 1290.519 884.200 C 1290.700 883.265, 1290.881 882.297, 1290.923 882.050 C 1290.966 881.802, 1291.540 882.140, 1292.200 882.800 C 1292.860 883.460, 1294.310 884, 1295.423 884 C 1297.384 884, 1297.379 883.954, 1295.264 882.473 C 1293.966 881.563, 1293.319 880.332, 1293.665 879.429 C 1294.183 878.080, 1294.434 878.083, 1295.952 879.457 C 1298.438 881.706, 1299.623 881.346, 1297.491 878.990 C 1295.452 876.737, 1295.287 877.016, 1304.435 867.250 C 1308.665 862.735, 1310 862.075, 1310 864.500 C 1310 866.586, 1312.258 866.372, 1315.273 864 C 1316.671 862.900, 1318.582 862, 1319.519 862 C 1320.916 862, 1321.107 861.386, 1320.583 858.593 C 1320.232 856.719, 1320.294 854.992, 1320.722 854.757 C 1321.150 854.521, 1320.938 854.465, 1320.250 854.633 C 1318.704 855.009, 1318.597 853.367, 1320.107 852.434 C 1320.911 851.937, 1320.903 851.558, 1320.078 851.048 C 1319.336 850.590, 1320.366 848.730, 1323.052 845.678 C 1327.455 840.676, 1327.580 839.560, 1324.684 831.158 C 1323.686 828.263, 1323.776 827.637, 1325.354 826.483 C 1327.800 824.694, 1327.071 821.725, 1324.008 821.002 C 1321.740 820.466, 1321.121 818.957, 1316.815 803.458 C 1314.224 794.131, 1311.615 784.820, 1311.017 782.766 C 1309.835 778.707, 1307.310 776.293, 1175.556 653.258 L 1146.612 626.229 1130.556 622.062 C 1121.725 619.770, 1112.813 617.451, 1110.750 616.909 L 1107 615.923 1107 587.279 L 1107 558.635 1102.553 548.567 C 1100.108 543.030, 1094.294 529.725, 1089.634 519 L 1081.161 499.500 1047.831 499.433 C 1029.499 499.397, 1008.987 499.523, 1002.250 499.714 M 810.250 676.031 C 809.013 676.529, 808 677.325, 808 677.801 C 808 679.401, 809.306 679.991, 810.553 678.956 C 811.233 678.392, 812.174 677.999, 812.645 678.083 C 813.115 678.168, 814.343 678.184, 815.372 678.118 C 816.921 678.021, 817.029 677.740, 816 676.500 C 814.600 674.813, 813.502 674.724, 810.250 676.031 M 796.699 688.659 C 797.237 690.061, 796.843 690.219, 794.147 689.679 C 789.953 688.841, 786.620 691.791, 787.881 695.226 C 789.508 699.659, 796.857 698.387, 797.116 693.628 C 797.208 691.938, 797.326 691.860, 797.689 693.250 C 797.941 694.212, 798.564 695, 799.073 695 C 800.316 695, 800.251 691.337, 798.965 688.934 C 797.702 686.575, 795.811 686.345, 796.699 688.659 M 726.200 713.200 C 724.302 715.098, 724.794 717.635, 727.390 719.336 C 729.585 720.774, 729.910 720.757, 731.390 719.122 C 733.411 716.888, 733.421 715.564, 731.429 713.571 C 729.550 711.692, 727.830 711.570, 726.200 713.200 M 926.250 820.404 C 914.013 840.392, 904 857.141, 904.001 857.623 C 904.001 858.105, 917.164 874.913, 933.251 894.974 L 962.500 931.448 977.491 931.134 C 985.735 930.962, 992.786 930.632, 993.158 930.402 C 993.724 930.053, 993.714 871.667, 993.136 800.750 L 993 784 970.750 784.031 L 948.500 784.061 926.250 820.404 M 743.250 794.010 C 740.765 795.032, 740.158 799.558, 742.035 803.066 C 744.167 807.049, 753 804.285, 753 799.634 C 753 794.946, 747.993 792.058, 743.250 794.010 M 1328.392 843.175 C 1327.180 845.136, 1331.199 846.628, 1334.393 845.403 C 1335.616 844.933, 1335.687 844.552, 1334.724 843.617 C 1333.152 842.089, 1329.232 841.816, 1328.392 843.175 M 1311.986 858.414 C 1310.322 860.078, 1310.779 863.299, 1312.582 862.607 C 1313.452 862.273, 1314.352 862, 1314.582 862 C 1314.812 862, 1315 861.325, 1315 860.500 C 1315 859.675, 1315.450 859, 1316 859 C 1316.550 859, 1317 858.578, 1317 858.062 C 1317 856.859, 1313.280 857.120, 1311.986 858.414 M 1193.750 866.706 C 1192.787 866.948, 1192 867.560, 1192 868.066 C 1192 869.853, 1187.745 873.847, 1185.145 874.500 C 1182 875.289, 1179.836 876.926, 1180.505 878.009 C 1180.771 878.439, 1180.316 879.048, 1179.494 879.364 C 1178.587 879.712, 1178 879.361, 1178 878.469 C 1178 877.661, 1177.635 877, 1177.190 877 C 1176.033 877, 1170 883.047, 1170 884.207 C 1170 885.573, 1161.870 884.109, 1159.921 882.391 C 1159.053 881.626, 1157.703 881.014, 1156.921 881.032 C 1155.850 881.056, 1155.930 881.390, 1157.250 882.392 C 1158.213 883.123, 1159 884.247, 1159 884.892 C 1159 885.536, 1159.625 886.303, 1160.389 886.596 C 1161.154 886.889, 1161.567 887.938, 1161.309 888.927 C 1161.050 889.915, 1161.438 890.934, 1162.169 891.190 C 1163.824 891.770, 1168.239 889.568, 1167.813 888.376 C 1167.641 887.894, 1168.963 887.069, 1170.750 886.543 C 1172.537 886.017, 1174 885.229, 1174 884.793 C 1174 884.357, 1174.563 883.997, 1175.250 883.994 C 1175.938 883.990, 1177.682 883.371, 1179.126 882.618 C 1181.684 881.283, 1184.311 881.260, 1188.612 882.535 C 1190.222 883.012, 1190.859 882.648, 1191.289 881.002 C 1191.706 879.407, 1191.481 878.985, 1190.427 879.390 C 1188.636 880.077, 1188.651 879.045, 1190.465 876.650 C 1191.236 875.632, 1192.347 875.096, 1192.933 875.459 C 1193.580 875.859, 1194 875.134, 1194 873.618 C 1194 870.841, 1195.663 869.156, 1196.174 871.414 C 1196.440 872.589, 1196.914 872.515, 1198.752 871.014 C 1202.595 867.877, 1199.541 865.247, 1193.750 866.706 M 1211.475 874.588 C 1209.524 875.386, 1207.743 875.473, 1206.105 874.850 C 1202.736 873.569, 1200.638 875.710, 1201.581 879.466 L 1202.278 882.244 1203.591 879.122 C 1205.157 875.396, 1206.474 874.976, 1205.594 878.482 C 1205.132 880.324, 1205.491 881.290, 1206.985 882.223 C 1208.145 882.947, 1208.994 884.546, 1208.985 885.991 C 1208.973 887.934, 1208.759 888.167, 1208.036 887.024 C 1207.274 885.819, 1206.922 886.002, 1206.115 888.024 C 1205.208 890.296, 1205.122 890.174, 1205.063 886.536 C 1205.002 882.728, 1204.931 882.644, 1203.250 884.406 C 1201.968 885.749, 1201.834 886.364, 1202.750 886.703 C 1203.438 886.958, 1204 888.029, 1204 889.083 C 1204 890.138, 1204.684 891, 1205.519 891 C 1206.669 891, 1206.878 891.669, 1206.381 893.750 C 1206.020 895.263, 1205.286 897.057, 1204.749 897.738 C 1204.068 898.604, 1204.303 899.179, 1205.532 899.651 C 1206.647 900.078, 1207.750 899.695, 1208.549 898.602 C 1209.725 896.994, 1209.946 897.025, 1211.849 899.068 C 1212.973 900.274, 1214.549 901.003, 1215.361 900.692 C 1218.179 899.610, 1217.768 902.615, 1214.925 903.873 C 1212.842 904.795, 1211.888 906.079, 1211.416 908.597 C 1210.790 911.934, 1207 915.571, 1207 912.835 C 1207 911.874, 1206.733 911.867, 1205.800 912.800 C 1204.904 913.696, 1204.888 914.288, 1205.736 915.136 C 1206.583 915.983, 1207.286 915.856, 1208.507 914.636 C 1209.407 913.736, 1210.834 913, 1211.680 913 C 1212.796 913, 1213.054 912.353, 1212.625 910.640 C 1211.668 906.828, 1214.494 905.166, 1221.372 905.495 C 1226.271 905.729, 1227.615 906.208, 1229.488 908.388 C 1232.653 912.071, 1234.484 911.751, 1234.575 907.497 C 1234.616 905.574, 1234.279 904, 1233.825 904 C 1232.400 904, 1232.928 899.304, 1234.500 898 C 1235.325 897.315, 1236 897.066, 1236 897.446 C 1236 897.825, 1237.237 897.270, 1238.750 896.211 C 1240.263 895.152, 1242.063 894.484, 1242.750 894.726 C 1243.438 894.968, 1244 894.653, 1244 894.024 C 1244 893.396, 1243.581 893.141, 1243.068 893.458 C 1242.556 893.774, 1241.422 893.013, 1240.549 891.767 C 1239.676 890.520, 1238.633 889.612, 1238.231 889.750 C 1237.829 889.888, 1237.500 889.559, 1237.500 889.019 C 1237.500 888.480, 1236.484 887.327, 1235.241 886.456 C 1233.193 885.022, 1232.837 885.020, 1231.420 886.437 C 1230.560 887.297, 1230.267 888, 1230.768 888 C 1231.269 888, 1232.234 889.219, 1232.913 890.709 C 1233.975 893.038, 1233.900 893.600, 1232.383 894.709 C 1229.738 896.643, 1227.220 896.269, 1226.445 893.827 C 1225.440 890.662, 1223.805 889.238, 1221.780 889.768 C 1220.801 890.024, 1220 889.731, 1220 889.117 C 1220 888.096, 1221.353 887.582, 1223.250 887.882 C 1224.363 888.057, 1224.158 886.216, 1222.984 885.490 C 1222.425 885.144, 1222.209 884.470, 1222.505 883.991 C 1222.801 883.513, 1222.156 883.188, 1221.073 883.269 C 1219.463 883.391, 1219.322 883.690, 1220.301 884.901 C 1221.243 886.066, 1221.232 886.223, 1220.250 885.633 C 1219.563 885.220, 1219 885.359, 1219 885.941 C 1219 887.538, 1216.894 887.214, 1214.768 885.290 C 1213.160 883.835, 1212.746 883.793, 1211.993 885.011 C 1211.507 885.798, 1210.806 886.139, 1210.435 885.769 C 1209.510 884.844, 1212.760 881.733, 1213.909 882.444 C 1215.618 883.500, 1225 880.919, 1225 879.392 C 1225 877.829, 1220.385 875.644, 1218.953 876.529 C 1218.469 876.828, 1217.245 876.245, 1216.234 875.234 C 1214.658 873.658, 1213.977 873.566, 1211.475 874.588 M 1369.750 875.716 C 1367.202 876.102, 1365.748 878, 1368 878 C 1368.550 878, 1369 878.915, 1369 880.032 C 1369 882.093, 1373.194 884.563, 1373.833 882.878 C 1374.017 882.395, 1374.804 882, 1375.583 882 C 1376.362 882, 1377 881.732, 1377 881.404 C 1377 880.367, 1373.593 874.993, 1373.034 875.150 C 1372.740 875.232, 1371.263 875.487, 1369.750 875.716 M 1283.500 891.657 C 1281.537 893.221, 1281.543 893.240, 1283.857 892.691 C 1285.154 892.383, 1287.179 892.489, 1288.357 892.926 C 1289.885 893.493, 1291.053 893.187, 1292.425 891.860 C 1294.312 890.037, 1294.262 890.001, 1289.925 890.032 C 1287.424 890.050, 1284.630 890.756, 1283.500 891.657 M 1196.667 904.667 C 1195.625 905.709, 1195.869 906.727, 1197.571 908.429 C 1199.805 910.662, 1201.257 910.384, 1200.460 907.875 C 1200.037 906.542, 1200.292 905.430, 1201.143 904.890 C 1202.104 904.281, 1201.747 904.026, 1199.917 904.015 C 1198.496 904.007, 1197.033 904.300, 1196.667 904.667 M 1173.540 906.935 C 1173.178 907.521, 1173.359 908, 1173.941 908 C 1174.523 908, 1175 908.482, 1175 909.071 C 1175 910.568, 1177.051 912.458, 1180.749 914.370 C 1184.314 916.214, 1187 916.484, 1187 915 C 1187 914.450, 1186.176 914, 1185.169 914 C 1183.022 914, 1180.478 909.803, 1181.310 907.634 C 1181.709 906.594, 1181.289 906.178, 1179.943 906.279 C 1178.874 906.360, 1178 907.075, 1178 907.868 C 1178 909.027, 1177.626 908.972, 1176.099 907.590 C 1174.855 906.464, 1173.971 906.238, 1173.540 906.935 M 1225.500 907.850 C 1221.491 909.153, 1219.683 910.731, 1220.314 912.376 C 1221.121 914.478, 1223 914.479, 1223 912.378 C 1223 911.037, 1223.265 910.975, 1224.524 912.020 C 1225.362 912.716, 1226.199 913.108, 1226.383 912.893 C 1226.825 912.376, 1228.117 906.971, 1227.769 907.100 C 1227.621 907.155, 1226.600 907.492, 1225.500 907.850 M 1252.640 928.069 C 1250.503 929.750, 1250.130 929.825, 1250.650 928.470 C 1251.208 927.014, 1251.029 926.965, 1249.238 928.084 C 1248.109 928.789, 1247.332 930.127, 1247.511 931.058 C 1247.719 932.135, 1247.230 932.705, 1246.169 932.625 C 1245.138 932.548, 1244.376 933.383, 1244.173 934.812 C 1243.883 936.851, 1243.469 937.043, 1240.672 936.437 C 1238.928 936.058, 1237.208 935.290, 1236.851 934.729 C 1235.938 933.294, 1233 934.622, 1233 936.469 C 1233 937.325, 1233.867 938, 1234.969 938 C 1236.292 938, 1236.752 938.483, 1236.371 939.474 C 1235.876 940.765, 1235.617 940.760, 1234.290 939.433 C 1232.965 938.107, 1232.500 938.098, 1230.579 939.356 C 1228.975 940.407, 1227.887 940.517, 1226.540 939.763 C 1224.888 938.838, 1224.758 939.039, 1225.287 941.683 C 1225.852 944.510, 1225.745 944.616, 1222.779 944.181 C 1220.229 943.807, 1219.792 944.015, 1220.306 945.356 C 1220.676 946.319, 1220.160 947.705, 1219.047 948.743 C 1218.010 949.709, 1216.866 951.681, 1216.504 953.125 C 1215.932 955.407, 1216.249 955.891, 1218.923 956.823 C 1220.615 957.413, 1222 958.174, 1222 958.514 C 1222 959.639, 1219.719 963.487, 1218.600 964.250 C 1217.913 964.718, 1218.345 965.232, 1219.750 965.617 C 1222.097 966.260, 1222.758 968.413, 1220.951 969.530 C 1219.305 970.548, 1222.057 973.218, 1224.180 972.663 C 1225.287 972.374, 1226 972.725, 1226 973.558 C 1226 974.313, 1226.900 975.411, 1228 976 C 1229.170 976.626, 1230 978.094, 1230 979.535 C 1230 982.195, 1231.646 982.945, 1232.177 980.526 C 1232.409 979.465, 1232.920 979.325, 1234 980.026 C 1235.244 980.834, 1235.268 981.150, 1234.143 981.875 C 1233.268 982.440, 1233.155 982.978, 1233.824 983.391 C 1234.395 983.744, 1235.118 983.618, 1235.432 983.111 C 1235.770 982.564, 1236.957 982.640, 1238.351 983.297 C 1240.827 984.466, 1240.783 984.022, 1239.635 996.202 C 1239.420 998.486, 1239.701 999.827, 1240.369 999.702 C 1240.965 999.591, 1241.599 1000.455, 1241.779 1001.621 C 1242.054 1003.409, 1241.706 1003.666, 1239.563 1003.257 C 1237.649 1002.891, 1236.832 1003.279, 1236.260 1004.826 C 1235.530 1006.799, 1235.229 1007, 1233 1007 C 1231.455 1007, 1231.809 1008.474, 1233.947 1010.939 C 1235.018 1012.173, 1236.342 1012.907, 1236.890 1012.568 C 1237.438 1012.229, 1239.937 1011.799, 1242.443 1011.611 C 1246.664 1011.295, 1247 1011.444, 1247 1013.635 C 1247 1014.936, 1246.550 1016, 1246 1016 C 1245.450 1016, 1245 1015.550, 1245 1015 C 1245 1014.450, 1244.550 1014, 1244 1014 C 1243.450 1014, 1243 1014.661, 1243 1015.469 C 1243 1016.428, 1242.423 1016.716, 1241.336 1016.299 C 1240.277 1015.892, 1239.916 1016.055, 1240.342 1016.745 C 1240.711 1017.341, 1240.520 1017.993, 1239.917 1018.194 C 1239.252 1018.416, 1239.606 1019.527, 1240.820 1021.026 L 1242.817 1023.492 1242.292 1020.746 C 1241.901 1018.702, 1242.165 1018, 1243.324 1018 C 1244.181 1018, 1245.160 1018.450, 1245.500 1019 C 1246.438 1020.517, 1249 1020.195, 1249 1018.560 C 1249 1017.223, 1249.720 1017.147, 1255.372 1017.886 C 1255.852 1017.949, 1255.627 1018.761, 1254.872 1019.692 C 1253.728 1021.103, 1253.726 1021.248, 1254.862 1020.564 C 1256.626 1019.501, 1258.373 1022.106, 1256.697 1023.302 C 1255.961 1023.828, 1256.550 1023.989, 1258.229 1023.721 C 1260.331 1023.385, 1261.357 1023.883, 1262.703 1025.893 C 1263.663 1027.327, 1264.460 1028.950, 1264.474 1029.500 C 1264.488 1030.050, 1265.625 1030.500, 1267 1030.500 C 1269.377 1030.500, 1269.500 1030.217, 1269.500 1024.748 C 1269.500 1021.585, 1269.838 1018.997, 1270.250 1018.998 C 1270.662 1018.999, 1271 1018.600, 1271 1018.111 C 1271 1017.622, 1270.213 1017.285, 1269.250 1017.361 C 1267.970 1017.463, 1267.416 1016.627, 1267.187 1014.250 C 1267.012 1012.435, 1267.340 1011, 1267.930 1011 C 1269.075 1011, 1268.921 1008.267, 1267.662 1006.250 C 1267.189 1005.492, 1267.397 1004.988, 1268.191 1004.968 C 1268.911 1004.951, 1268.212 1003.804, 1266.638 1002.420 C 1263.979 1000.082, 1263.891 999.778, 1265.388 998.123 C 1267.222 996.097, 1267.540 994.548, 1265.916 995.552 C 1265.224 995.980, 1264.961 995.369, 1265.190 993.861 C 1265.388 992.551, 1266.135 991.625, 1266.867 991.781 C 1267.593 991.936, 1267.977 991.486, 1267.719 990.781 C 1267.461 990.077, 1266.744 989.613, 1266.125 989.750 C 1265.506 989.888, 1265 989.564, 1265 989.031 C 1265 988.499, 1264.325 988.322, 1263.500 988.638 C 1261.836 989.277, 1261.418 987.478, 1263.003 986.498 C 1263.664 986.090, 1263.671 985.253, 1263.024 984.044 C 1262.309 982.709, 1262.445 981.876, 1263.521 980.983 C 1264.334 980.307, 1265 979.095, 1265 978.288 C 1265 977.481, 1265.946 976.054, 1267.103 975.118 C 1269.099 973.502, 1269.116 973.341, 1267.440 971.958 C 1266.085 970.839, 1265.577 970.791, 1265.254 971.750 C 1264.743 973.267, 1262 973.428, 1262 971.941 C 1262 971.359, 1262.450 971.160, 1263 971.500 C 1263.550 971.840, 1264 971.672, 1264 971.126 C 1264 970.581, 1264.900 969.849, 1266 969.500 C 1268.144 968.820, 1268.718 965.562, 1266.893 964.434 C 1266.148 963.973, 1266.006 964.445, 1266.460 965.875 C 1267.004 967.589, 1266.722 968, 1265 968 C 1263.270 968, 1262.995 967.592, 1263.548 965.849 C 1264.091 964.138, 1263.900 963.824, 1262.615 964.317 C 1260.590 965.094, 1260.588 965.128, 1263.025 959.441 C 1264.139 956.843, 1264.752 954.443, 1264.388 954.108 C 1264.024 953.774, 1263.523 954.071, 1263.274 954.768 C 1262.671 956.457, 1259.876 959.209, 1259.324 958.657 C 1257.915 957.249, 1258.307 949.874, 1259.901 947.795 C 1262.508 944.393, 1263.188 942, 1261.548 942 C 1260.784 942, 1259.871 943.312, 1259.518 944.916 C 1259.166 946.521, 1258.201 948.093, 1257.374 948.410 C 1256.286 948.828, 1256.024 948.500, 1256.428 947.228 C 1256.806 946.037, 1256.261 945.150, 1254.743 944.484 C 1252.910 943.680, 1252.453 942.587, 1252.244 938.500 C 1252.044 934.613, 1252.223 933.891, 1253.048 935.258 C 1253.631 936.225, 1253.773 937.575, 1253.362 938.258 C 1252.858 939.097, 1253.161 939.058, 1254.297 938.137 C 1255.222 937.387, 1255.659 936.262, 1255.270 935.637 C 1254.880 935.012, 1254.701 933.424, 1254.871 932.108 C 1255.123 930.156, 1254.847 929.845, 1253.364 930.414 C 1251.938 930.961, 1252.064 930.561, 1253.948 928.556 C 1256.847 925.470, 1256.234 925.241, 1252.640 928.069 M 1219.074 931.096 C 1217.739 931.630, 1215.756 931.939, 1214.667 931.783 C 1213.577 931.627, 1212.470 932.134, 1212.207 932.909 C 1211.870 933.899, 1212.236 934.123, 1213.438 933.662 C 1215.290 932.951, 1218.357 935.276, 1217.202 936.516 C 1216.816 936.931, 1217.457 936.774, 1218.628 936.166 C 1219.798 935.558, 1220.973 933.922, 1221.239 932.530 C 1221.505 931.139, 1221.673 930.029, 1221.611 930.063 C 1221.550 930.098, 1220.408 930.563, 1219.074 931.096 M 1267 948.969 C 1267 949.501, 1266.371 949.696, 1265.601 949.400 C 1263.759 948.694, 1262.465 950.865, 1263.883 952.283 C 1264.696 953.096, 1265.390 952.871, 1266.477 951.446 C 1267.688 949.859, 1268.129 949.754, 1268.869 950.878 C 1269.867 952.394, 1272.009 951.578, 1271.985 949.691 C 1271.974 948.879, 1271.701 948.924, 1271.124 949.834 C 1270.443 950.908, 1270.160 950.859, 1269.671 949.584 C 1269.010 947.862, 1267 947.399, 1267 948.969 M 1253.113 958.288 C 1251.665 960.994, 1252.793 964.793, 1255.997 967.997 C 1257.139 969.139, 1257.836 970.456, 1257.547 970.923 C 1257.258 971.391, 1257.737 972.366, 1258.610 973.091 C 1260.032 974.272, 1260.026 973.998, 1258.550 970.466 C 1257.644 968.298, 1257.158 965.506, 1257.470 964.262 C 1257.812 962.902, 1257.583 962, 1256.897 962 C 1256.095 962, 1256.065 961.627, 1256.795 960.747 C 1257.524 959.868, 1257.453 958.973, 1256.557 957.747 C 1254.906 955.490, 1254.584 955.540, 1253.113 958.288 M 1275.727 957.633 C 1275.376 958.201, 1273.718 958.465, 1272.044 958.220 C 1269.926 957.909, 1268.995 958.188, 1268.985 959.137 C 1268.973 960.197, 1268.754 960.166, 1268 959 C 1267.467 958.175, 1266.986 957.725, 1266.932 958 C 1266.171 961.856, 1266.496 962.750, 1268.658 962.750 C 1269.926 962.750, 1270.723 962.361, 1270.430 961.886 C 1270.136 961.412, 1270.600 961.293, 1271.461 961.623 C 1272.321 961.954, 1273.638 961.716, 1274.386 961.095 C 1275.134 960.474, 1276.433 960.229, 1277.272 960.551 C 1278.111 960.873, 1279.095 960.656, 1279.458 960.068 C 1279.821 959.481, 1279.454 959, 1278.642 959 C 1277.831 959, 1276.987 958.460, 1276.766 957.799 C 1276.505 957.016, 1276.144 956.958, 1275.727 957.633 M 1182.750 982.758 C 1181.787 982.972, 1181 983.527, 1181 983.992 C 1181 984.456, 1180.749 985.490, 1180.443 986.289 C 1179.775 988.028, 1182.512 989.290, 1185.141 988.455 C 1186.251 988.103, 1187 986.928, 1187 985.540 C 1187 983.056, 1185.583 982.129, 1182.750 982.758 M 819.250 984.735 C 817.606 985.303, 817.648 988.463, 819.318 989.849 C 820.290 990.656, 821.209 990.542, 822.818 989.415 C 824.018 988.574, 825 987.534, 825 987.104 C 825 985.981, 820.732 984.223, 819.250 984.735 M 1225.310 995.522 C 1226.289 1001.557, 1227.589 1001.788, 1228.157 996.030 C 1228.430 993.265, 1228.114 992.482, 1226.603 992.178 C 1224.931 991.842, 1224.777 992.239, 1225.310 995.522 M 1216.121 1028.002 C 1212.357 1028.891, 1210.904 1030.520, 1211.745 1032.909 C 1212.840 1036.023, 1215.213 1037.864, 1217.844 1037.641 C 1220.071 1037.452, 1220.455 1036.990, 1220.224 1034.783 C 1220.072 1033.335, 1220.367 1031.891, 1220.880 1031.574 C 1221.874 1030.960, 1221.201 1026.930, 1220.133 1027.102 C 1219.785 1027.159, 1217.979 1027.564, 1216.121 1028.002 M 1230.667 1042.667 C 1229.390 1043.944, 1230.013 1046.702, 1231.981 1048.483 C 1233.603 1049.950, 1234.238 1050.047, 1235.481 1049.016 C 1237.304 1047.503, 1237.450 1044.850, 1235.800 1043.200 C 1234.493 1041.893, 1231.728 1041.605, 1230.667 1042.667 M 875.653 1048.750 C 873.325 1051.035, 872.906 1051.180, 873.176 1049.604 C 873.354 1048.561, 873.004 1047.533, 872.399 1047.320 C 871.760 1047.095, 871.340 1048.060, 871.399 1049.617 C 871.473 1051.595, 872.093 1052.393, 873.750 1052.645 C 874.995 1052.834, 876 1052.466, 876 1051.819 C 876 1051.177, 877.123 1051.707, 878.496 1052.996 C 881.669 1055.977, 882.846 1054.925, 880.416 1051.281 C 879.396 1049.752, 878.680 1047.938, 878.825 1047.250 C 879.199 1045.470, 878.804 1045.657, 875.653 1048.750 M 1270.319 1057.250 C 1267.706 1063.016, 1267.008 1066.387, 1268.262 1067.183 C 1269.219 1067.791, 1269.224 1067.973, 1268.281 1067.985 C 1267.611 1067.993, 1267.322 1068.675, 1267.638 1069.500 C 1267.955 1070.325, 1267.753 1071, 1267.190 1071 C 1266.627 1071, 1265.940 1070.438, 1265.662 1069.750 C 1265.333 1068.934, 1265.131 1069.048, 1265.079 1070.081 C 1265.036 1070.951, 1266.110 1072.256, 1267.466 1072.982 C 1269.987 1074.331, 1269.930 1076.571, 1267.399 1075.600 C 1265.430 1074.844, 1265.658 1075.658, 1268.098 1078.098 C 1270.492 1080.492, 1276 1082.419, 1276 1080.863 C 1276 1080.314, 1276.787 1080.110, 1277.750 1080.410 C 1279.961 1081.098, 1282.479 1079.583, 1281.569 1078.112 C 1281.191 1077.500, 1280.121 1076.968, 1279.191 1076.930 C 1277.812 1076.872, 1277.870 1076.701, 1279.500 1076 C 1281.176 1075.280, 1281.221 1075.129, 1279.776 1075.070 C 1278.827 1075.032, 1277.368 1073.679, 1276.534 1072.065 C 1275.087 1069.268, 1275.121 1069.096, 1277.258 1068.420 C 1278.491 1068.030, 1280.468 1066.988, 1281.650 1066.105 C 1283.693 1064.580, 1283.719 1064.363, 1282.184 1061.750 C 1280.395 1058.704, 1277 1058.017, 1277 1060.700 C 1277 1062.022, 1276.733 1062.133, 1275.800 1061.200 C 1275.140 1060.540, 1273.720 1060, 1272.645 1060 C 1270.814 1060, 1270.795 1059.884, 1272.345 1058.171 C 1274.347 1055.959, 1274.445 1055, 1272.669 1055 C 1271.937 1055, 1270.879 1056.013, 1270.319 1057.250 M 880.396 1063.750 C 880.098 1064.713, 879.400 1066.341, 878.845 1067.368 C 877.421 1070.004, 879.162 1071.519, 881.921 1070.042 C 883.095 1069.414, 883.780 1068.453, 883.442 1067.906 C 883.104 1067.360, 883.355 1066.277, 884 1065.500 C 884.645 1064.723, 884.882 1063.618, 884.527 1063.044 C 883.509 1061.396, 880.991 1061.827, 880.396 1063.750 M 869 1065.820 C 869 1067.098, 864.193 1068.992, 860.243 1069.271 C 856.845 1069.511, 856.151 1070.357, 858.250 1071.700 C 858.938 1072.140, 860.017 1073.433, 860.648 1074.573 C 861.606 1076.303, 861.466 1076.853, 859.801 1077.892 C 858.703 1078.578, 858.063 1079.397, 858.378 1079.712 C 859.240 1080.573, 862.090 1077.892, 863.079 1075.291 C 863.559 1074.031, 864.415 1073, 864.984 1073 C 865.642 1073, 865.587 1073.689, 864.833 1074.896 C 863.881 1076.421, 863.963 1077.106, 865.253 1078.396 C 867.433 1080.576, 868.293 1080.416, 867.035 1078.066 C 865.596 1075.377, 865.628 1075.324, 869.071 1074.636 C 871.563 1074.137, 872.077 1073.595, 871.797 1071.761 C 871.608 1070.517, 870.901 1069.612, 870.226 1069.750 C 868.642 1070.073, 868.618 1067.294, 870.201 1066.766 C 871.135 1066.455, 871.135 1066.202, 870.201 1065.624 C 869.540 1065.216, 869 1065.304, 869 1065.820 M 1256.785 1080.489 C 1255.193 1081.970, 1254.306 1083.634, 1254.642 1084.508 C 1254.956 1085.329, 1254.753 1086, 1254.190 1086 C 1253.627 1086, 1253.009 1085.528, 1252.817 1084.951 C 1252.625 1084.374, 1251.202 1085.224, 1249.655 1086.838 L 1246.842 1089.774 1249.671 1089.548 C 1253.913 1089.208, 1256 1088.003, 1256 1085.893 C 1256 1084.852, 1256.450 1084, 1257 1084 C 1257.550 1084, 1258 1084.471, 1258 1085.047 C 1258 1085.622, 1259.096 1085.285, 1260.436 1084.297 C 1263.038 1082.377, 1263.320 1078.696, 1260.901 1078.230 C 1260.131 1078.082, 1258.278 1079.098, 1256.785 1080.489 M 925.872 1168.692 C 924.940 1169.842, 924.901 1170.143, 925.750 1169.633 C 927.702 1168.460, 929.318 1169.912, 927.926 1171.589 C 927.023 1172.677, 927.044 1173, 928.017 1173 C 929.733 1173, 931.893 1169.885, 931.282 1168.292 C 930.580 1166.462, 927.496 1166.690, 925.872 1168.692 M 1124.666 1180.427 C 1124.365 1181.212, 1124.762 1182.388, 1125.548 1183.040 C 1127.240 1184.444, 1126.532 1186.141, 1124.569 1185.388 C 1123.817 1185.100, 1122.901 1185.352, 1122.532 1185.948 C 1122.163 1186.545, 1121.443 1186.774, 1120.931 1186.457 C 1119.569 1185.616, 1119.793 1188.393, 1121.200 1189.800 C 1122.133 1190.733, 1122.117 1191, 1121.129 1191 C 1119.623 1191, 1117 1188.560, 1117 1187.160 C 1117 1186.619, 1116.213 1186.328, 1115.250 1186.512 C 1114.287 1186.696, 1112.911 1186.881, 1112.191 1186.923 C 1111.471 1186.966, 1111.148 1187.430, 1111.473 1187.956 C 1111.798 1188.482, 1112.644 1188.690, 1113.353 1188.418 C 1114.062 1188.146, 1116.185 1189.274, 1118.071 1190.924 C 1119.957 1192.575, 1121.651 1193.489, 1121.835 1192.956 C 1122.020 1192.423, 1122.695 1192.310, 1123.335 1192.705 C 1123.976 1193.100, 1123.718 1192.226, 1122.761 1190.763 C 1121.620 1189.018, 1121.384 1187.880, 1122.076 1187.453 C 1123.559 1186.536, 1130 1187.879, 1130 1189.104 C 1130 1189.662, 1129.520 1189.821, 1128.933 1189.458 C 1128.346 1189.096, 1127.639 1189.666, 1127.361 1190.726 C 1127.084 1191.786, 1125.497 1193.457, 1123.834 1194.439 C 1121.465 1195.839, 1120.911 1196.755, 1121.277 1198.671 C 1121.590 1200.308, 1121.346 1200.963, 1120.539 1200.653 C 1119.876 1200.399, 1119.333 1200.823, 1119.333 1201.595 C 1119.333 1202.368, 1119.708 1203, 1120.167 1203 C 1120.625 1203, 1121 1203.705, 1121 1204.567 C 1121 1205.736, 1120.430 1205.954, 1118.758 1205.423 C 1116.765 1204.791, 1116.667 1204.894, 1117.880 1206.356 C 1118.631 1207.260, 1118.823 1208, 1118.308 1208 C 1116.753 1208, 1114.091 1201.366, 1114.705 1199.020 C 1115.131 1197.390, 1115.487 1197.170, 1116.097 1198.157 C 1117.094 1199.770, 1118.683 1198.397, 1119.166 1195.504 C 1119.464 1193.724, 1118.930 1193.502, 1114.250 1193.461 L 1109 1193.415 1109 1211.743 C 1109 1229.634, 1109.047 1230.045, 1110.959 1229.022 C 1112.037 1228.445, 1113.275 1228.032, 1113.709 1228.105 C 1116.832 1228.626, 1118.199 1227.870, 1117.686 1225.908 C 1117.179 1223.969, 1117.267 1223.932, 1118.898 1225.408 C 1119.866 1226.284, 1121.185 1227, 1121.829 1227 C 1122.473 1227, 1123.018 1228.013, 1123.040 1229.250 C 1123.079 1231.414, 1123.135 1231.400, 1124.510 1228.869 C 1126.470 1225.262, 1128.965 1224.402, 1129.116 1227.281 C 1129.198 1228.850, 1129.362 1229.010, 1129.674 1227.827 C 1129.918 1226.908, 1131.406 1225.706, 1132.982 1225.156 C 1135.297 1224.349, 1135.963 1224.462, 1136.456 1225.746 C 1136.907 1226.922, 1137.357 1227.043, 1138.190 1226.210 C 1139.024 1225.376, 1138.983 1224.685, 1138.035 1223.542 C 1136.950 1222.235, 1137.078 1222, 1138.878 1222 C 1140.045 1222, 1141.010 1222.338, 1141.022 1222.750 C 1141.034 1223.162, 1141.940 1224.625, 1143.035 1226 C 1144.234 1227.505, 1144.780 1227.804, 1144.406 1226.750 C 1143.975 1225.533, 1144.296 1225, 1145.460 1225 C 1146.712 1225, 1146.965 1224.464, 1146.460 1222.875 C 1146.041 1221.555, 1146.300 1220.383, 1147.143 1219.781 C 1148.177 1219.042, 1148.083 1218.945, 1146.750 1219.374 C 1144.572 1220.075, 1144.399 1217.744, 1146.500 1216 C 1147.325 1215.315, 1148 1214.102, 1148 1213.304 C 1148 1212.452, 1148.723 1212.002, 1149.750 1212.212 C 1150.985 1212.466, 1151.417 1213.358, 1151.218 1215.248 C 1150.942 1217.869, 1151.046 1217.920, 1156.218 1217.731 C 1159.123 1217.624, 1161.831 1217.078, 1162.235 1216.518 C 1163.401 1214.902, 1163.144 1217.863, 1161.919 1220.151 C 1160.398 1222.993, 1161.273 1223.360, 1164.160 1221.089 C 1165.761 1219.829, 1167.112 1219.451, 1168.015 1220.009 C 1168.779 1220.481, 1169.783 1220.634, 1170.246 1220.348 C 1170.709 1220.062, 1171.737 1220.367, 1172.531 1221.026 C 1173.325 1221.685, 1174.705 1221.943, 1175.599 1221.601 C 1176.917 1221.095, 1177.104 1221.449, 1176.592 1223.489 C 1176.228 1224.940, 1176.392 1226, 1176.981 1226 C 1177.541 1226, 1177.947 1225.662, 1177.882 1225.250 C 1177.491 1222.774, 1178.211 1221, 1179.607 1221 C 1180.609 1221, 1181.002 1221.553, 1180.651 1222.468 C 1180.026 1224.095, 1181.543 1225.548, 1182.407 1224.150 C 1182.707 1223.665, 1184.114 1223.490, 1185.533 1223.762 C 1188.076 1224.248, 1188.109 1224.178, 1187.807 1218.877 C 1187.554 1214.442, 1187.179 1213.499, 1185.664 1213.493 C 1184.654 1213.489, 1183.286 1212.744, 1182.624 1211.839 C 1181.962 1210.933, 1174.688 1206.279, 1166.460 1201.497 C 1158.232 1196.716, 1147.450 1190.431, 1142.500 1187.532 C 1127.076 1178.497, 1125.628 1177.920, 1124.666 1180.427 M 963.490 1182.016 C 963.144 1182.575, 962.443 1182.774, 961.931 1182.457 C 960.754 1181.730, 960.753 1183.062, 961.930 1184.921 C 962.696 1186.131, 963.214 1186.090, 965.415 1184.648 C 966.837 1183.716, 968 1182.514, 968 1181.977 C 968 1180.684, 964.293 1180.717, 963.490 1182.016 M 945.500 1189.294 C 944.400 1190.401, 943.950 1191.060, 944.500 1190.759 C 945.050 1190.457, 946.108 1190.868, 946.852 1191.672 C 948.001 1192.915, 947.899 1193.214, 946.171 1193.665 C 942.685 1194.577, 942.983 1196.485, 946.642 1196.680 C 949.738 1196.844, 950.004 1196.633, 949.815 1194.151 C 949.701 1192.661, 949.991 1190.824, 950.459 1190.067 C 951.017 1189.163, 950.934 1188.923, 950.216 1189.367 C 949.615 1189.738, 948.758 1189.421, 948.311 1188.662 C 947.654 1187.543, 947.122 1187.662, 945.500 1189.294 M 935.119 1194.680 C 934.537 1195.681, 934.047 1195.938, 934.030 1195.250 C 934.014 1194.563, 933.573 1194, 933.052 1194 C 932.472 1194, 932.502 1195.141, 933.129 1196.939 C 933.795 1198.852, 934.648 1199.688, 935.571 1199.334 C 936.351 1199.035, 936.761 1198.422, 936.482 1197.971 C 936.203 1197.520, 936.626 1197.005, 937.421 1196.826 C 938.642 1196.550, 938.658 1196.218, 937.522 1194.680 C 936.222 1192.921, 936.143 1192.921, 935.119 1194.680 M 927.309 1195.514 C 926.134 1196.773, 926.608 1201, 927.926 1201 C 928.306 1201, 929.447 1200.394, 930.460 1199.653 C 931.756 1198.705, 931.956 1198.091, 931.135 1197.584 C 930.493 1197.187, 930.197 1196.490, 930.478 1196.036 C 931.345 1194.633, 928.561 1194.174, 927.309 1195.514 M 939.074 1201.411 C 938.271 1202.378, 938.233 1203.026, 938.954 1203.472 C 939.668 1203.913, 939.684 1204.722, 939.003 1205.995 C 938.451 1207.025, 938 1209.152, 938 1210.721 C 938 1212.882, 938.498 1213.612, 940.054 1213.729 C 942.590 1213.920, 943.662 1211.503, 941.954 1209.445 C 940.993 1208.286, 940.966 1207.634, 941.842 1206.758 C 943.684 1204.916, 943.306 1201.945, 941.326 1202.705 C 940.058 1203.192, 939.808 1202.942, 940.295 1201.674 C 941.080 1199.629, 940.633 1199.533, 939.074 1201.411 M 1133 1213.394 C 1133 1216.333, 1134.960 1218.278, 1136.573 1216.939 C 1138.255 1215.543, 1137.225 1212.292, 1134.908 1211.686 C 1133.456 1211.307, 1133 1211.715, 1133 1213.394 M 934.328 1219.587 C 933.955 1220.561, 934.739 1222.194, 936.360 1223.814 L 939 1226.455 939 1223.809 C 939 1220.121, 938.037 1218, 936.362 1218 C 935.578 1218, 934.663 1218.714, 934.328 1219.587 M 1152.195 1221.866 C 1150.452 1225.559, 1150.702 1226.290, 1153.524 1225.751 C 1156.994 1225.087, 1157.721 1226.775, 1154.493 1228.003 C 1152.475 1228.770, 1152.013 1229.465, 1152.500 1231.001 C 1152.991 1232.547, 1152.679 1233, 1151.126 1233 C 1148.472 1233, 1147.789 1234.297, 1148.935 1237.158 C 1149.451 1238.446, 1149.902 1238.938, 1149.937 1238.250 C 1149.971 1237.563, 1150.644 1237, 1151.432 1237 C 1153.148 1237, 1157 1231.857, 1157 1229.564 C 1157 1228.669, 1157.646 1227.689, 1158.436 1227.386 C 1159.361 1227.031, 1159.853 1225.439, 1159.818 1222.918 C 1159.760 1218.728, 1158.732 1217.914, 1157.080 1220.750 C 1156.217 1222.232, 1156.056 1222.258, 1156.030 1220.917 C 1155.983 1218.447, 1153.521 1219.057, 1152.195 1221.866 M 919.035 1225.934 C 917.703 1228.423, 917.719 1228.576, 919.482 1230.340 C 920.952 1231.809, 925 1231.522, 925 1229.948 C 925 1229.498, 924.561 1227.976, 924.025 1226.565 C 922.869 1223.526, 920.485 1223.225, 919.035 1225.934 M 1185 1228.531 C 1185 1229.339, 1184.480 1230, 1183.845 1230 C 1183.183 1230, 1183.448 1230.837, 1184.466 1231.963 C 1185.466 1233.068, 1185.971 1234.634, 1185.621 1235.546 C 1185.222 1236.586, 1185.447 1237.020, 1186.249 1236.756 C 1188.191 1236.117, 1188.448 1228.386, 1186.551 1227.658 C 1185.584 1227.287, 1185 1227.615, 1185 1228.531 M 1145 1230 C 1144.175 1230.533, 1143.893 1230.976, 1144.372 1230.985 C 1144.852 1230.993, 1144.732 1231.618, 1144.105 1232.373 C 1142.764 1233.989, 1143.660 1237, 1145.482 1237 C 1146.553 1237, 1148 1232.907, 1148 1229.875 C 1148 1228.740, 1146.878 1228.787, 1145 1230 M 1139.290 1232 C 1139.002 1233.100, 1138.482 1234.034, 1138.133 1234.077 C 1133.071 1234.688, 1132.093 1235.613, 1134.573 1237.442 C 1136.308 1238.722, 1136.717 1238.597, 1138.682 1236.182 C 1141.201 1233.084, 1142.265 1230, 1140.813 1230 C 1140.263 1230, 1139.577 1230.900, 1139.290 1232 M 1166.116 1239.027 C 1165.976 1240.866, 1160.545 1247, 1159.056 1247 C 1157.155 1247, 1157.949 1245.247, 1160.105 1244.683 C 1162.583 1244.035, 1162.101 1241.354, 1159.588 1241.807 C 1156.914 1242.289, 1153.093 1246.080, 1153.697 1247.652 C 1153.997 1248.434, 1153.443 1249.958, 1152.466 1251.037 C 1150.736 1252.949, 1150.774 1253, 1153.904 1253 C 1155.792 1253, 1156.863 1252.587, 1156.500 1252 C 1156.160 1251.450, 1156.407 1251, 1157.048 1251 C 1157.700 1251, 1157.947 1251.697, 1157.607 1252.582 C 1157.273 1253.452, 1157 1254.378, 1157 1254.641 C 1157 1254.903, 1156.550 1254.840, 1156 1254.500 C 1155.450 1254.160, 1154.438 1254.234, 1153.750 1254.665 C 1151.998 1255.762, 1149.635 1255.684, 1148.765 1254.500 C 1148.361 1253.950, 1148.024 1254.570, 1148.015 1255.878 C 1148.001 1258.078, 1147.710 1258.209, 1144.117 1257.635 C 1139.336 1256.870, 1137.397 1258.621, 1140.138 1261.227 C 1141.863 1262.868, 1142.012 1262.845, 1143.116 1260.783 L 1144.278 1258.611 1146.389 1261.170 C 1148.173 1263.333, 1149.158 1263.672, 1152.750 1263.354 C 1155.088 1263.148, 1157 1263.157, 1157 1263.375 C 1157 1263.592, 1155.820 1264.543, 1154.377 1265.489 C 1152.934 1266.434, 1152.061 1266.711, 1152.436 1266.104 C 1152.860 1265.418, 1152.225 1265, 1150.759 1265 C 1149.462 1265, 1147.860 1264.460, 1147.200 1263.800 C 1146.267 1262.867, 1146 1262.880, 1146 1263.859 C 1146 1264.551, 1145.559 1264.846, 1145.021 1264.513 C 1144.482 1264.180, 1143.060 1264.433, 1141.861 1265.075 C 1140.028 1266.055, 1139.923 1266.377, 1141.198 1267.091 C 1142.032 1267.558, 1143.740 1267.743, 1144.993 1267.501 C 1146.246 1267.260, 1146.988 1267.346, 1146.642 1267.692 C 1146.296 1268.038, 1146.929 1268.963, 1148.049 1269.747 C 1149.513 1270.772, 1150.446 1270.874, 1151.367 1270.111 C 1152.254 1269.374, 1152.967 1269.367, 1153.688 1270.088 C 1154.409 1270.809, 1155.215 1270.642, 1156.311 1269.546 C 1157.181 1268.676, 1158.254 1268.033, 1158.696 1268.116 C 1160.382 1268.434, 1165.912 1266.728, 1165.711 1265.952 C 1165.395 1264.733, 1172.152 1259.976, 1173.242 1260.650 C 1173.762 1260.971, 1175.899 1261.210, 1177.993 1261.181 C 1180.865 1261.141, 1181.918 1261.577, 1182.278 1262.953 C 1183.095 1266.079, 1181.678 1267.266, 1178.733 1265.924 C 1175.335 1264.376, 1171.746 1265.360, 1170.500 1268.182 C 1169.903 1269.536, 1168.091 1270.829, 1166 1271.394 C 1161.540 1272.599, 1161.497 1272.641, 1163.131 1274.268 C 1163.984 1275.118, 1166.008 1275.491, 1168.500 1275.257 C 1178.397 1274.330, 1179.506 1274.428, 1179.366 1276.223 C 1179.257 1277.611, 1179.598 1277.750, 1181.116 1276.938 C 1182.152 1276.383, 1183 1274.869, 1183 1273.572 C 1183 1271.450, 1185.303 1269.429, 1187.250 1269.841 C 1188.179 1270.038, 1188.116 1253.065, 1187.180 1251 C 1186.806 1250.175, 1185.295 1249.376, 1183.823 1249.224 C 1181.697 1249.004, 1181.080 1249.416, 1180.823 1251.224 C 1180.617 1252.674, 1179.909 1253.403, 1178.871 1253.234 C 1177.897 1253.075, 1177.008 1253.862, 1176.661 1255.190 C 1176.341 1256.413, 1175.757 1257.091, 1175.364 1256.697 C 1174.970 1256.304, 1173.602 1256.964, 1172.324 1258.165 C 1171.046 1259.366, 1170 1259.820, 1170 1259.174 C 1170 1258.528, 1170.450 1258, 1171 1258 C 1171.550 1258, 1172 1257.325, 1172 1256.500 C 1172 1255.675, 1172.675 1255, 1173.500 1255 C 1174.325 1255, 1175 1254.498, 1175 1253.885 C 1175 1253.219, 1173.943 1253.462, 1172.374 1254.490 C 1170.209 1255.909, 1169.595 1255.973, 1168.874 1254.855 C 1168.150 1253.732, 1167.825 1253.757, 1166.976 1255 C 1166.114 1256.263, 1165.562 1256.026, 1163.481 1253.500 C 1160.268 1249.600, 1160.359 1248.257, 1164.094 1244.403 C 1166.043 1242.392, 1167.011 1240.525, 1166.710 1239.356 C 1166.384 1238.089, 1166.195 1237.985, 1166.116 1239.027 M 1118.866 1240.667 C 1117.588 1241.007, 1117.261 1242.271, 1117.366 1246.452 C 1117.448 1249.748, 1117.884 1251.558, 1118.500 1251.167 C 1119.050 1250.817, 1119.950 1250.503, 1120.500 1250.470 C 1121.050 1250.436, 1121.401 1249.909, 1121.281 1249.298 C 1121.161 1248.686, 1120.936 1246.345, 1120.781 1244.094 C 1120.626 1241.844, 1120.500 1240.054, 1120.500 1240.117 C 1120.500 1240.180, 1119.765 1240.428, 1118.866 1240.667 M 784.046 1369.805 C 783.246 1370.079, 781.698 1371.135, 780.607 1372.151 C 779.516 1373.168, 778.274 1374, 777.847 1374 C 776.082 1374, 775.077 1377.723, 776.365 1379.484 C 778.300 1382.131, 781.686 1380.537, 784.076 1375.852 C 786.316 1371.460, 786.304 1369.032, 784.046 1369.805 M 799.500 1390.001 C 799.150 1391.102, 797.995 1392.467, 796.932 1393.036 C 794.754 1394.202, 794.399 1396.999, 796.200 1398.800 C 799.102 1401.702, 807 1398.855, 807 1394.908 C 807 1389.698, 800.869 1385.687, 799.500 1390.001" stroke="none" fill="#fffcfc" fill-rule="evenodd"/><path d="" stroke="none" fill="#fcfcfc" fill-rule="evenodd"/></svg>