<svg xmlns="http://www.w3.org/2000/svg" width="2080" height="2080" viewBox="0 0 2080 2080" version="1.1"><path d="M 1180 516.691 C 1123.589 535.457, 1051.727 553.478, 951.500 573.994 C 859.323 592.863, 787.414 609.121, 621.500 648.609 C 519.689 672.840, 514.685 674.113, 508.106 677.446 C 501.009 681.043, 499.686 683.434, 500.159 691.811 C 500.509 697.996, 501.361 700.291, 509.341 716.548 C 520.039 738.342, 533.410 762.348, 553.314 795.500 C 590.746 857.844, 628.987 913.735, 672.293 969.392 C 682.090 981.982, 689.888 992.850, 689.623 993.541 C 688.895 995.438, 682.383 997.314, 680.393 996.200 C 678.007 994.865, 670.803 997.968, 671.572 1000 C 672.878 1003.450, 673.196 1007, 672.198 1007 C 671.620 1007, 670.941 1006.212, 670.689 1005.250 C 670.438 1004.288, 670.180 1004.948, 670.116 1006.719 C 670.027 1009.187, 670.348 1009.804, 671.492 1009.365 C 673.542 1008.578, 674.543 1011.641, 672.888 1013.635 C 672.153 1014.521, 671.492 1016.877, 671.420 1018.873 C 671.341 1021.018, 670.820 1022.398, 670.144 1022.250 C 669.515 1022.112, 669 1023.152, 669 1024.559 C 669 1026.076, 669.423 1026.856, 670.040 1026.475 C 670.721 1026.054, 670.843 1026.776, 670.394 1028.565 C 669.971 1030.252, 670.082 1031.067, 670.684 1030.696 C 671.222 1030.363, 671.572 1031.080, 671.466 1032.296 C 671.360 1033.508, 671.641 1034.971, 672.090 1035.546 C 672.539 1036.121, 672.879 1037.471, 672.847 1038.546 C 672.767 1041.132, 675.172 1047.241, 676.765 1048.500 C 678.462 1049.841, 679.714 1063, 678.145 1063 C 677.515 1063, 677 1062.550, 677 1062 C 677 1061.450, 676.502 1061, 675.893 1061 C 675.270 1061, 675.066 1061.730, 675.427 1062.670 C 675.780 1063.591, 675.492 1064.706, 674.784 1065.155 C 673.840 1065.754, 673.963 1065.973, 675.250 1065.985 C 676.212 1065.993, 677.056 1066.675, 677.125 1067.500 C 677.360 1070.321, 677.501 1070.834, 678.244 1071.577 C 679.233 1072.566, 675.277 1075.289, 673.998 1074.499 C 673.449 1074.160, 672.999 1073.346, 672.997 1072.691 C 672.996 1072.036, 671.690 1070.626, 670.095 1069.558 C 668.500 1068.489, 666.589 1066.239, 665.848 1064.558 C 664.793 1062.165, 663.956 1061.561, 662 1061.779 C 660.625 1061.933, 659.350 1062.496, 659.167 1063.029 C 658.983 1063.563, 657.732 1064, 656.385 1064 C 655.039 1064, 653.664 1064.711, 653.331 1065.581 C 652.973 1066.514, 651.977 1066.966, 650.902 1066.685 C 649.801 1066.397, 647.601 1067.455, 645.350 1069.354 C 635.573 1077.603, 636.395 1076.428, 638.330 1079.381 C 640.590 1082.830, 639.153 1086.110, 635.763 1085.236 C 633.746 1084.717, 633.649 1084.835, 634.872 1086.327 C 635.627 1087.247, 635.852 1088.014, 635.372 1088.032 C 634.893 1088.049, 635.400 1088.776, 636.500 1089.647 C 637.886 1090.743, 638.116 1091.373, 637.250 1091.698 C 636.563 1091.956, 636 1092.565, 636 1093.052 C 636 1093.539, 636.675 1093.678, 637.500 1093.362 C 638.601 1092.939, 639 1093.492, 639 1095.440 C 639 1097.341, 638.151 1098.576, 636.006 1099.797 C 634.360 1100.733, 633.013 1101.950, 633.013 1102.500 C 633.014 1103.784, 639.174 1107.998, 641.062 1108.006 C 641.853 1108.010, 641.216 1108.682, 639.646 1109.501 C 636.201 1111.298, 635 1110.759, 635.742 1107.749 C 636.063 1106.444, 635.918 1105.850, 635.398 1106.333 C 634.904 1106.792, 634.493 1107.467, 634.485 1107.833 C 634.476 1108.200, 634.112 1109.063, 633.676 1109.750 C 633.163 1110.558, 633.442 1111, 634.464 1111 C 635.870 1111, 635.884 1111.250, 634.587 1113.250 C 633.448 1115.007, 633.388 1115.828, 634.314 1117 C 635.922 1119.034, 642.394 1121.319, 642.831 1120.007 C 643.308 1118.576, 646.720 1118.757, 647.417 1120.250 C 647.883 1121.250, 648.117 1121.250, 648.583 1120.250 C 649.393 1118.516, 651 1118.682, 651 1120.500 C 651 1122.145, 653.631 1122.587, 654.167 1121.032 C 654.374 1120.429, 655.062 1120.413, 655.992 1120.990 C 657.135 1121.701, 657.209 1122.191, 656.307 1123.093 C 655.405 1123.995, 655.492 1124.821, 656.680 1126.635 C 657.733 1128.241, 657.852 1129, 657.051 1129 C 656.106 1129, 657.981 1133.563, 660.705 1137.893 C 660.841 1138.108, 661.638 1137.716, 662.476 1137.020 C 664.792 1135.098, 664.296 1136.646, 661.873 1138.904 C 660.403 1140.273, 659.896 1141.677, 660.234 1143.443 C 660.503 1144.849, 660.349 1146, 659.893 1146 C 659.436 1146, 659.328 1146.692, 659.653 1147.537 C 659.977 1148.383, 659.512 1149.882, 658.619 1150.868 C 657.726 1151.855, 657.334 1153.035, 657.748 1153.490 C 658.162 1153.946, 657.727 1154.042, 656.782 1153.703 C 655.837 1153.364, 654.798 1153.518, 654.473 1154.044 C 654.148 1154.570, 654.359 1155, 654.941 1155 C 656.504 1155, 656.227 1157.566, 654.511 1158.991 C 653.692 1159.671, 653.252 1160.599, 653.534 1161.055 C 653.816 1161.511, 652.686 1163.275, 651.023 1164.976 C 647.871 1168.201, 647.173 1170.558, 649.171 1171.224 C 651.627 1172.042, 650.510 1176.790, 645.239 1187.949 C 638.418 1202.391, 633.443 1215.023, 630.255 1226 C 626.666 1238.355, 626.007 1259.832, 628.826 1272.571 C 631.429 1284.335, 636.789 1298.573, 644.156 1313.292 C 649.452 1323.874, 649.901 1325.242, 648.529 1326.614 C 647.688 1327.455, 647 1328.575, 647 1329.103 C 647 1330.611, 649.892 1331.334, 651.289 1330.175 C 652.255 1329.373, 654.288 1332.221, 659.949 1342.314 C 664.017 1349.566, 668.917 1358.104, 670.837 1361.286 C 673.493 1365.687, 674.050 1367.350, 673.164 1368.236 C 671.410 1369.990, 671.730 1370.708, 674.750 1371.787 C 676.984 1372.585, 680.456 1377.927, 693.250 1400.247 C 701.913 1415.359, 709 1427.958, 709 1428.245 C 709 1428.532, 708.102 1429.001, 707.005 1429.288 C 703.689 1430.156, 703.552 1432.705, 706.646 1435.983 C 709.907 1439.438, 710.311 1439.546, 712.347 1437.510 C 713.667 1436.190, 717.054 1441.638, 742.033 1485.260 C 780.762 1552.892, 784.781 1559.543, 789.610 1563.995 C 794.469 1568.474, 800.559 1570.469, 806.772 1569.618 C 809.133 1569.294, 825.563 1564.334, 843.282 1558.596 C 966.158 1518.805, 1081.916 1489.317, 1240.414 1457.432 C 1263.467 1452.794, 1282.930 1449, 1283.664 1449 C 1284.399 1449, 1285 1449.800, 1285 1450.777 C 1285 1456.295, 1290.576 1458.457, 1297.426 1455.596 C 1300.549 1454.290, 1300.777 1453.884, 1300.643 1449.853 L 1300.500 1445.515 1336.500 1438.743 C 1356.300 1435.019, 1402.650 1426.564, 1439.500 1419.953 C 1518.353 1405.809, 1512 1407.021, 1512 1406.118 C 1512 1405.721, 1508.004 1398.412, 1503.121 1389.877 C 1470.254 1332.431, 1446.199 1275.703, 1431.935 1222 C 1430.109 1215.125, 1428.497 1209.333, 1428.352 1209.128 C 1428.208 1208.924, 1418.717 1217.474, 1407.261 1228.128 C 1395.805 1238.783, 1368.447 1263.920, 1346.466 1283.989 C 1324.485 1304.058, 1292.100 1334.678, 1274.500 1352.034 C 1240.472 1385.590, 1237.529 1388.211, 1229.130 1392.447 C 1219.507 1397.300, 1213.258 1397.819, 1132.228 1400.488 C 1040.558 1403.507, 1045.613 1403.451, 1046.384 1401.443 C 1048.285 1396.488, 1057.550 1345.217, 1056.698 1344.365 C 1056.422 1344.088, 1041.639 1342.836, 1023.848 1341.583 L 991.500 1339.304 925.500 1386.448 C 889.200 1412.377, 858.825 1433.986, 858 1434.468 C 856.747 1435.200, 856.759 1435.028, 858.076 1433.422 C 858.943 1432.365, 864.775 1425.200, 871.036 1417.500 C 877.297 1409.800, 901.256 1380.888, 924.278 1353.250 L 966.135 1303 1013.599 1303 C 1050.705 1303, 1061.144 1302.727, 1061.434 1301.750 C 1061.638 1301.063, 1062.581 1296.225, 1063.529 1291 C 1065.037 1282.688, 1069.244 1266.365, 1082.553 1217.186 C 1084.385 1210.413, 1085.471 1205.013, 1084.966 1205.186 C 1084.460 1205.359, 1074.473 1214.522, 1062.773 1225.548 C 1051.073 1236.575, 1039.411 1247.500, 1036.858 1249.826 L 1032.216 1254.056 976.858 1224.091 C 946.411 1207.610, 921.373 1193.520, 921.219 1192.780 C 921.064 1192.040, 922.301 1190.128, 923.969 1188.530 C 925.636 1186.933, 927 1184.894, 927 1184 C 927 1183.106, 928.334 1181.096, 929.964 1179.534 C 931.595 1177.972, 932.693 1176.313, 932.405 1175.847 C 932.118 1175.381, 932.391 1175, 933.012 1175 C 933.649 1175, 933.431 1174.288, 932.514 1173.371 C 931.618 1172.475, 931.084 1171.224, 931.327 1170.591 C 931.592 1169.900, 930.730 1169.451, 929.175 1169.470 C 927.065 1169.494, 926.584 1169.034, 926.592 1167 C 926.599 1165.225, 927.114 1164.543, 928.365 1164.650 C 930.034 1164.791, 930.036 1164.698, 928.409 1162.900 C 927.404 1161.789, 927.170 1161, 927.845 1161 C 928.480 1161, 929 1161.450, 929 1162 C 929 1162.550, 930.098 1163, 931.441 1163 C 935.153 1163, 935.564 1164.937, 932.004 1165.649 C 929.895 1166.071, 929.205 1166.605, 929.886 1167.286 C 931.342 1168.742, 936.108 1165.444, 935.361 1163.498 C 935.045 1162.674, 934.358 1162, 933.834 1162 C 933.310 1162, 933.190 1161.502, 933.566 1160.893 C 934.032 1160.139, 933.533 1160.013, 932 1160.500 C 930.467 1160.987, 929.968 1160.861, 930.434 1160.107 C 930.810 1159.498, 930.529 1158.993, 929.809 1158.985 C 928.807 1158.973, 928.832 1158.760, 929.915 1158.074 C 930.693 1157.581, 932.167 1157.340, 933.191 1157.537 C 934.216 1157.734, 934.790 1157.469, 934.468 1156.948 C 933.578 1155.509, 924.243 1155.772, 923.746 1157.250 C 923.418 1158.225, 922.959 1158.198, 921.663 1157.128 C 919.064 1154.982, 919.681 1153.771, 923.001 1154.500 C 925.240 1154.992, 926.156 1154.758, 926.608 1153.580 C 926.941 1152.711, 927.889 1152, 928.714 1152 C 929.662 1152, 929.994 1151.426, 929.616 1150.441 C 928.851 1148.449, 926.329 1147.008, 983 1180.943 L 1029.500 1208.787 1036.502 1201.644 C 1040.353 1197.715, 1059.988 1177.175, 1080.136 1156 C 1127.457 1106.264, 1137.476 1096.499, 1142.022 1095.685 C 1147.555 1094.693, 1165.349 1093.155, 1179.858 1092.414 C 1190.697 1091.860, 1193.384 1091.992, 1194.108 1093.116 C 1194.859 1094.281, 1195.156 1094.262, 1195.985 1093 C 1196.847 1091.687, 1196.971 1091.699, 1196.985 1093.095 C 1197 1094.654, 1199.976 1098, 1201.348 1098 C 1201.727 1098, 1201.756 1096.875, 1201.411 1095.500 C 1201.024 1093.960, 1201.209 1093, 1201.892 1093 C 1202.501 1093, 1203 1093.675, 1203 1094.500 C 1203 1095.325, 1203.450 1096, 1204 1096 C 1204.550 1096, 1205 1096.675, 1205 1097.500 C 1205 1098.325, 1204.662 1099, 1204.250 1099 C 1203.838 1098.999, 1203.564 1100.736, 1203.643 1102.858 C 1203.768 1106.211, 1203.505 1106.702, 1201.643 1106.608 C 1200.184 1106.535, 1199.392 1105.737, 1199.162 1104.109 C 1198.886 1102.153, 1199.154 1101.845, 1200.638 1102.415 C 1202.030 1102.949, 1201.877 1102.498, 1199.981 1100.479 L 1197.508 1097.848 1196.913 1100.174 C 1196.585 1101.453, 1196.751 1103.063, 1197.281 1103.750 C 1197.811 1104.438, 1197.907 1105, 1197.495 1105 C 1197.083 1105, 1198.603 1107.015, 1200.873 1109.478 C 1203.143 1111.940, 1205 1114.501, 1205 1115.169 C 1205 1115.836, 1205.661 1115.509, 1206.468 1114.441 C 1207.760 1112.734, 1207.940 1112.705, 1207.968 1114.200 C 1207.986 1115.135, 1208.778 1116.336, 1209.729 1116.868 C 1211.351 1117.776, 1211.340 1117.967, 1209.545 1119.950 C 1208.493 1121.112, 1206.708 1121.937, 1205.579 1121.782 C 1204.100 1121.579, 1203.521 1122.061, 1203.512 1123.500 C 1203.504 1124.843, 1202.715 1125.611, 1201.109 1125.838 C 1199.223 1126.105, 1198.854 1125.824, 1199.359 1124.506 C 1199.712 1123.588, 1200 1122.622, 1200 1122.359 C 1200 1122.097, 1200.450 1122.160, 1201 1122.500 C 1201.550 1122.840, 1202 1122.679, 1202 1122.142 C 1202 1121.606, 1201.564 1121.017, 1201.032 1120.833 C 1200.416 1120.621, 1200.410 1119.955, 1201.017 1119 C 1201.820 1117.735, 1201.972 1117.788, 1201.985 1119.333 C 1201.993 1120.351, 1202.556 1120.981, 1203.250 1120.750 C 1203.938 1120.521, 1204.455 1119.808, 1204.400 1119.167 C 1204.345 1118.525, 1204.233 1117.208, 1204.150 1116.241 C 1204.067 1115.273, 1202.987 1113.870, 1201.750 1113.123 C 1199.982 1112.056, 1199.768 1112.047, 1200.750 1113.082 C 1202.372 1114.792, 1202.353 1116.073, 1200.714 1115.444 C 1199.987 1115.165, 1199.367 1115.722, 1199.287 1116.725 C 1199.209 1117.701, 1198.764 1120.038, 1198.298 1121.919 L 1197.451 1125.338 1195.650 1122.588 C 1194.659 1121.076, 1194.066 1119.271, 1194.331 1118.579 C 1194.597 1117.886, 1194.413 1116.684, 1193.923 1115.909 C 1192.933 1114.345, 1193.039 1113.836, 1192.649 1122 C 1192.409 1127.024, 1194.249 1130.225, 1196.811 1129.242 C 1199.587 1128.177, 1194.366 1132.932, 1174 1150.019 C 1143.130 1175.918, 1115.124 1204.913, 1109.381 1216.920 C 1106.824 1222.265, 1103.426 1240.697, 1098.488 1276 C 1089.109 1343.065, 1087.987 1350.627, 1086.657 1355.750 L 1085.293 1361 1090.396 1360.993 C 1102.601 1360.976, 1213.975 1356.995, 1218.500 1356.413 C 1225.081 1355.568, 1231.632 1353.037, 1237.254 1349.169 C 1239.765 1347.442, 1271.161 1316.659, 1307.023 1280.764 C 1404.981 1182.714, 1465.182 1125.972, 1556 1046.090 C 1578.024 1026.718, 1579.903 1024.462, 1579.959 1017.315 C 1579.982 1014.463, 1579.580 1011.026, 1579.067 1009.677 C 1578.024 1006.934, 1564.246 989.561, 1507.549 919.500 C 1486.184 893.100, 1468.585 871.352, 1468.440 871.171 C 1468.212 870.888, 1377.224 958.474, 1335.790 998.860 C 1322.616 1011.700, 1322.010 1012.153, 1320.290 1010.433 C 1318.570 1008.713, 1318.486 1008.717, 1318.136 1010.533 C 1317.936 1011.573, 1318.301 1012.600, 1318.947 1012.816 C 1319.750 1013.083, 1319.579 1013.808, 1318.406 1015.104 C 1316.077 1017.678, 1315.371 1017.502, 1314.166 1014.046 C 1313.287 1011.524, 1313.406 1011.006, 1314.979 1010.507 C 1315.993 1010.185, 1318.024 1008.346, 1319.494 1006.420 C 1321.397 1003.924, 1322.691 1003.085, 1323.998 1003.499 C 1326.030 1004.144, 1327.406 1002.556, 1327.463 999.501 C 1327.484 998.363, 1328.184 997.493, 1329.087 997.484 C 1330.607 997.469, 1334 994.766, 1334 993.571 C 1334 993.257, 1333.325 993, 1332.500 993 C 1330.761 993, 1330.561 990.284, 1332.019 986.451 C 1332.845 984.276, 1332.771 983.874, 1331.623 984.314 C 1330.569 984.719, 1330.311 984.175, 1330.611 982.178 C 1332.299 970.926, 1332.265 970.212, 1329.987 968.993 C 1328.406 968.147, 1328.091 967.509, 1328.869 966.731 C 1329.647 965.953, 1330.475 966.120, 1331.805 967.324 C 1334.081 969.383, 1335.610 969.460, 1336.342 967.551 C 1336.727 966.548, 1336.418 966.286, 1335.337 966.701 C 1334.034 967.201, 1333.892 966.738, 1334.482 963.900 C 1334.992 961.447, 1337.725 957.933, 1344.293 951.282 C 1349.300 946.212, 1353.609 942.276, 1353.869 942.535 C 1354.128 942.795, 1355.451 942.279, 1356.808 941.390 C 1358.716 940.140, 1360.588 939.921, 1365.054 940.427 C 1368.378 940.803, 1371.081 940.678, 1371.418 940.133 C 1371.740 939.612, 1371.163 939.406, 1370.134 939.675 C 1368.789 940.027, 1367.637 939.149, 1366.028 936.546 C 1364.124 933.465, 1363.548 933.109, 1362.146 934.150 C 1361.241 934.822, 1365.970 929.776, 1372.656 922.936 L 1384.813 910.500 1380.346 898.500 C 1377.889 891.900, 1375.877 885.254, 1375.873 883.732 C 1375.870 882.210, 1375.498 881.193, 1375.046 881.472 C 1373.945 882.152, 1369.981 872.094, 1370.229 869.250 C 1370.461 866.597, 1372.699 866.221, 1373.200 868.750 C 1373.391 869.712, 1373.821 870.050, 1374.156 869.500 C 1374.491 868.950, 1374.345 867.386, 1373.831 866.024 C 1373.171 864.273, 1372.668 863.918, 1372.116 864.813 C 1371.065 866.514, 1366.530 864.798, 1365.543 862.327 C 1363.986 858.427, 1362.008 849.796, 1362.493 849.012 C 1362.773 848.558, 1362.175 848.403, 1361.163 848.668 C 1359.737 849.041, 1359.362 848.626, 1359.495 846.824 C 1359.589 845.546, 1359.966 844.612, 1360.333 844.750 C 1360.700 844.888, 1361.430 845, 1361.955 845 C 1362.480 845, 1363.197 846.534, 1363.549 848.408 C 1363.956 850.579, 1364.880 851.997, 1366.094 852.314 C 1367.203 852.604, 1368 853.688, 1368 854.906 C 1368 856.290, 1368.639 857, 1369.883 857 C 1370.987 857, 1372.022 857.931, 1372.383 859.250 C 1372.898 861.127, 1373.163 861.251, 1373.985 860 C 1374.781 858.788, 1374.972 858.943, 1374.985 860.809 C 1374.993 862.079, 1374.555 862.843, 1374.011 862.507 C 1373.445 862.157, 1373.277 862.558, 1373.618 863.448 C 1373.946 864.302, 1374.830 865, 1375.582 865 C 1376.589 865, 1376.783 864.142, 1376.316 861.750 C 1375.968 859.962, 1375.304 858.350, 1374.841 858.167 C 1374.379 857.983, 1373.964 857.083, 1373.921 856.167 C 1373.876 855.220, 1373.632 855.016, 1373.356 855.694 C 1373.089 856.350, 1372.234 856.643, 1371.456 856.345 C 1370.478 855.970, 1370.075 854.281, 1370.151 850.887 C 1370.244 846.784, 1369.827 845.569, 1367.631 843.534 C 1364.838 840.945, 1364.372 839.506, 1366 838.500 C 1367.626 837.495, 1367.149 836.272, 1364.899 835.684 C 1363.635 835.353, 1363.083 834.675, 1363.512 833.980 C 1363.980 833.223, 1364.564 833.164, 1365.210 833.810 C 1365.857 834.457, 1367.191 834.229, 1369.091 833.148 C 1372.387 831.272, 1372.572 830.715, 1370.564 828.707 C 1369.018 827.161, 1370.222 825, 1372.630 825 C 1374.410 825, 1387 830.950, 1387 831.791 C 1387 832.181, 1388.013 832.601, 1389.250 832.724 C 1396.717 833.467, 1400.626 834.448, 1401.807 835.877 C 1402.545 836.770, 1402.863 836.937, 1402.514 836.248 C 1402.126 835.482, 1402.898 834.609, 1404.505 833.998 C 1408.098 832.632, 1409 832.741, 1409 834.539 C 1409 835.808, 1409.250 835.852, 1410.416 834.789 C 1411.281 834.002, 1411.476 833.130, 1410.916 832.550 C 1409.437 831.017, 1409.866 829.644, 1411.421 830.935 C 1412.588 831.903, 1412.746 831.745, 1412.305 830.057 C 1412.009 828.926, 1412.171 828, 1412.665 828 C 1414.001 828, 1416.054 820.185, 1416.162 814.694 C 1416.237 810.852, 1415.781 809.447, 1413.891 807.694 L 1411.525 805.500 1414.161 805.193 C 1415.719 805.012, 1416.995 804.127, 1417.282 803.028 C 1417.965 800.420, 1416.152 798.848, 1413.870 800.070 C 1411.336 801.426, 1408.034 799.191, 1407.872 796.009 C 1407.802 794.629, 1407.834 791.362, 1407.944 788.750 C 1408.136 784.171, 1407.584 783.374, 1404.603 783.931 C 1404.109 784.023, 1404.457 782.951, 1405.376 781.549 C 1406.295 780.147, 1406.586 779, 1406.023 779 C 1405.460 779, 1405 779.461, 1405 780.025 C 1405 781.048, 1401.085 782.998, 1397.718 783.651 C 1394.804 784.217, 1394.379 780.981, 1397.094 778.894 C 1398.417 777.877, 1399.113 777.034, 1398.639 777.022 C 1398.166 777.010, 1398.819 776.157, 1400.092 775.127 L 1402.405 773.254 1400.233 773.377 C 1399.038 773.445, 1397.185 774.251, 1396.115 775.168 C 1395.045 776.085, 1393.933 776.600, 1393.645 776.312 C 1392.968 775.634, 1396.996 771.608, 1399.912 770.047 C 1401.155 769.382, 1401.947 768.613, 1401.672 768.339 C 1401.398 768.065, 1400.048 768.578, 1398.673 769.479 C 1396.283 771.045, 1396.141 771.020, 1395.477 768.927 C 1395.017 767.477, 1394.535 767.135, 1394.052 767.915 C 1393.522 768.773, 1392.956 768.652, 1391.976 767.471 C 1390.842 766.104, 1390.855 765.705, 1392.064 764.947 C 1392.854 764.451, 1394.309 764.298, 1395.298 764.605 C 1397.770 765.375, 1400.186 763.162, 1399.440 760.811 C 1399.107 759.762, 1399.377 758.251, 1400.040 757.452 C 1400.993 756.304, 1400.958 755.975, 1399.872 755.882 C 1397.747 755.698, 1397.694 755.702, 1394.340 756.326 C 1392.087 756.745, 1391.021 756.496, 1390.622 755.457 C 1389.815 753.355, 1391.035 750.799, 1392.564 751.386 C 1394.753 752.226, 1394.765 749.749, 1392.592 745.678 C 1390.649 742.037, 1390.630 741.744, 1392.265 740.548 C 1394.517 738.902, 1394.466 738, 1392.122 738 C 1391.089 738, 1389.493 739.013, 1388.576 740.250 C 1387.658 741.487, 1387.180 741.938, 1387.513 741.250 C 1388.170 739.892, 1387.073 739.651, 1384.582 740.607 C 1382.462 741.420, 1382.569 742.981, 1384.750 743.079 C 1386.144 743.142, 1386.195 743.274, 1385 743.729 C 1384.175 744.043, 1383.232 744.709, 1382.905 745.208 C 1382.185 746.307, 1377 745.151, 1377 743.892 C 1377 743.401, 1377.567 743, 1378.259 743 C 1378.952 743, 1380.141 741.987, 1380.901 740.750 C 1382.246 738.560, 1382.231 738.547, 1380.313 740.250 C 1379.229 741.212, 1377.815 742, 1377.171 742 C 1376.471 742, 1375.972 743.709, 1375.930 746.250 C 1375.891 748.587, 1375.536 751.322, 1375.140 752.327 C 1374.493 753.969, 1374.281 753.893, 1373.041 751.577 C 1372.283 750.160, 1371.176 748.984, 1370.581 748.965 C 1369.986 748.945, 1370.625 748.286, 1372 747.500 C 1374.407 746.124, 1374.419 746.070, 1372.317 746.035 C 1370.988 746.014, 1369.885 746.787, 1369.495 748.015 C 1369.144 749.123, 1368.444 749.774, 1367.939 749.463 C 1367.435 749.151, 1367.269 749.536, 1367.569 750.319 C 1368.184 751.922, 1365.383 753.428, 1364.486 751.977 C 1364.168 751.462, 1364.394 750.132, 1364.989 749.021 C 1365.812 747.483, 1365.763 746.984, 1364.785 746.932 C 1364.078 746.895, 1364.513 746.376, 1365.750 745.780 C 1366.987 745.183, 1368 744.309, 1368 743.839 C 1368 743.368, 1367.114 743.537, 1366.031 744.213 C 1364.359 745.257, 1363.748 745.106, 1361.987 743.217 C 1359.084 740.101, 1353.052 737.762, 1349.645 738.431 C 1347.452 738.862, 1346.915 738.664, 1347.331 737.579 C 1347.630 736.802, 1347.190 735.903, 1346.355 735.583 C 1344.121 734.726, 1344 734.804, 1344 737.107 C 1344 738.600, 1343.548 739.041, 1342.448 738.618 C 1341.570 738.281, 1341.158 738.446, 1341.499 738.998 C 1342.095 739.963, 1339.409 739.763, 1333.762 738.422 C 1331.701 737.932, 1330.862 738.195, 1330.367 739.487 C 1329.981 740.492, 1330.284 741.558, 1331.099 742.061 C 1332.233 742.762, 1332.129 743.185, 1330.537 744.349 C 1328.083 746.144, 1326.112 745.426, 1324.925 742.303 C 1324.418 740.970, 1323.552 740.159, 1322.999 740.501 C 1322.330 740.914, 1322.341 741.768, 1323.032 743.061 C 1323.664 744.240, 1323.695 745, 1323.113 745 C 1322.586 745, 1321.635 743.425, 1321 741.500 C 1319.936 738.276, 1318 736.662, 1318 739 C 1318 739.550, 1318.450 740, 1319 740 C 1320.632 740, 1320.142 741.430, 1318.066 742.727 C 1316.325 743.814, 1316.151 743.667, 1316.316 741.256 C 1316.451 739.296, 1315.964 738.470, 1314.500 738.174 C 1313.400 737.951, 1312.169 737.258, 1311.765 736.634 C 1311.294 735.906, 1311.025 736.106, 1311.015 737.191 C 1310.983 740.784, 1309.091 739.773, 1306.470 734.762 C 1304.966 731.885, 1281.800 682.500, 1254.990 625.016 C 1197.622 502.013, 1201.755 510.706, 1200.500 510.427 C 1199.950 510.304, 1190.725 513.123, 1180 516.691 M 955.228 540.206 C 950.458 542.556, 951.457 550.255, 956.668 551.308 C 963.805 552.751, 968.953 547.584, 965.872 542.069 C 964.249 539.164, 959.153 538.272, 955.228 540.206 M 685.643 583.028 C 684.071 583.499, 682.046 584.529, 681.143 585.316 C 680.239 586.103, 677.700 587.309, 675.500 587.997 C 661.762 592.288, 662.237 607.103, 676.024 604.345 C 679.442 603.662, 686.281 596.609, 690.490 589.426 C 694.411 582.737, 692.968 580.833, 685.643 583.028 M 776.807 586.750 C 773.851 590.192, 773.886 590.890, 777.100 592.552 C 780.190 594.149, 780.329 594.125, 782.883 591.536 L 785.500 588.883 783.139 586.941 C 780.221 584.542, 778.742 584.497, 776.807 586.750 M 1197.244 687.848 L 1167.987 697.500 1120.380 733.500 C 1094.195 753.300, 1071.774 770.121, 1070.554 770.880 C 1068.445 772.192, 1066.264 770.512, 1025.918 736.493 C 1002.588 716.821, 982.771 700.096, 981.879 699.325 C 980.433 698.075, 976.986 701.563, 949.879 731.701 C 895.341 792.340, 881.604 807.495, 880.907 807.797 C 880.529 807.960, 876.943 804.481, 872.938 800.067 C 867.231 793.777, 865.366 792.282, 864.316 793.153 C 863.253 794.035, 863.031 793.772, 863.238 791.882 C 863.408 790.339, 863.034 789.597, 862.176 789.775 C 861.447 789.926, 861.105 789.639, 861.415 789.138 C 862.318 787.677, 859.203 785.714, 856.926 786.309 C 855.282 786.739, 854.980 786.500, 855.495 785.177 C 855.854 784.255, 856.227 783.224, 856.324 782.886 C 856.518 782.207, 816.800 738.023, 816 738.028 C 815.725 738.029, 804.925 753.554, 792 772.527 C 741.985 845.946, 743.833 843.094, 745.208 844.751 C 746.259 846.017, 746.095 846.525, 744.236 847.759 C 743.006 848.576, 742 850.089, 742 851.122 C 742 853.388, 742.294 853.416, 745.987 851.507 C 748.847 850.028, 748.888 850.047, 750.126 853.473 C 751.149 856.301, 751.637 856.716, 752.800 855.751 C 753.583 855.101, 754.595 853.654, 755.048 852.535 C 755.786 850.715, 755.880 850.695, 755.937 852.339 C 756.020 854.771, 756.205 854.612, 790 823.048 C 805.125 808.921, 819.185 795.887, 821.244 794.083 L 824.988 790.804 863.244 828.351 C 892.310 856.877, 901.770 865.609, 902.623 864.699 C 903.240 864.039, 920.969 835.825, 942.019 802 C 963.070 768.175, 980.848 739.895, 981.527 739.155 C 982.536 738.055, 990.992 745.782, 1027.846 781.484 C 1052.642 805.504, 1074.009 826.006, 1075.328 827.043 L 1077.725 828.929 1130.622 775.715 C 1189.513 716.470, 1227.505 677.949, 1226.900 678.098 C 1226.680 678.153, 1213.335 682.540, 1197.244 687.848 M 1306.385 724.439 C 1305.583 726.530, 1306.903 728.315, 1312.259 732.384 C 1317.142 736.095, 1319 736.799, 1319 734.941 C 1319 734.359, 1318.571 734.147, 1318.047 734.471 C 1316.817 735.231, 1313 731.979, 1313 730.171 C 1313 729.315, 1312.392 729.019, 1311.407 729.397 C 1310.345 729.805, 1309.640 729.341, 1309.291 728.004 C 1309.003 726.902, 1308.383 726, 1307.915 726 C 1307.446 726, 1307.322 725.325, 1307.638 724.500 C 1307.955 723.675, 1307.927 723, 1307.576 723 C 1307.224 723, 1306.689 723.648, 1306.385 724.439 M 1407.642 749.750 C 1407.371 750.712, 1406.839 753.075, 1406.459 755 C 1406.080 756.925, 1405.278 759.108, 1404.678 759.851 C 1403.031 761.891, 1403.091 769, 1404.755 769 C 1405.579 769, 1405.821 769.494, 1405.367 770.250 C 1404.768 771.247, 1404.926 771.249, 1406.150 770.259 C 1406.994 769.576, 1407.980 769.313, 1408.342 769.675 C 1408.704 770.037, 1409 769.597, 1409 768.698 C 1409 767.589, 1408.469 767.267, 1407.350 767.696 C 1405.976 768.223, 1405.816 767.870, 1406.390 765.581 C 1406.879 763.634, 1406.746 763.039, 1405.933 763.541 C 1405.124 764.041, 1405.004 763.550, 1405.528 761.875 C 1405.936 760.569, 1406.546 759.275, 1406.885 759 C 1407.223 758.725, 1408.375 757.468, 1409.444 756.207 C 1411.057 754.304, 1411.105 754.022, 1409.728 754.551 C 1408.325 755.089, 1408.139 754.631, 1408.528 751.594 C 1409.009 747.833, 1408.488 746.747, 1407.642 749.750 M 1381.250 757.289 C 1378.653 758.462, 1378.450 759.299, 1380.373 760.895 C 1381.704 761.999, 1385.072 761.444, 1384.930 760.143 C 1384.617 757.284, 1383.382 756.325, 1381.250 757.289 M 804.667 758.667 C 803.460 759.874, 803.970 761.775, 805.678 762.430 C 806.634 762.797, 808.031 762.397, 808.928 761.501 C 810.318 760.110, 810.326 759.818, 809 758.979 C 807.228 757.859, 805.592 757.741, 804.667 758.667 M 1359.658 831.551 C 1359.999 832.439, 1359.603 833, 1358.638 833 C 1357.569 833, 1357.261 833.562, 1357.680 834.750 C 1358.589 837.325, 1362.157 841.021, 1363.145 840.410 C 1364.578 839.525, 1364.099 838, 1362.389 838 C 1361.099 838, 1360.904 837.324, 1361.412 834.616 C 1361.879 832.126, 1361.658 831.083, 1360.574 830.667 C 1359.582 830.286, 1359.283 830.575, 1359.658 831.551 M 1377.039 841.928 C 1375.848 844.153, 1376.713 847.259, 1378.373 846.715 C 1379.804 846.246, 1380.479 840, 1379.099 840 C 1378.533 840, 1377.606 840.867, 1377.039 841.928 M 931.876 919.338 C 930.019 921.769, 925.642 927.075, 922.149 931.129 C 910.441 944.718, 909.907 945.455, 910.392 947.349 C 910.753 948.760, 910.422 949.082, 908.997 948.709 C 907.946 948.435, 906.896 948.829, 906.596 949.611 C 906.243 950.529, 906.814 951.024, 908.281 951.070 C 910.354 951.136, 910.371 951.191, 908.544 951.906 C 906.603 952.665, 906.603 952.679, 908.544 953.805 C 909.620 954.429, 910.093 954.953, 909.595 954.970 C 909.097 954.986, 909.491 955.885, 910.470 956.967 C 911.449 958.049, 912.243 960.186, 912.235 961.717 C 912.227 963.248, 912.643 965.022, 913.159 965.661 C 914.676 967.539, 912.873 967.859, 906.750 966.798 C 902.961 966.141, 901 965.324, 901 964.401 C 901 963.630, 900.550 963, 900 963 C 899.450 963, 899 962.288, 899 961.417 C 899 960.546, 898.607 959.983, 898.126 960.167 C 896.984 960.602, 843.606 1024.504, 841.542 1027.906 C 840.855 1029.039, 841.294 1029.191, 843.806 1028.689 C 845.520 1028.346, 847.191 1028.501, 847.520 1029.033 C 847.850 1029.566, 846.857 1030.014, 845.309 1030.032 C 842.760 1030.061, 842.662 1030.187, 844.250 1031.392 C 846.338 1032.977, 846.569 1034.432, 844.613 1033.682 C 843.614 1033.298, 843.379 1033.735, 843.774 1035.243 C 844.191 1036.838, 843.953 1037.196, 842.774 1036.743 C 841.584 1036.287, 841.356 1036.652, 841.787 1038.325 C 842.487 1041.041, 844.853 1042.927, 847.615 1042.968 C 848.917 1042.988, 863.690 1031.822, 886.031 1013.934 C 928.518 979.914, 929.907 978.901, 932.965 979.701 C 934.920 980.212, 935.135 980.001, 934.546 978.146 C 934.172 976.966, 934.134 976, 934.463 976 C 935.838 976, 965.612 1002.163, 1017.785 1049.215 C 1026.191 1056.797, 1033.405 1063, 1033.815 1063 C 1034.225 1063, 1037.463 1059.513, 1041.009 1055.250 C 1044.556 1050.987, 1049.779 1044.800, 1052.617 1041.500 C 1055.454 1038.200, 1069.370 1021.775, 1083.541 1005 L 1109.307 974.500 1115.067 974.845 C 1121.576 975.234, 1122.987 973.986, 1123.015 967.816 C 1123.024 965.969, 1123.361 965.020, 1123.777 965.674 C 1124.275 966.456, 1124.920 966.010, 1125.709 964.337 C 1126.737 962.159, 1126.679 961.909, 1125.277 962.447 C 1124.387 962.789, 1123.252 962.490, 1122.754 961.784 C 1122.036 960.766, 1121.742 960.759, 1121.341 961.750 C 1120.468 963.900, 1119 963.116, 1119 960.500 C 1119 958.944, 1119.567 958, 1120.500 958 C 1121.325 958, 1122 957.523, 1122 956.941 C 1122 956.359, 1122.419 956.141, 1122.931 956.457 C 1123.443 956.774, 1124.144 956.575, 1124.490 956.016 C 1124.835 955.457, 1124.401 955, 1123.524 955 C 1122.258 955, 1122.143 954.602, 1122.965 953.066 C 1124.427 950.334, 1124.250 949.548, 1122.500 951 C 1121.675 951.685, 1120.954 952.977, 1120.898 953.872 C 1120.841 954.768, 1120.411 953.925, 1119.942 952 C 1118.938 947.881, 1119.635 944.675, 1121.322 945.657 C 1121.970 946.035, 1121.636 945.359, 1120.581 944.156 C 1118.688 941.999, 1118.688 941.948, 1120.581 940.534 C 1122.448 939.139, 1122.443 939.114, 1120.425 939.621 C 1118.560 940.089, 1118.371 939.737, 1118.567 936.152 C 1118.759 932.642, 1118.483 932.087, 1116.269 931.532 C 1113.866 930.928, 1113.838 930.837, 1115.627 929.482 C 1116.657 928.702, 1116.994 928.049, 1116.375 928.032 C 1115.756 928.014, 1114.990 926.702, 1114.673 925.115 C 1114.276 923.131, 1113.221 921.916, 1111.298 921.226 C 1109.759 920.675, 1106.169 919.292, 1103.320 918.154 L 1098.139 916.084 1070.898 958.292 C 1055.916 981.506, 1040.778 1004.956, 1037.259 1010.403 C 1031.047 1020.017, 1030.809 1020.250, 1029.087 1018.403 C 1028.111 1017.356, 1013.855 1001.450, 997.406 983.056 C 943.610 922.896, 936.928 915.504, 936.085 915.209 C 935.627 915.049, 933.733 916.907, 931.876 919.338 M 1122.890 936.281 C 1122.078 937.901, 1122.531 942.990, 1123.522 943.370 C 1124.692 943.819, 1125.952 941.258, 1125.986 938.357 C 1125.998 937.412, 1123.248 935.569, 1122.890 936.281 M 1202.672 961.070 C 1200.919 963.117, 1201.315 965.523, 1203.545 966.379 C 1205.602 967.168, 1206.287 965.330, 1204.244 964.505 C 1202.698 963.880, 1202.756 963.701, 1204.750 962.932 C 1207.275 961.958, 1207.686 960.477, 1205.647 959.695 C 1204.903 959.409, 1203.564 960.028, 1202.672 961.070 M 1147.172 965.937 C 1146.205 968.709, 1146.319 968.911, 1149.199 969.544 C 1151.284 970.002, 1152.522 969.784, 1153.110 968.857 C 1154.442 966.754, 1154.182 966.167, 1151.750 965.796 C 1150.513 965.607, 1149.612 964.901, 1149.750 964.226 C 1150.262 961.713, 1148.157 963.110, 1147.172 965.937 M 1141.264 965.493 C 1140.359 967.109, 1127.753 969.583, 1125.986 968.491 C 1125.520 968.203, 1124.877 968.391, 1124.557 968.908 C 1124.237 969.425, 1124.769 970.055, 1125.738 970.308 C 1127.403 970.743, 1127.403 970.774, 1125.750 970.884 C 1123.580 971.028, 1123.454 972.853, 1125.557 973.660 C 1126.414 973.989, 1126.878 974.875, 1126.589 975.629 C 1126.222 976.585, 1126.886 976.995, 1128.781 976.985 C 1130.630 976.974, 1131.077 976.701, 1130.180 976.132 C 1129.172 975.493, 1129.605 974.548, 1132.006 972.147 C 1134.918 969.236, 1137 968.170, 1137 969.590 C 1137 969.914, 1136.074 970.929, 1134.942 971.846 C 1133.271 973.199, 1133.064 973.981, 1133.842 976.006 C 1134.672 978.167, 1134.894 978.266, 1135.507 976.750 C 1136.351 974.661, 1138 974.425, 1138 976.393 C 1138 978.070, 1140.211 979.028, 1143.832 978.921 C 1145.299 978.878, 1145.868 978.592, 1145.095 978.286 C 1144.176 977.922, 1145.010 977.087, 1147.504 975.874 C 1150.362 974.484, 1151.654 974.298, 1152.659 975.132 C 1153.685 975.983, 1154 975.872, 1154 974.658 C 1154 972.292, 1150.593 970.824, 1147.677 971.933 C 1145.570 972.734, 1145.290 972.608, 1145.698 971.046 C 1146.329 968.633, 1144.174 967.398, 1142.411 969.161 C 1141.368 970.203, 1141.247 971.373, 1141.933 973.766 C 1142.439 975.532, 1142.468 977.211, 1141.995 977.503 C 1140.758 978.268, 1139.890 976.451, 1140.604 974.590 C 1140.947 973.697, 1140.703 973, 1140.048 973 C 1139.407 973, 1139.160 972.550, 1139.500 972 C 1139.840 971.450, 1139.641 971, 1139.059 971 C 1136.974 971, 1138.100 969.474, 1141.272 968 C 1144.391 966.551, 1145.212 964.904, 1143.156 964.219 C 1142.610 964.037, 1141.758 964.610, 1141.264 965.493 M 908.079 970.357 C 908.028 971.544, 907.482 972.015, 906.565 971.663 C 905.775 971.360, 904.911 971.650, 904.644 972.306 C 904.283 973.193, 904.138 973.179, 904.079 972.250 C 904.036 971.563, 903.293 971, 902.429 971 C 901.011 971, 901.013 971.156, 902.454 972.597 C 903.333 973.476, 904.700 973.945, 905.494 973.641 C 906.287 973.336, 907.190 973.498, 907.500 974 C 907.810 974.502, 908.653 974.687, 909.372 974.411 C 910.091 974.135, 911.272 974.623, 911.997 975.496 C 913.163 976.902, 912.899 977.056, 909.693 976.840 C 907.701 976.706, 905.755 976.912, 905.369 977.298 C 904.983 977.684, 905.192 978, 905.833 978 C 906.475 978, 907 978.675, 907 979.500 C 907 980.325, 907.490 981, 908.090 981 C 908.689 981, 910.040 982.013, 911.092 983.250 C 912.410 984.801, 912.820 984.970, 912.412 983.794 C 911.898 982.314, 912.230 982.205, 914.910 982.974 C 916.784 983.512, 918 983.494, 918 982.930 C 918 982.419, 917.438 981.999, 916.750 981.998 C 916.063 981.996, 915.440 980.759, 915.366 979.248 C 915.145 974.707, 913.231 971, 911.108 971 C 910.040 971, 908.940 970.438, 908.662 969.750 C 908.376 969.041, 908.124 969.304, 908.079 970.357 M 1158.149 978.011 L 1154.877 981 1158.322 981 C 1161.045 981, 1161.889 980.533, 1162.351 978.767 C 1163.304 975.122, 1161.640 974.823, 1158.149 978.011 M 1210.361 983.750 C 1210.494 985.426, 1209.401 985.707, 1206 984.869 C 1205.173 984.666, 1204.500 985.168, 1204.500 985.988 C 1204.500 987.011, 1206.061 987.699, 1209.497 988.190 C 1215.203 989.006, 1216.524 988.224, 1215.608 984.573 C 1214.833 981.485, 1210.123 980.746, 1210.361 983.750 M 1215.508 1081.774 C 1212.858 1084.633, 1212.146 1087.448, 1214.250 1086.755 C 1214.938 1086.529, 1215.644 1085.366, 1215.820 1084.172 C 1216.047 1082.626, 1216.840 1082, 1218.570 1082 C 1221.258 1082, 1221.841 1080.537, 1219.508 1079.642 C 1218.634 1079.306, 1216.978 1080.189, 1215.508 1081.774 M 1204.572 1089.028 C 1202.047 1090.938, 1201.248 1092, 1202.335 1092 C 1203.266 1092, 1204.980 1092.563, 1206.144 1093.250 C 1207.768 1094.209, 1208.362 1094.222, 1208.695 1093.306 C 1208.934 1092.650, 1209.775 1092.360, 1210.565 1092.663 C 1211.492 1093.019, 1212.005 1092.557, 1212.015 1091.357 C 1212.028 1089.792, 1212.183 1089.736, 1213 1091 C 1213.814 1092.259, 1213.972 1092.196, 1213.985 1090.610 C 1214 1088.720, 1211.385 1086.067, 1209.500 1086.060 C 1208.950 1086.057, 1206.732 1087.393, 1204.572 1089.028 M 1209.488 1102.013 C 1207.305 1104.425, 1207.148 1108.468, 1209.083 1112.442 C 1210.974 1116.327, 1213.459 1117.183, 1212.798 1113.722 C 1212.445 1111.879, 1212.681 1111.324, 1213.656 1111.698 C 1215.837 1112.535, 1215.197 1110.902, 1212.404 1108.502 C 1209.876 1106.330, 1209.851 1106.189, 1211.430 1103.136 C 1213.263 1099.590, 1212.224 1098.990, 1209.488 1102.013 M 885.029 1161.946 C 884.064 1163.749, 884.219 1164, 886.298 1164 C 889.541 1164, 890.311 1165.042, 888.234 1166.619 C 887.102 1167.479, 886.934 1167.991, 887.750 1168.093 C 888.438 1168.179, 889.370 1168.306, 889.821 1168.375 C 890.273 1168.444, 891.430 1169.287, 892.393 1170.250 C 893.355 1171.213, 894.561 1172, 895.071 1172 C 896.754 1172, 896.039 1170.091, 893.935 1168.965 C 892.292 1168.086, 892.111 1167.571, 893.049 1166.441 C 893.697 1165.661, 894.585 1165.244, 895.023 1165.514 C 895.461 1165.785, 896.533 1165.733, 897.404 1165.398 C 899.676 1164.527, 898.224 1162.794, 895.852 1163.547 C 894.315 1164.035, 893.942 1163.764, 894.186 1162.338 C 894.443 1160.834, 893.740 1160.445, 890.314 1160.196 C 886.931 1159.950, 885.918 1160.285, 885.029 1161.946 M 863.195 1193.333 C 848.770 1213.697, 837 1230.820, 837 1231.440 C 837 1231.813, 837.450 1231.840, 838 1231.500 C 838.550 1231.160, 839 1231.359, 839 1231.941 C 839 1232.523, 838.212 1233.008, 837.250 1233.018 C 836.211 1233.028, 833.306 1236.176, 830.098 1240.768 C 818.801 1256.936, 780.063 1313.762, 776.427 1319.500 L 772.624 1325.500 778.659 1320 C 798.969 1301.491, 897 1205.318, 897 1203.902 C 897 1202.860, 894.753 1200.930, 891.250 1198.965 C 888.087 1197.190, 885.140 1195.122, 884.700 1194.369 C 884.260 1193.616, 883.303 1193, 882.573 1193 C 881.842 1193, 880.659 1192.294, 879.942 1191.430 C 879.226 1190.567, 877.821 1190.075, 876.820 1190.337 C 875.591 1190.658, 875 1190.265, 875 1189.126 C 875 1188.168, 873.698 1186.947, 871.990 1186.302 C 868.996 1185.172, 868.949 1185.209, 863.195 1193.333 M 1543.213 1302.699 L 1540.926 1304.293 1543.138 1306.646 C 1545.831 1309.513, 1546.450 1309.550, 1549 1307 C 1551.617 1304.383, 1551.524 1303.560, 1548.453 1302.161 C 1545.450 1300.792, 1546.034 1300.733, 1543.213 1302.699 M 1538 1366.697 C 1533.661 1367.537, 1529.143 1371.718, 1528.422 1375.562 C 1527.532 1380.308, 1530.307 1387.370, 1534.132 1390.094 C 1537.028 1392.156, 1537.166 1392.164, 1539.304 1390.380 C 1540.512 1389.372, 1541.957 1388.032, 1542.517 1387.402 C 1543.076 1386.772, 1545.775 1385.186, 1548.516 1383.878 C 1554.147 1381.190, 1556.029 1377.829, 1554.438 1373.303 C 1552.826 1368.722, 1544.607 1365.419, 1538 1366.697 M 1574.211 1417.681 C 1571.320 1418.272, 1559.376 1430.482, 1558.096 1434.154 C 1557.286 1436.478, 1557.438 1437.004, 1559.068 1437.522 C 1561.274 1438.222, 1563.618 1437.684, 1570 1435.015 C 1572.475 1433.980, 1575.795 1432.855, 1577.378 1432.515 C 1583.637 1431.172, 1587.879 1423.829, 1584.750 1419.754 C 1583.404 1418, 1577.922 1416.922, 1574.211 1417.681 M 1469.981 1420.520 C 1467.739 1422.907, 1467.724 1423.038, 1469.491 1424.990 C 1471.886 1427.636, 1474.154 1427.529, 1476.867 1424.642 L 1479.082 1422.284 1476.791 1420.820 C 1475.531 1420.014, 1474.003 1419.064, 1473.395 1418.709 C 1472.788 1418.353, 1471.251 1419.168, 1469.981 1420.520 M 688 1444.943 C 688 1445.461, 688.944 1447.486, 690.099 1449.443 C 691.577 1451.949, 692.907 1453, 694.599 1453 C 697.019 1453, 697.831 1450.740, 696.235 1448.442 C 694.124 1445.402, 688 1442.800, 688 1444.943 M 1307.667 1449.667 C 1307.300 1450.033, 1307 1451.383, 1307 1452.667 C 1307 1454.573, 1307.529 1455, 1309.893 1455 C 1311.517 1455, 1313.034 1454.355, 1313.351 1453.529 C 1314.351 1450.921, 1309.625 1447.709, 1307.667 1449.667 M 1298 1472.117 C 1298 1472.731, 1297.147 1473.010, 1296.105 1472.738 C 1294.787 1472.393, 1293.872 1472.986, 1293.097 1474.686 C 1292.268 1476.507, 1291.476 1476.968, 1289.992 1476.497 C 1288.410 1475.995, 1287.976 1476.342, 1287.884 1478.183 C 1287.793 1479.994, 1287.665 1480.102, 1287.296 1478.675 C 1286.854 1476.965, 1286.707 1476.955, 1284.980 1478.518 C 1283.071 1480.245, 1283.318 1482.417, 1285.694 1484.821 C 1287.426 1486.574, 1287.342 1488.549, 1285.410 1491.497 C 1284.105 1493.489, 1284.023 1494.540, 1284.954 1497.361 C 1285.578 1499.252, 1285.776 1502.043, 1285.395 1503.564 C 1284.809 1505.898, 1284.966 1506.227, 1286.402 1505.676 C 1287.538 1505.240, 1287.868 1505.404, 1287.396 1506.169 C 1286.917 1506.943, 1287.366 1507.138, 1288.779 1506.768 C 1291.240 1506.125, 1292.775 1508.765, 1290.458 1509.655 C 1289.262 1510.113, 1289.198 1510.534, 1290.149 1511.680 C 1291.192 1512.936, 1291.465 1512.920, 1292.225 1511.563 C 1293.335 1509.579, 1295.611 1509.544, 1296.362 1511.500 C 1297.228 1513.758, 1302 1513.452, 1302 1511.139 C 1302 1509.688, 1302.557 1509.384, 1304.522 1509.759 C 1306.534 1510.144, 1306.813 1510.521, 1305.900 1511.621 C 1305.021 1512.679, 1305.074 1512.996, 1306.128 1512.985 C 1308.156 1512.962, 1310.500 1511.255, 1310.500 1509.800 C 1310.500 1509.100, 1311.287 1508.376, 1312.250 1508.190 C 1313.551 1507.940, 1314 1508.514, 1314 1510.427 C 1314 1511.842, 1313.438 1513.007, 1312.750 1513.015 C 1311.885 1513.026, 1311.839 1513.257, 1312.600 1513.765 C 1313.636 1514.457, 1316 1518.325, 1316 1519.327 C 1316 1520.545, 1312.558 1520.894, 1311.123 1519.822 C 1309.646 1518.719, 1309.647 1518.771, 1311.133 1520.402 C 1312.481 1521.881, 1313.149 1521.991, 1314.950 1521.027 C 1316.708 1520.086, 1317.623 1520.178, 1319.642 1521.501 C 1321.420 1522.666, 1324.714 1523.196, 1330.971 1523.322 C 1337.890 1523.462, 1340.221 1523.888, 1341.781 1525.301 C 1343.729 1527.065, 1343.779 1527.024, 1344.243 1523.301 C 1344.996 1517.263, 1340.567 1510.952, 1338.593 1515.250 C 1338.277 1515.938, 1338.251 1515.547, 1338.535 1514.382 C 1338.902 1512.875, 1338.325 1511.788, 1336.538 1510.617 C 1333.642 1508.720, 1329.488 1501.328, 1329.868 1498.750 C 1330.020 1497.720, 1329.483 1497, 1328.563 1497 C 1327.703 1497, 1327 1496.523, 1327 1495.941 C 1327 1495.359, 1326.581 1495.141, 1326.069 1495.457 C 1325.557 1495.774, 1324.855 1495.574, 1324.508 1495.014 C 1324.085 1494.329, 1323.264 1494.323, 1322.005 1494.997 C 1319.291 1496.450, 1318.598 1496.283, 1315.535 1493.445 C 1312.953 1491.052, 1312.663 1490.995, 1310.952 1492.543 C 1306.920 1496.192, 1306.220 1491.009, 1309.457 1481.475 C 1311.538 1475.347, 1310.442 1473.475, 1303.961 1472.085 C 1297.768 1470.757, 1298 1470.756, 1298 1472.117" stroke="none" fill="#fffcfc" fill-rule="evenodd"/><path d="" stroke="none" fill="#fcfcfc" fill-rule="evenodd"/></svg>